<svg width="120" height="38" viewBox="0 0 120 38" fill="none" xmlns="http://www.w3.org/2000/svg">
<g clip-path="url(#clip0_1_1524)">
<path d="M19.3818 0.0180157C11.3273 -0.45246 4.01821 7.23802 0.945479 18.3485C-1.6727 27.8485 1.1273 37.5113 9.63639 37.6742C17.4728 37.8371 24.5455 29.8571 27.3273 19.1447C30.1455 8.17897 25.3455 0.361825 19.3818 0.0180157ZM17.9273 19.5609C15.0546 26.9799 10.4364 33.7113 8.27275 33.7113C7.76366 33.6752 7.23639 33.6571 6.87275 33.078C6.56366 32.6256 6.40002 31.938 6.40002 30.9971C6.40002 28.6266 7.43639 24.6275 9.60003 18.6018C12.7273 9.89802 16.6182 3.76373 19.0182 3.65516C19.3091 3.70944 19.5637 3.63706 20.1091 4.19802C21.5273 6.1523 20.5818 12.7571 17.9273 19.5609ZM87.2 0.271349H62.0182C59.4728 4.17992 57.9637 10.6037 57.9637 10.6037L63.1637 10.6399C63.5455 9.1923 65.6909 5.24754 65.6909 5.24754H77.5091C76.7091 8.75802 74.3455 11.1104 72.9091 12.9561C71.4546 14.7837 66.2909 20.9723 63.0728 25.0799C58.9455 30.3999 57.2909 36.8418 57.2909 36.8418H67.1273C67.9273 33.1866 70.8182 28.518 71.7273 26.9256C72.6909 25.2609 76.9818 20.6466 82.2364 13.5894C87.4909 6.5504 87.2 0.271349 87.2 0.271349ZM120.473 0.271349H89.2909C89.1091 5.37421 87.5273 7.58183 87.5273 7.58183H106.164C107.073 5.88087 108.509 5.88087 108.509 5.88087H117.727C121.473 2.67802 120.473 0.271349 120.473 0.271349ZM85.7455 13.4628C86.2182 15.7609 87.2 16.539 87.9818 17.0456L88.2 15.6704L88.9091 12.6847H94.7455C94.7455 12.6847 93.3091 16.9733 91.2182 18.9999C90.0364 20.1399 89.0546 19.9952 88.3819 19.9952H79.5818L78.0182 21.9494H88.9091C88.9091 21.9494 91.8 21.8771 92.9818 20.7009C94.5455 19.1266 97.5637 13.8609 98.2364 12.8113C98.8909 11.7437 100.727 11.5085 101.636 11.3637C102.545 11.219 103.745 10.7304 104.909 9.15611H86.8C86.8 9.15611 85.3637 11.5085 85.7455 13.4628ZM48.2909 0.0180157C40.2364 -0.45246 32.9273 7.23802 29.8546 18.3485C27.2364 27.8485 30.0364 37.5113 38.5455 37.6742C46.3818 37.8371 53.4546 29.8571 56.2364 19.1447C59.0546 8.17897 54.2546 0.361825 48.2909 0.0180157ZM46.8364 19.5609C43.9637 26.9799 39.3455 33.7113 37.1818 33.7113C36.6728 33.6752 36.1455 33.6571 35.7818 33.078C35.4728 32.6256 35.3091 31.938 35.3091 30.9971C35.3091 28.6266 36.3455 24.6275 38.5091 18.6018C41.6364 9.89802 45.5273 3.76373 47.9273 3.65516C48.2182 3.70944 48.4728 3.63706 49.0182 4.19802C50.4364 6.1523 49.4909 12.7571 46.8364 19.5609Z" fill="white"/>
</g>
<defs>
<clipPath id="clip0_1_1524">
<rect width="120" height="38" fill="white"/>
</clipPath>
</defs>
</svg>
