<svg width="120" height="42" viewBox="0 0 120 42" fill="none" xmlns="http://www.w3.org/2000/svg">
<path d="M59.8443 39.203C59.6694 39.1861 59.2568 39.1536 58.9274 39.1307C57.5998 38.9978 56.2048 38.3137 55.0991 37.5324C54.6794 37.2822 54.3236 36.9168 54.0424 36.6311C53.3111 36.1008 53.1828 35.3718 52.8141 34.704C52.567 34.1641 52.6791 33.8237 52.5235 33.2285C52.4779 32.8123 52.5995 32.3785 52.6227 31.9814C52.8155 31.0601 52.8537 30.0038 53.4564 29.2856C53.5247 29.2083 53.6186 29.082 53.665 29.005C54.326 28.0513 55.5063 27.6517 56.214 27.0304C57.4368 26.3828 59.3682 26.1298 60.4432 26.1017C61.2696 26.0805 61.8177 26.1185 62.1835 26.2223C62.486 26.3082 62.8951 26.3943 63.2626 26.4494C63.5109 26.4867 63.679 26.5381 63.8712 26.6357C64.0416 26.7222 64.233 26.7848 64.405 26.8104C65.5972 27.2036 67.2986 28.5443 68.0568 29.7342C68.1968 29.9549 68.2196 30.0214 68.2405 30.2693C68.8084 31.8553 68.3615 33.1471 68.2432 34.5606C68.18 35.0541 68.0927 35.3335 67.7567 35.7196C67.5163 36.0679 67.2641 36.4139 67.0676 36.64C66.869 36.8606 66.6944 37.1688 66.446 37.2933C65.5561 38.0602 64.3613 38.2684 63.3823 38.7983C63.2178 38.8917 62.7248 39.0219 62.408 39.0557C62.2228 39.0754 61.9196 39.1189 61.7344 39.1523C61.3491 39.2219 60.3256 39.2494 59.8443 39.203ZM60.4244 32.8975C60.645 32.858 60.7308 32.8182 60.9671 32.6462C61.2991 32.4044 61.3498 32.3508 61.4777 32.1065C61.5311 32.0044 61.606 31.878 61.6442 31.8255C61.7452 31.6863 61.7613 31.0721 61.6687 30.8871C61.545 30.6398 61.3207 30.3829 61.1297 30.2697C61.0246 30.2075 60.8663 30.106 60.778 30.0441C60.6262 29.9379 60.5917 29.9305 60.1467 29.9093C59.6304 29.8846 59.5152 29.909 59.3618 30.0756C59.3125 30.1291 59.1907 30.1999 59.091 30.2331C58.97 30.2733 58.8824 30.3328 58.8276 30.4122C58.7824 30.4777 58.6825 30.6009 58.6057 30.6861C58.3808 30.9354 58.3501 31.0246 58.3407 31.4547C58.3283 32.0211 58.3966 32.2159 58.7269 32.557C58.9581 32.7958 59.0068 32.828 59.2175 32.8807C59.505 32.9526 60.0736 32.9605 60.4244 32.8975ZM41.7865 38.1575C41.6285 38.0737 41.4691 38.0051 41.4322 38.0051C41.3371 38.0051 41.089 37.8978 41.0004 37.8184C40.9592 37.7815 40.8255 37.7228 40.7033 37.6878C40.577 37.6517 40.4204 37.5723 40.3404 37.5037C40.263 37.4374 40.1066 37.3538 39.9928 37.3179C39.879 37.282 39.7392 37.2135 39.6821 37.1657C39.625 37.1179 39.5072 37.0427 39.4205 36.9986C39.1746 36.8737 38.6035 36.3786 38.5069 36.2066C38.4592 36.1217 38.3426 35.9963 38.2477 35.9281C38.1528 35.8599 38.0007 35.7001 37.9098 35.5731C37.8188 35.4461 37.6749 35.2604 37.5901 35.1606C37.4613 35.0089 37.4316 34.9427 37.4098 34.7594C37.3954 34.6386 37.3525 34.4302 37.3144 34.2962C37.2763 34.1623 37.2335 33.913 37.2194 33.7422C37.1949 33.4467 37.1985 33.4244 37.2941 33.2796C37.3494 33.196 37.4041 33.066 37.4156 32.9907C37.446 32.7924 37.4818 32.7385 37.7578 32.4755C38.0792 32.1691 38.3357 31.9794 38.5133 31.9167C38.7225 31.8428 39.395 31.8061 39.5867 31.8581C39.6737 31.8817 39.8221 31.9679 39.9164 32.0496C40.0108 32.1314 40.1185 32.1983 40.1557 32.1983C40.1929 32.1983 40.3065 32.2645 40.4081 32.3455C40.5097 32.4265 40.6761 32.5245 40.7779 32.5632C40.8797 32.602 41.0359 32.6866 41.1251 32.7513C41.2233 32.8226 41.3561 32.8789 41.4619 32.8942C41.558 32.9081 41.7441 32.979 41.8754 33.0518C42.0918 33.1718 42.1483 33.1858 42.4784 33.2018C43.0301 33.2284 43.5139 33.1593 43.8378 33.0078C43.9857 32.9386 44.1563 32.8703 44.217 32.856C44.2776 32.8418 44.3809 32.7848 44.4464 32.7296C44.5119 32.6743 44.6867 32.5364 44.8346 32.4231C44.9826 32.3097 45.1392 32.158 45.1827 32.0859C45.2261 32.0138 45.326 31.8835 45.4046 31.7964C45.506 31.6842 45.5476 31.604 45.5476 31.5212C45.5476 31.4569 45.605 31.2833 45.6752 31.1353C45.8551 30.7557 45.8845 30.5374 45.8845 29.5781C45.8845 28.692 45.8675 28.5623 45.7227 28.3428C45.674 28.2689 45.6124 28.1381 45.5859 28.0522C45.5593 27.9663 45.4641 27.8063 45.3742 27.6966C45.2843 27.5869 45.2108 27.485 45.2108 27.4702C45.2108 27.4554 45.1157 27.3373 44.9995 27.2077C44.517 26.6698 44.4919 26.5823 44.715 26.2192C44.9049 25.9102 44.9387 25.8734 45.1147 25.7852C45.1984 25.7432 45.3097 25.6689 45.3619 25.6199C45.5492 25.4446 45.7596 25.4081 46.6891 25.3901C47.6215 25.3721 48.2298 25.4252 48.6844 25.5644C48.8143 25.6042 49.0332 25.6471 49.1709 25.6597C49.3086 25.6723 49.5223 25.6977 49.6458 25.716C50.3614 25.8223 50.4368 25.8409 50.6376 25.9602C50.7508 26.0274 50.91 26.0944 50.9914 26.109C51.1511 26.1376 51.4036 26.254 51.4424 26.3168C51.4556 26.3382 51.562 26.404 51.6789 26.4631C51.7957 26.5222 51.925 26.6086 51.9662 26.6551C52.0074 26.7016 52.1291 26.7965 52.2368 26.8659C52.6005 27.1006 52.7615 27.5831 52.7199 28.3132C52.7068 28.5441 52.6797 29.0785 52.6597 29.5009C52.6209 30.3222 52.5944 30.5155 52.4727 30.8683C52.4184 31.0258 52.3844 31.2618 52.3591 31.6567C50.4802 36.3681 46.2994 40.5286 41.7865 38.1575ZM73.9726 38.6041C73.1959 38.5308 72.2836 38.3272 71.937 38.1498C71.7815 38.0702 71.6306 38.0051 71.6017 38.0051C71.4779 38.0051 71.1063 37.7465 70.8261 37.4654C70.5675 37.2058 70.1529 36.6649 69.9969 36.3835C69.7487 35.9357 69.65 35.6053 69.4629 34.5959C69.419 34.359 69.3589 34.0471 69.3293 33.9029C69.2752 33.6386 69.2269 33.0084 69.1658 31.7675C69.1476 31.3966 69.1122 31.0127 69.0872 30.9144C69.0521 30.7759 69.0518 30.6999 69.0862 30.5772C69.1198 30.4568 69.1202 30.3558 69.0878 30.1565C69.0371 29.8446 69.0704 28.8823 69.1436 28.5456C69.1705 28.422 69.2035 28.2424 69.2171 28.1465C69.2332 28.0328 69.2912 27.9027 69.384 27.7719C69.4623 27.6617 69.5374 27.526 69.551 27.4702C69.5856 27.3283 70.0357 26.8249 70.2642 26.6726C70.3689 26.6028 70.5304 26.4681 70.623 26.3733C70.7634 26.2296 70.8423 26.1854 71.0966 26.1077C71.2644 26.0564 71.4224 25.9896 71.4477 25.9591C71.5074 25.8871 71.8115 25.804 72.1273 25.7734C72.265 25.76 72.5345 25.6978 72.7261 25.6351C73.1985 25.4806 73.4505 25.4554 74.7773 25.4301C76.3621 25.3999 77.2024 25.4755 77.7152 25.6944C77.8388 25.7471 77.9748 25.7907 78.0176 25.7912C78.1376 25.7925 78.4158 25.995 78.5705 26.1936C78.878 26.5883 79.0439 26.887 79.0435 27.0453C79.0431 27.2301 78.8746 27.541 78.6765 27.7226C78.2967 28.071 78.1374 28.1897 78.0499 28.1897C77.9986 28.1897 77.8419 28.2475 77.7018 28.3182C77.4684 28.4359 77.4045 28.4498 76.9448 28.4835C76.6687 28.5037 76.2269 28.5224 75.9631 28.525C75.4024 28.5306 75.1657 28.5686 74.9076 28.6945C74.5227 28.8823 74.4495 29.0652 74.6786 29.2666C74.7938 29.3678 74.8355 29.3792 75.1744 29.4021C75.5795 29.4294 76.2358 29.38 76.4083 29.3092C76.475 29.2818 76.8121 29.2577 77.2734 29.2473C77.9615 29.2317 78.0521 29.2371 78.284 29.308C78.6947 29.4337 79.088 29.8133 79.1384 30.1328C79.1503 30.2076 79.1944 30.3443 79.2365 30.4365C79.3675 30.7235 79.3683 30.9448 79.239 31.2055C79.1777 31.3291 79.1154 31.4893 79.1007 31.5614C79.0484 31.8175 79.0153 31.8449 78.3737 32.1628C78.283 32.2077 78.1061 32.2579 77.9807 32.2743C77.8553 32.2907 77.6815 32.33 77.5945 32.3616C77.3781 32.4403 77.0197 32.5241 76.6999 32.5707C76.5531 32.5921 76.3426 32.6518 76.2321 32.7033C76.1215 32.7548 76.0037 32.7971 75.9702 32.7973C75.8721 32.7979 75.8187 32.895 75.816 33.0779C75.81 33.4693 76.0061 33.5708 76.697 33.5341C78.1063 33.5501 79.9355 32.5398 81.4217 33.3008C81.5108 33.3593 81.5864 33.4508 81.9501 33.9403C82.0266 34.0434 82.1303 34.2541 82.1806 34.4086C82.3844 35.0353 82.3072 35.6186 81.9799 35.9259C79.7168 37.6025 76.6294 38.8357 73.9726 38.6041ZM55.2222 24.5534C55.1605 24.5333 54.8743 24.4995 54.5862 24.4783C54.1425 24.4456 54.0388 24.4259 53.9081 24.3492C53.8233 24.2994 53.6632 24.2244 53.5524 24.1826C53.4416 24.1407 53.1994 23.9975 53.0141 23.8645C52.8289 23.7315 52.551 23.5455 52.3966 23.4513C51.7407 23.051 51.5461 22.9161 51.2028 22.624C51.1287 22.5609 50.9929 22.4875 50.9011 22.461C50.794 22.43 50.6866 22.3607 50.6017 22.2678C50.5288 22.1881 50.3934 22.0725 50.3007 22.0109C49.1783 21.236 48.5502 20.4848 47.6852 19.91C47.4716 19.7651 47.3237 19.7245 46.9113 19.6975C46.5401 19.6733 46.3213 19.7347 46.2766 19.8756C46.2643 19.9144 46.1939 20.0181 46.1201 20.1061C45.9603 20.2968 45.9028 20.4269 45.8671 20.6783C45.8526 20.7813 45.7935 20.9499 45.736 21.0529C45.6678 21.1751 45.6224 21.3249 45.6053 21.4837C45.591 21.6176 45.5132 21.9271 45.4324 22.1715C45.3517 22.4158 45.2857 22.6781 45.2857 22.7542C45.2857 22.8871 45.1258 23.2001 45.0266 23.2615C45.0036 23.2757 44.9421 23.3718 44.8898 23.475C44.8084 23.6359 44.7646 23.6761 44.5829 23.7565C44.2337 23.9111 43.5741 23.935 43.1526 23.8083C43.0807 23.7867 42.9705 23.769 42.9077 23.769C42.7461 23.769 42.2196 23.4184 42.0071 23.1692L41.8345 22.9669C41.5991 20.7977 42.1279 18.4333 42.1811 16.5761C42.5137 15.1342 43.1079 13.2156 43.8001 12.0899C45.9813 9.58014 50.2821 13.0347 51.7905 14.61C52.1586 14.9939 52.2166 15.0401 52.3306 15.0401C52.5195 15.0401 52.621 14.9152 52.6218 14.6818C52.6235 14.2086 52.7216 13.6245 52.8857 13.1107C53.5073 9.41575 57.4684 10.5589 58.6328 13.5463C58.697 13.7309 58.7028 13.8798 58.7022 15.3398C58.7014 17.35 58.6662 19.1453 58.6147 19.7979C58.5416 20.7253 58.5025 21.1245 58.4441 21.54C58.4123 21.7666 58.3859 22.0073 58.3855 22.0749C58.3851 22.1424 58.3346 22.2971 58.2734 22.4186C58.2121 22.54 58.1508 22.7124 58.1372 22.8015C58.1075 22.9952 58.0462 23.1257 57.9393 23.2225C57.8959 23.2618 57.8423 23.3616 57.82 23.4443C57.7933 23.5435 57.7171 23.6549 57.5956 23.7721C57.4944 23.8697 57.4117 23.9667 57.4117 23.9876C57.4117 24.0577 57.218 24.2567 57.0615 24.3474C56.9323 24.4223 56.8003 24.4479 56.2702 24.5014C55.3642 24.5929 55.3464 24.5938 55.2222 24.5534ZM60.1419 24.1012C60.0657 24.067 59.9915 24.0201 59.9772 23.9968C59.9629 23.9736 59.8456 23.9067 59.7167 23.8482C59.5173 23.7577 59.4735 23.7198 59.4234 23.5943C59.3909 23.5132 59.304 23.3745 59.2301 23.286C59.1563 23.1975 59.0958 23.0908 59.0958 23.0489C59.0958 23.007 59.0456 22.8848 58.9843 22.7775C58.8778 22.5912 58.8737 22.568 58.8949 22.2672C58.9261 21.8267 59.065 21.2573 59.2473 20.8227C59.3725 20.5244 59.4062 20.3937 59.4229 20.1415C59.4417 19.8576 59.4566 19.8102 59.5877 19.617C59.667 19.5001 59.7319 19.3643 59.732 19.3151C59.732 19.2658 59.8016 19.0804 59.8867 18.903C59.9717 18.7255 60.0643 18.5152 60.0924 18.4356C60.1467 18.2815 60.4796 17.6814 60.6147 17.4939C60.6592 17.4321 60.7324 17.269 60.7774 17.1315C60.8223 16.994 60.8847 16.8602 60.916 16.8341C60.9473 16.8081 61.0146 16.7046 61.0655 16.604C61.1164 16.5035 61.2152 16.3591 61.2851 16.2832C61.5582 15.9868 61.7465 15.6932 61.8033 15.4754C61.8348 15.3548 61.8934 15.2201 61.9337 15.1762C61.9739 15.1322 62.0494 15.011 62.1015 14.9067C62.2299 14.6498 62.4677 14.3554 62.6258 14.2575C62.7091 14.206 62.7787 14.1199 62.8191 14.0185C62.901 13.8126 62.9691 13.7399 63.1806 13.6325C63.3655 13.5387 63.7404 13.1718 63.872 12.9559C63.9789 12.7807 64.4667 12.3353 64.6598 12.2367C64.7455 12.1929 64.8523 12.1057 64.897 12.0428C64.9417 11.98 65.0568 11.8862 65.1528 11.8345C65.2487 11.7828 65.3793 11.7074 65.4429 11.667C65.5065 11.6266 65.6622 11.5827 65.789 11.5694C65.9879 11.5486 66.0362 11.5276 66.1412 11.4163C66.2762 11.2731 66.4546 11.1813 66.598 11.1813C66.6498 11.1813 66.7743 11.1308 66.8746 11.069C67.0948 10.9334 67.2613 10.8993 67.9768 10.8435C68.434 10.8079 68.6479 10.8108 69.2473 10.8611C69.9503 10.92 69.9755 10.9251 70.2675 11.0651C70.4321 11.1441 70.6113 11.2192 70.6656 11.2321C70.7199 11.245 70.851 11.3208 70.957 11.4005C71.1249 11.5268 71.1843 11.5487 71.4181 11.5704C71.8321 11.609 72.1447 11.8245 72.7378 12.4803C72.9458 12.7103 73.1993 12.9644 73.3011 13.045C73.4028 13.1256 73.5354 13.2629 73.5957 13.3502C73.6561 13.4374 73.7745 13.5493 73.8589 13.5988C74.0399 13.705 74.1711 13.841 74.2914 14.0473C74.3395 14.1297 74.4496 14.2743 74.5361 14.3686C74.6225 14.4629 74.706 14.5809 74.7216 14.6308C74.7372 14.6808 74.7974 14.7761 74.8553 14.8426C74.9133 14.9091 74.9709 15.0271 74.9834 15.1048C75.0185 15.3241 75.1014 15.4811 75.354 15.8069C75.4823 15.9724 75.6383 16.2005 75.7007 16.3138C76.0026 16.8618 76.1326 17.0848 76.1826 17.14C76.2125 17.1732 76.2783 17.3215 76.3286 17.4697C76.379 17.6179 76.4525 17.7851 76.4921 17.8413C76.587 17.9762 76.8219 18.4856 76.9192 18.7677C76.9772 18.936 77.0036 19.1383 77.024 19.5731C77.0391 19.8925 77.072 20.5163 77.0972 20.9593C77.1324 21.5789 77.1329 21.8512 77.0993 22.1394C77.0294 22.7402 77.0299 22.7393 76.5832 23.1939L76.1807 23.6035L75.5819 23.8268C75.0438 24.0274 74.9547 24.0499 74.7024 24.049C74.5045 24.0482 74.358 24.0234 74.2056 23.9649C74.0867 23.9192 73.8678 23.8707 73.7191 23.8572C73.5703 23.8437 73.3814 23.8092 73.2991 23.7805C73.0648 23.6988 72.6907 23.4369 72.6011 23.2919C72.5493 23.2079 72.4575 23.1328 72.348 23.0847C72.179 23.0106 72.0995 22.9519 71.6903 22.5992C71.5773 22.5017 71.4383 22.4119 71.3814 22.3994C71.1656 22.3522 71.0725 22.2956 70.9484 22.1361C70.7927 21.9361 70.2948 21.4838 70.2303 21.4838C70.2047 21.4838 70.0482 21.3934 69.8824 21.283C69.6998 21.1613 69.5207 21.0725 69.4281 21.0577C69.344 21.0443 69.1448 20.9807 68.9854 20.9165C68.5857 20.7555 68.249 20.6971 67.7225 20.6973C67.0987 20.6976 66.6091 20.7777 66.2405 20.9399C66.0759 21.0124 65.9097 21.0717 65.8712 21.0717C65.7725 21.0717 65.5004 21.1964 65.348 21.3115C65.2771 21.365 65.2002 21.4088 65.177 21.4088C65.1539 21.4088 65.0453 21.4758 64.9357 21.5576C64.8261 21.6395 64.6589 21.7353 64.564 21.7705C64.4611 21.8088 64.27 21.944 64.0898 22.1059C63.9238 22.2551 63.6946 22.4215 63.5803 22.4757C63.4546 22.5353 63.3559 22.6108 63.3303 22.6671C63.306 22.7204 63.2198 22.7892 63.1278 22.8287C63.0396 22.8665 62.8753 22.9802 62.7626 23.0813C62.5592 23.2637 62.1524 23.6008 61.853 23.8349C61.473 24.132 61.4617 24.1352 60.7268 24.1527C60.3747 24.1611 60.2513 24.1502 60.1419 24.1012ZM68.7891 17.3977C69.0047 17.3166 69.3811 16.9894 69.4844 16.7933C69.6184 16.539 69.5071 16.0951 69.2885 16.0119C69.2337 15.991 69.1297 15.9219 69.0573 15.8582C68.8879 15.7094 68.7181 15.6395 68.5259 15.6395C68.3381 15.6395 68.2616 15.6779 68.0219 15.8923C67.919 15.9844 67.7978 16.0925 67.7526 16.1326C67.6591 16.2154 67.6076 16.4692 67.6444 16.6657C67.6906 16.9123 68.2779 17.4745 68.4897 17.4749C68.5412 17.4751 68.6759 17.4403 68.7891 17.3977ZM79.3245 23.0978C79.1213 23.0441 78.5563 22.7287 78.3923 22.5773C78.3037 22.4956 78.1956 22.4096 78.1519 22.3862C78.0624 22.3383 77.9976 22.2323 77.9559 22.0653C77.9403 22.003 77.8951 21.867 77.8554 21.763C77.7627 21.5196 77.7347 21.3454 77.6961 20.772C77.6727 20.4233 77.6353 20.2079 77.5499 19.929C77.4795 19.699 77.4201 19.3953 77.3961 19.1423C77.3746 18.9157 77.3407 18.6206 77.3208 18.4867C77.3009 18.3528 77.2589 18.0577 77.2273 17.8311C77.1958 17.6044 77.1545 17.3316 77.1356 17.2248C76.9852 16.3757 77.0071 13.8396 77.17 13.2338C77.2128 13.0748 77.2632 12.795 77.2821 12.6119C77.3011 12.4288 77.3431 12.2155 77.3755 12.1377C77.408 12.06 77.4345 11.9674 77.4345 11.9319C77.4345 11.8965 77.5213 11.7383 77.6274 11.5805C77.801 11.3222 77.9205 11.1896 78.4263 10.6944C78.5087 10.6137 78.6363 10.5227 78.71 10.4921C78.7837 10.4615 78.8644 10.4117 78.8895 10.3815C78.9145 10.3514 79.0479 10.2797 79.1859 10.2222C79.3239 10.1647 79.5102 10.0662 79.6 10.0033L79.7631 9.88886L80.3859 9.87599C81.0854 9.86153 81.4662 9.90662 81.7759 10.0406C81.8892 10.0895 82.0828 10.1549 82.2063 10.1858C82.6302 10.292 83.6576 10.7861 83.9654 11.0319C84.0477 11.0976 84.1993 11.1937 84.3022 11.2455C84.4051 11.2972 84.5257 11.3729 84.5702 11.4137C84.6147 11.4545 84.773 11.5199 84.922 11.5591C85.2346 11.6412 85.4963 11.7933 85.7618 12.0471C86.0048 12.2794 86.3764 12.5298 86.4781 12.5299C86.5221 12.53 86.5966 12.4989 86.6436 12.4608C86.723 12.3964 86.726 12.3799 86.6859 12.2266C86.562 11.754 86.5219 10.3284 86.6158 9.739C86.7003 9.20894 86.7748 8.98922 86.9271 8.82043C87.0059 8.73315 87.0788 8.59918 87.1082 8.48769C87.1801 8.21469 87.6239 7.70054 87.9221 7.54478C87.9987 7.50476 88.1166 7.42401 88.1841 7.36534C88.3994 7.1781 88.4276 7.17274 89.1932 7.17317C89.9542 7.1736 90.1854 7.20933 90.388 7.35789C90.4418 7.39729 90.5934 7.47899 90.7249 7.53945C90.8763 7.60906 91.0738 7.75038 91.2634 7.92479C91.4281 8.07626 91.6109 8.24298 91.6697 8.29526C91.7285 8.34755 91.8238 8.48305 91.8815 8.59637C91.9392 8.7097 92.0479 8.86142 92.123 8.93354C92.2588 9.06392 92.4395 9.39486 92.5117 9.64535C92.5325 9.71746 92.56 10.0041 92.5729 10.2822C92.5999 10.865 92.674 11.328 92.778 11.5634C92.818 11.6538 92.8619 11.8029 92.8756 11.8947C92.9108 12.1299 93.0611 12.7428 93.1307 12.935C93.1628 13.0238 93.2146 13.2345 93.2458 13.4033C93.3038 13.7175 93.3486 13.9294 93.4888 14.553C93.5328 14.7488 93.5931 15.0438 93.6228 15.2087C93.6524 15.3735 93.709 15.6011 93.7485 15.7144C93.8186 15.9155 93.8928 16.4167 93.9814 17.2879C94.0465 17.9283 94.0386 18.1752 93.9314 18.858C93.8179 19.5802 93.6825 19.8026 93.0625 20.2849C92.9433 20.3777 92.7416 20.5499 92.6142 20.6676C92.2903 20.967 92.0787 21.0318 91.3008 21.0695C90.9715 21.0855 90.5589 21.0845 90.3839 21.0672C90.0798 21.0372 89.9472 21.0074 89.4857 20.8655C89.3725 20.8307 89.1492 20.7795 88.9895 20.7517C88.82 20.7222 88.6097 20.6535 88.4842 20.5868C88.366 20.5239 88.1734 20.4476 88.0561 20.4172C87.9389 20.3868 87.7277 20.3031 87.5868 20.2312C87.4304 20.1514 87.2148 20.0801 87.0328 20.0481C86.8689 20.0192 86.6254 19.944 86.4916 19.8811C86.3578 19.8181 86.1778 19.748 86.0916 19.7252C86.0054 19.7025 85.8502 19.6169 85.7465 19.5349C85.6429 19.4529 85.5362 19.3858 85.5093 19.3858C85.4824 19.3858 85.3727 19.3199 85.2656 19.2393C85.1585 19.1588 84.9906 19.0628 84.8924 19.0261C84.7942 18.9893 84.6634 18.922 84.6016 18.8765C84.5398 18.831 84.4304 18.7692 84.3583 18.7391C84.2863 18.7091 84.1449 18.6159 84.0442 18.5321C83.9434 18.4483 83.8176 18.3688 83.7646 18.3555C83.7116 18.3422 83.5728 18.2723 83.4562 18.2003C83.2448 18.0696 83.2427 18.0692 82.6861 18.0478C82.2128 18.0296 82.1082 18.0358 81.9969 18.0887C81.7654 18.1986 81.5028 18.7367 81.4596 19.1898C81.4483 19.3079 81.4312 20.0509 81.4215 20.841L81.4038 22.2774L81.1729 22.5268C81.0458 22.664 80.898 22.7956 80.8443 22.8193C80.2534 23.08 80.2264 23.0877 79.8298 23.1077C79.6137 23.1186 79.3863 23.1141 79.3245 23.0978ZM38.326 22.5671C38.2136 22.5272 37.9778 22.4846 37.802 22.4724C37.3622 22.442 37.2479 22.4073 37.0153 22.2336C36.9045 22.1509 36.7986 22.0832 36.7798 22.0832C36.7611 22.0832 36.6505 22.0036 36.534 21.9064C35.8481 21.334 35.3069 20.7179 35.082 20.2537C34.966 20.0143 34.2062 19.1934 33.9545 19.0356C33.8609 18.9769 33.6631 18.8252 33.5149 18.6985C32.279 17.5881 29.8281 17.7704 28.5712 18.2207C28.5201 18.261 28.3653 18.3302 28.2272 18.3745C28.0891 18.4188 27.9004 18.5019 27.8077 18.5591C27.4899 18.7555 27.0029 18.9988 26.7972 19.0639C26.6114 19.1228 26.4919 19.1872 26.1961 19.3876C25.8953 19.5914 25.6227 19.6918 25.2675 19.7295C24.7261 19.787 24.2464 19.747 23.9917 19.6232C23.6318 19.4481 23.0553 18.7709 22.9205 18.3649C22.8111 18.035 22.8461 17.3337 22.9865 17.0444C23.1929 16.6188 23.424 16.2694 23.747 15.8946C24.4441 14.9317 24.8926 14.1011 25.6219 13.3787C26.7581 12.0195 28.0309 10.489 29.6029 9.60518C30.6443 8.94315 32.0298 8.62206 33.0661 8.33558C34.593 8.12831 36.5229 8.85819 37.5491 9.82625C37.6443 9.94751 37.8746 10.2016 38.0608 10.3909C38.2471 10.5802 38.4319 10.7987 38.4715 10.8765C38.5567 11.0436 38.7466 11.2828 38.9851 11.5234C39.6693 12.5444 40.1283 13.6783 40.4937 14.9089C40.54 15.115 40.6435 15.4229 40.7237 15.5932C40.8038 15.7635 40.8694 15.9283 40.8694 15.9594C40.8694 15.9905 40.9046 16.1125 40.9476 16.2305C41.1174 16.696 41.1738 16.9761 41.206 17.5127C41.2238 17.8114 41.2655 18.2497 41.2986 18.4867C41.3631 18.9493 41.3507 19.3597 41.2612 19.723C41.2333 19.8363 41.2015 20.1301 41.1907 20.3758C41.1723 20.7887 41.1608 20.8438 41.0388 21.1009C40.9662 21.2539 40.9068 21.4028 40.9068 21.4318C40.9068 21.4607 40.8184 21.5842 40.7103 21.7062C40.6023 21.8282 40.4388 22.0159 40.347 22.1233C40.1098 22.4008 40.0014 22.4575 39.7073 22.4577C39.5567 22.4578 39.3401 22.4936 39.1459 22.5507C38.7702 22.661 38.6 22.6644 38.326 22.5671ZM34.5463 14.2183C34.1755 13.0735 33.4384 12.9042 32.7458 13.7532C32.6747 13.9406 32.7658 14.3064 32.9602 14.6136C33.1792 14.9596 33.2773 15.0117 33.6462 14.9785C34.1601 14.9515 34.4449 14.5726 34.5463 14.2183ZM96.1101 19.2046C95.9969 19.148 95.8035 19.0518 95.6804 18.9909C95.5272 18.915 95.4179 18.8269 95.3337 18.7115C95.2661 18.6188 95.1537 18.4839 95.0841 18.4118C94.9304 18.2527 94.875 18.1486 94.875 18.0188C94.875 17.9648 94.825 17.803 94.7639 17.6592C94.6164 17.3122 94.5536 16.6686 94.5667 15.6395C94.5764 14.884 94.6741 13.865 94.7642 13.579C94.8489 13.3104 94.9125 12.954 94.9147 12.7361C94.9159 12.6124 94.9382 12.3312 94.9642 12.1111C95.0019 11.7917 95.0314 11.6807 95.1101 11.5617C95.1804 11.4552 95.2196 11.3283 95.2465 11.119C95.2926 10.7616 95.3172 10.6798 95.4889 10.3128C95.5629 10.1544 95.6235 10.0013 95.6235 9.97249C95.6235 9.94367 95.6894 9.79505 95.7698 9.64221C95.8502 9.48938 95.9283 9.29881 95.9433 9.21874C95.9583 9.13866 96.0441 8.9657 96.1339 8.83439C96.2237 8.70308 96.2972 8.5813 96.2972 8.56377C96.2972 8.54624 96.3419 8.46633 96.3964 8.38619C96.451 8.30604 96.5412 8.1302 96.5969 7.99543C96.6526 7.86066 96.7679 7.65836 96.8531 7.54587C96.9383 7.43338 97.008 7.32157 97.0081 7.29739C97.0081 7.27321 97.063 7.18049 97.1299 7.09134C97.1968 7.00219 97.298 6.86182 97.3546 6.7794C98.1284 5.94007 98.9352 4.81022 100.034 4.4513C100.123 4.42415 100.284 4.35209 100.39 4.29118C100.534 4.20864 100.669 4.16956 100.92 4.13777C101.105 4.11431 101.354 4.07082 101.473 4.04113C101.839 3.95009 102.197 3.93786 102.66 4.00065C102.896 4.0328 103.208 4.06836 103.352 4.07966C103.744 4.11043 104.105 4.1957 104.693 4.39656C107.992 5.72656 110.313 8.36423 111.93 10.852C112.02 10.9902 112.116 11.1784 112.144 11.2702C112.171 11.362 112.248 11.513 112.315 11.6056C112.483 11.8394 112.537 12.1345 112.539 12.8153L112.54 13.3816L112.414 13.6395C112.345 13.7814 112.268 13.952 112.242 14.0186C112.155 14.2423 111.368 14.9651 111.212 14.9651C111.164 14.9651 110.984 15.0256 110.812 15.0996C110.316 15.3136 110.184 15.3388 109.56 15.3393C109.133 15.3397 108.954 15.325 108.83 15.2798C108.74 15.2468 108.591 15.1978 108.498 15.1709C108.067 15.0457 107.068 14.6479 106.729 14.4664C106.63 14.4137 106.454 14.3508 106.336 14.3264C106.218 14.3021 106.079 14.2607 106.028 14.2344C105.817 14.1265 105.349 13.9885 105.076 13.9539C104.916 13.9337 104.716 13.8969 104.63 13.8723C104.415 13.8103 103.764 13.8201 103.517 13.889C103.406 13.9201 103.17 13.9556 102.994 13.968C102.718 13.9874 102.634 14.0109 102.384 14.1406C102.225 14.2232 102.055 14.2908 102.007 14.2908C101.878 14.2908 101.577 14.5134 101.406 14.7353C101.324 14.8422 101.197 14.9647 101.125 15.0076C101.053 15.0505 100.859 15.2229 100.693 15.3907C100.527 15.5584 100.253 15.8221 100.084 15.9767C99.6353 16.3858 99.3287 16.8114 99.3287 17.0247C99.3287 17.0603 99.2869 17.1468 99.2358 17.2168C99.1848 17.2868 99.0932 17.4199 99.0323 17.5127C98.9714 17.6054 98.6324 17.9649 98.279 18.3116C97.7059 18.8737 97.6059 18.9558 97.3539 19.0707C97.0434 19.2124 96.668 19.3118 96.4539 19.3092C96.378 19.3082 96.2233 19.2612 96.1101 19.2046ZM102.94 10.2941C103.361 10.0601 103.389 10.0129 103.389 9.55002C103.389 9.08293 103.362 9.0349 102.97 8.81877C102.615 8.6225 102.414 8.60478 102.098 8.74174C101.632 8.94359 101.447 9.1636 101.4 9.57042C101.369 9.84548 101.449 10.0165 101.687 10.1812C102.035 10.422 102.276 10.509 102.51 10.478C102.582 10.4685 102.776 10.3858 102.94 10.2941ZM14.035 18.226C12.2692 18.0208 11.2666 17.6177 9.70203 16.8492C8.61191 16.3231 7.83855 15.3676 7.36049 14.3845L7.34347 13.6352C7.55081 11.2415 8.10649 8.53728 8.86947 6.49537C8.96845 6.13183 9.27021 5.81329 9.37524 5.52507C9.85737 4.93574 10.0228 4.45248 10.648 4.11243C11.6368 3.40673 12.8058 3.1811 14.0111 3.16418C14.6044 3.16418 15.1037 3.21365 15.3796 3.29978C16.1644 3.32043 16.5261 3.51208 17.2787 3.56328C17.8982 3.8211 18.6323 4.034 19.277 4.30648C19.8779 4.7803 20.8562 4.8847 21.3289 5.31488C21.9758 5.86761 22.6813 6.68768 23.0734 7.3225C23.2844 7.57495 23.2231 7.85868 23.2231 8.1717C23.2806 8.74529 23.1472 8.77379 22.987 9.18372C22.8625 9.50762 22.4047 10.0813 22.1816 10.1928C21.9655 10.3017 21.8068 10.6168 21.5863 10.6194C21.2866 10.6619 21.1841 10.9266 21.3588 11.0955C21.5649 11.2926 21.8485 11.4915 21.9931 11.5405C22.0726 11.5674 22.1714 11.6358 22.2126 11.6924C22.2537 11.7489 22.4196 11.9311 22.5812 12.0971C22.7428 12.2631 22.9055 12.4684 22.9428 12.5534C22.98 12.6384 23.0705 12.7866 23.1439 12.8828C23.2172 12.979 23.3018 13.137 23.3317 13.234C23.3617 13.331 23.4194 13.5031 23.4601 13.6165C23.6205 14.0631 23.5946 14.8378 23.4035 15.3132C23.3521 15.4411 23.2937 15.6011 23.2738 15.6686C22.2381 17.5792 20.6051 18.2055 18.5261 18.4608C17.0412 18.5272 15.4139 18.5566 14.035 18.226ZM15.0642 14.2359C15.2491 14.16 15.4041 14.0044 15.4462 13.8528C15.4886 13.7002 15.4843 13.051 15.4395 12.8228C15.4061 12.6529 15.1861 12.3882 15.0209 12.3191C14.8771 12.259 14.3051 12.2503 14.1072 12.3054C13.9598 12.3464 13.5799 12.7425 13.5084 12.9298C13.4861 12.9881 13.4585 13.1801 13.447 13.3566C13.4217 13.7429 13.4652 13.8523 13.7434 14.1028C13.8961 14.2403 13.9648 14.2752 14.1228 14.2955C14.3782 14.3283 14.9233 14.2938 15.0642 14.2359ZM15.7172 8.79598C15.8729 8.74565 15.961 8.67968 16.1658 8.46014C16.459 8.14585 16.5108 8.00431 16.4706 7.62643C16.4567 7.34611 16.2855 7.26712 16.097 7.1074C15.8871 6.9292 15.722 6.87306 15.4078 6.87306C15.1144 6.8511 14.9983 6.98882 14.7648 7.11925C14.4191 7.31993 14.5003 7.41621 14.3905 7.6843C14.316 7.86301 14.3196 7.95203 14.4116 8.19031C14.5004 8.42058 14.5604 8.50054 14.7554 8.64853C15.0348 8.86062 15.3621 8.91079 15.7172 8.79598Z" fill="white"/>
</svg>
