<svg width="120" height="22" viewBox="0 0 120 22" fill="none" xmlns="http://www.w3.org/2000/svg">
<path d="M28.2317 0.266388C28.1378 0.439541 28.1109 3.42309 28.1646 9.74981C28.2451 19.4197 28.2853 21.0447 28.5 21.4442C28.5805 21.5908 28.8622 21.7106 29.2379 21.7639C30.2844 21.9237 39.81 22.0836 40.0784 21.9504C40.293 21.8438 40.3064 21.6307 40.2796 19.8726L40.2394 17.9146L37.1536 17.8746C35.2619 17.8613 34.0276 17.7947 33.9337 17.7015C33.8397 17.6083 33.7995 14.7046 33.7995 9.00392C33.7995 1.94463 33.7727 0.399582 33.6117 0.226431C33.4507 0.026638 33.0884 0 30.9015 0C28.5268 0 28.3658 0.013319 28.2317 0.266388Z" fill="white"/>
<path d="M98.2922 0.279793C96.8701 0.439626 95.8504 1.01236 95.3004 2.01132C94.16 4.07582 94.5625 7.12597 96.1456 8.29808C97.4202 9.23043 98.9228 9.69661 101.579 9.97632C102.881 10.1228 103.229 10.3626 103.229 11.0952C103.229 12.1074 103.082 12.1873 101.257 12.1873C99.1509 12.174 98.9631 12.1207 98.8557 11.4548C98.8021 11.1617 98.7081 10.882 98.6276 10.8288C98.1581 10.5491 94.871 10.256 94.7235 10.4958C94.5759 10.7355 95.0991 12.7468 95.4345 13.2396C95.7968 13.799 96.9372 14.6115 97.7287 14.9045C97.9837 14.9977 98.8826 15.1576 99.7278 15.2508C103.229 15.677 105.282 14.9311 106.516 12.7867C106.745 12.3871 106.785 12.0808 106.785 10.589C106.785 8.96405 106.758 8.81753 106.409 8.16488C105.551 6.53991 103.981 5.78071 100.949 5.52764C100.399 5.47436 99.5802 5.36781 99.1375 5.27457L98.3325 5.10142V4.18238V3.26334L99.9425 3.22338C101.995 3.1701 102.102 3.19674 102.25 3.82275L102.371 4.31557L103.364 4.47541C104.933 4.72847 105.738 4.71516 105.899 4.40881C106.288 3.68956 105.443 1.98468 104.343 1.25211C103.967 0.999041 103.565 0.79925 103.458 0.79925C103.35 0.79925 103.055 0.719334 102.814 0.612778C102.384 0.439626 101.66 0.333071 100.117 0.213196C99.7278 0.186557 98.9094 0.213196 98.2922 0.279793Z" fill="white"/>
<path d="M72.1705 1.31825L71.3655 1.39816V7.59169C71.3655 14.4645 71.5399 20.8978 71.7277 21.1375C71.9021 21.3506 73.3109 21.4439 78.6103 21.5771C81.3205 21.6437 83.2256 21.6303 83.3195 21.5637C83.5342 21.3906 83.6952 18.0075 83.4939 17.7677C83.3732 17.6212 82.7158 17.5812 80.1398 17.5812H76.9333L76.9065 9.41645L76.8662 1.26497L74.9208 1.25165C73.8475 1.25165 72.6132 1.27829 72.1705 1.31825Z" fill="white"/>
<path d="M10.9916 1.81097C7.87896 2.29047 6.41657 2.75665 4.21628 3.92875C3.04905 4.55477 1.25125 6.41948 0.741426 7.52499C-0.0233095 9.18992 -0.0098931 9.14996 0.00352332 11.2544C0.0169397 13.0792 0.0437726 13.3189 0.365767 14.1048C0.942673 15.4767 1.33175 16.0228 2.52581 17.1416C3.41129 17.9674 3.97478 18.3537 5.06151 18.8864C5.82625 19.2727 6.55074 19.5791 6.67148 19.5791C6.79223 19.5791 7.08739 19.659 7.32889 19.7655C7.57038 19.8721 8.25462 20.0586 8.84494 20.2051C10.4281 20.5647 17.2168 20.5647 19.1756 20.1917C22.9188 19.4991 25.3471 18.0074 26.3534 15.783C26.729 14.9572 27.0376 13.7718 26.9437 13.532C26.8229 13.239 26.7022 13.2257 23.1334 13.0525L19.9806 12.906L19.6854 13.2523C19.511 13.4388 19.3768 13.7585 19.3768 13.9583C19.3768 14.1581 19.2695 14.6775 19.1353 15.1171L18.8938 15.9162L14.4664 15.9562C10.4415 15.9828 10.039 15.9695 9.89143 15.7564C9.52918 15.2769 9.77068 6.07318 10.1463 5.62032C10.2537 5.50044 11.1392 5.46049 13.9969 5.48712L17.6998 5.52708L17.8742 6.79243C18.1694 9.03009 18.1157 8.89689 18.6792 9.05673C18.9609 9.13664 20.799 9.18992 23.0127 9.18992C26.2997 9.18992 26.8766 9.16328 27.0242 8.99013C27.2657 8.6971 27.1047 7.00554 26.7693 6.24633C26.4473 5.52708 25.9911 5.03426 24.9446 4.26174C23.12 2.90316 21.0271 2.19723 17.6327 1.81097C15.4727 1.5579 12.6552 1.5579 10.9916 1.81097Z" fill="white"/>
<path d="M36.8853 2.89083C36.2681 3.03735 36.2815 2.97075 36.2815 8.25855V13.28L36.6706 13.8127C37.3146 14.6918 38.2806 15.3178 39.6893 15.7707C41.4603 16.3434 44.8278 15.8373 46.8537 14.7185C47.5782 14.3189 47.7794 14.3056 48.0611 14.6519C48.2758 14.9049 48.4502 14.9316 50.3017 14.9582C51.4152 14.9715 52.4349 14.9316 52.5691 14.8783C52.824 14.7851 52.824 14.6119 52.7301 9.08436C52.6496 4.38261 52.6093 3.34369 52.4349 3.09062C52.2336 2.7976 52.2202 2.7976 49.5235 2.82423L46.8134 2.86419L46.7463 7.48603C46.7061 10.0167 46.6524 12.1345 46.6122 12.1745C46.5451 12.2277 43.0837 12.2943 42.0774 12.2544C41.9298 12.2544 41.903 11.4286 41.9433 7.68582L41.9835 3.13058L41.2456 2.97075C40.5211 2.82423 37.4085 2.77096 36.8853 2.89083Z" fill="white"/>
<path d="M83.7086 3.07719C82.5011 3.43681 81.9108 3.66324 81.7364 3.8364C81.6424 3.92963 81.5083 3.99623 81.4278 3.99623C81.1595 3.99623 80.0727 5.11506 79.7776 5.68779C79.2141 6.76667 79.0531 7.406 78.986 8.80454C78.9055 10.4428 79.0933 11.2819 79.8312 12.6139C80.3142 13.4663 81.4278 14.5718 82.1925 14.9315C84.2184 15.8905 84.9563 16.0503 87.2639 16.0503C89.3301 16.037 89.8533 15.9304 91.3962 15.2112C92.2146 14.8116 93.2074 13.826 93.5696 13.0135C94.1331 11.7881 93.9319 11.6416 91.4633 11.5483L89.5447 11.4551L89.3166 11.8946C89.1959 12.1211 89.0617 12.494 89.0081 12.7204L88.9276 13.12L87.1163 13.16C85.7613 13.1866 85.2515 13.1467 85.1575 13.0268C85.077 12.9336 84.9966 12.3075 84.9697 11.6549L84.9161 10.4561H89.3435H93.7709L93.8111 9.01765C93.838 7.80558 93.7977 7.44596 93.5562 6.77999C92.9257 5.06178 91.1681 3.79644 88.3104 3.01059C87.2505 2.71757 84.7819 2.7442 83.7086 3.07719ZM87.5725 5.84763C87.9213 5.9009 88.2702 6.00746 88.3507 6.08738C88.5653 6.30049 88.6592 7.56583 88.4714 7.79226C88.2299 8.08529 83.6683 8.08529 83.561 7.79226C83.5207 7.68571 83.5476 7.17957 83.6415 6.66011L83.8025 5.72775L85.3588 5.74107C86.2309 5.74107 87.2237 5.79435 87.5725 5.84763Z" fill="white"/>
<path d="M58.8748 4.26222C56.0573 5.07471 54.6754 6.69967 54.2327 9.68322C54.0314 11.0818 54.2461 13.1063 54.7291 14.1452C55.3731 15.597 56.4598 16.7425 57.8417 17.4351C58.9016 17.9812 59.7737 18.221 61.3971 18.4341C65.4354 18.9535 68.8432 17.3419 69.4201 14.638C69.5677 13.9987 69.5677 13.8122 69.4335 13.719C69.2323 13.6124 65.4757 13.4526 65.1 13.5592C64.9524 13.5991 64.8585 13.7456 64.8585 13.9454C64.8585 14.1186 64.7378 14.5048 64.5902 14.7846L64.3218 15.3173H62.5375C61.33 15.3173 60.6994 15.2641 60.5921 15.1575C60.4982 15.0643 60.4311 14.7846 60.4311 14.5048C60.4311 14.2385 60.364 13.7057 60.2969 13.3061C60.203 12.8532 60.203 12.5602 60.2835 12.4803C60.364 12.4004 62.2691 12.3471 65.0195 12.3338L69.6213 12.3205L69.6079 10.8553C69.6079 10.0428 69.5274 9.05721 69.4335 8.65763C68.9773 6.73963 67.1259 5.18126 64.1206 4.20894C63.168 3.9026 60.0152 3.92924 58.8748 4.26222ZM63.7584 7.41892C64.0401 7.59207 64.0669 7.68531 64.0267 8.56439L63.9864 9.52339L61.5849 9.61662C59.9078 9.68322 59.1163 9.6699 58.9955 9.56335C58.6735 9.29696 58.8479 7.41892 59.2236 7.19249C59.5188 7.01934 63.4364 7.20581 63.7584 7.41892Z" fill="white"/>
<path d="M110.649 4.27551C109.643 4.59518 108.851 5.31443 108.261 6.47322C107.885 7.20578 107.858 7.3523 107.885 8.591C107.898 9.6166 107.965 10.0695 108.18 10.5356C108.556 11.3748 109.428 12.3071 110.139 12.6534C110.474 12.8133 110.77 12.9997 110.823 13.0663C110.863 13.1329 111.065 13.1862 111.279 13.1862C111.494 13.1862 111.829 13.2528 112.044 13.3327C112.366 13.4659 113.453 13.6524 115.68 13.9454C116.418 14.0386 116.565 14.3317 116.418 15.2507L116.311 15.9167L114.379 15.9566C113.184 15.9833 112.393 15.9433 112.286 15.8501C112.192 15.7702 112.084 15.4771 112.031 15.1708C111.923 14.4915 111.789 14.4515 109.683 14.3317L108.019 14.2384L108.1 15.011C108.22 16.2097 108.422 16.7025 109.052 17.4085C110.126 18.5806 111.937 19.1799 114.419 19.1799C117.156 19.1666 118.793 18.3941 119.584 16.7292C119.973 15.93 120 15.7835 120 14.2917C120 12.8799 119.96 12.6268 119.678 12.0407C119.074 10.7887 118.323 10.2027 116.78 9.74979C116.163 9.56332 114.003 9.23033 112.822 9.12378C112.312 9.08382 111.816 8.97727 111.722 8.89735C111.615 8.81743 111.548 8.45781 111.548 7.97831V7.20578L112.057 7.07259C112.701 6.88612 114.285 6.88612 114.942 7.07259C115.345 7.17915 115.438 7.27238 115.438 7.53877C115.438 7.72524 115.506 7.99163 115.573 8.13814C115.707 8.36457 115.868 8.39121 117.451 8.39121H119.195V7.75188C119.195 6.56645 118.377 5.46094 117.062 4.84825C115.304 4.00913 112.312 3.74274 110.649 4.27551Z" fill="white"/>
</svg>
