<svg width="120" height="43" viewBox="0 0 120 43" fill="none" xmlns="http://www.w3.org/2000/svg">
<g clip-path="url(#clip0_1_1515)">
<path d="M0 39.3408C1.01063 41.1754 2.88439 42.2162 4.7402 42.9998H0V39.3408Z" fill="white"/>
<path d="M5.68704 0.52041C8.83455 0.259195 12.002 0.36569 15.1555 0.405877C17.0771 0.407887 19.1103 0.695223 20.7389 1.79434C21.7714 2.65233 22.8458 3.79162 22.9037 5.21625C23.0292 8.56181 22.9096 11.9114 22.9076 15.259C20.1389 15.4699 17.3641 15.6166 14.5894 15.701C14.5734 13.9107 14.6173 12.1163 14.4279 10.3361C14.388 10.0065 14.2106 9.64887 13.8658 9.56447C12.1914 9.37359 10.505 9.39368 8.82458 9.35349C8.17076 11.2523 8.39801 13.2998 8.33821 15.271C8.4299 20.632 8.30831 25.9949 8.36611 31.3558C8.51163 32.258 8.13488 33.6605 9.1515 34.1769C10.2199 34.5909 11.4379 34.3558 12.5542 34.3618C13.3495 34.4382 14.3741 34.0242 14.4937 33.1321C14.6651 31.3418 14.5674 29.5334 14.5894 27.737C17.3601 27.5039 20.1369 27.3391 22.9176 27.2949C22.9156 30.5219 23.0013 33.753 22.9236 36.982C22.8259 37.9827 22.9894 39.14 22.3515 40.002C21.3229 41.3985 19.8159 42.3409 18.2432 43H4.7402C2.88439 42.2163 1.01063 41.1755 0 39.341V4.30803C1.28372 2.35293 3.29502 0.709288 5.68704 0.52041Z" fill="white"/>
<path d="M24.3209 0.404012C29.7708 0.434153 35.2226 0.335695 40.6704 0.41205C42.893 0.402003 45.3508 0.77976 46.9276 2.5299C48.596 4.00275 48.2173 6.45616 48.2751 8.43939C48.1555 13.097 48.4366 17.7668 48.1176 22.4164C47.7807 24.4137 45.8552 25.4344 44.2465 26.2804C45.8532 31.9347 48.299 37.3177 49.81 43.0001H40.5807C38.8645 38.0772 37.2678 33.1101 35.6053 28.1671C34.7263 28.1491 33.8492 28.135 32.9721 28.1149C33.1595 33.074 33.1356 38.0391 33.008 43.0001H24.319C24.3209 28.8021 24.315 14.602 24.3209 0.404012ZM32.9761 9.432C33.1376 12.5907 33.1415 15.7594 32.9661 18.9181C34.8798 18.8317 36.8093 18.8197 38.703 18.5142C39.2771 18.4359 39.4585 17.7889 39.4685 17.2926C39.5402 14.9718 39.5761 12.6409 39.3648 10.3262C39.315 9.69121 38.6213 9.45611 38.0831 9.44205C36.3807 9.37976 34.6784 9.42597 32.9761 9.432Z" fill="white"/>
<path d="M50.8326 0.403935C57.6837 0.399916 64.5369 0.393888 71.388 0.409963C71.2106 3.21903 71.0073 6.02809 70.7223 8.83113C67.1243 8.84319 63.5282 8.84118 59.9302 8.83716C60.0359 11.5859 59.998 14.3387 59.8844 17.0855C62.9861 17.0775 66.0877 17.0795 69.1894 17.0815C69.0797 20.2965 68.8983 23.5054 68.7449 26.7183C65.8047 26.7203 62.8665 26.7244 59.9282 26.7223C60.0239 29.4048 60 32.0893 59.8844 34.7718C63.911 34.7537 67.9356 34.7637 71.9621 34.7658C71.7469 37.5065 71.6332 40.2533 71.5316 43.0001H50.8326C50.8306 28.802 50.8286 14.602 50.8326 0.403935Z" fill="white"/>
<path d="M73.5568 0.403907C80.3442 0.399888 87.1296 0.397879 93.9169 0.405916C93.8133 3.21699 93.61 6.02405 93.4505 8.83311C89.8086 8.84115 86.1668 8.84115 82.5269 8.84517C82.5249 11.6201 82.5229 14.395 82.511 17.1699C85.6445 17.0614 88.7781 17.0714 91.9136 17.0755C91.808 20.2944 91.7123 23.5214 91.3316 26.7203C88.3954 26.7263 85.4571 26.7263 82.5209 26.7283C82.5269 29.4048 82.5289 32.0833 82.5229 34.7597C86.5674 34.7577 90.612 34.7637 94.6565 34.7657C94.3336 37.5005 94.1801 40.2512 94.0505 43H73.5548C73.5568 28.802 73.5508 14.6019 73.5568 0.403907Z" fill="white"/>
<path d="M96.0817 0.403779C101.133 0.419853 106.182 0.36761 111.233 0.391722C113.095 0.480134 115.096 0.335461 116.819 1.2035C118.228 1.86859 119.217 3.15658 120 4.47069V39.4514C118.688 40.9564 117.106 42.2323 115.262 42.9999H96.0797C96.0817 28.8019 96.0737 14.6018 96.0817 0.403779ZM104.852 9.42574C104.847 17.7404 104.85 26.0551 104.85 34.3677C106.977 34.3276 109.204 34.6008 111.245 33.8574C111.118 25.7657 111.433 17.6661 111.074 9.58046C109.009 9.36345 106.924 9.46995 104.852 9.42574Z" fill="white"/>
</g>
<defs>
<clipPath id="clip0_1_1515">
<rect width="120" height="43" fill="white"/>
</clipPath>
</defs>
</svg>
