<svg width="119" height="75" viewBox="0 0 119 75" fill="none" xmlns="http://www.w3.org/2000/svg">
<path fill-rule="evenodd" clip-rule="evenodd" d="M18.3678 0.0343252L16.0083 0.0715842L15.9846 0.318876C15.9645 0.528608 16.0212 0.631671 16.359 0.999754C17.2992 2.02317 17.6958 3.44352 17.8524 6.34431C17.9922 8.94102 17.898 28.0345 17.7402 29.069C17.388 31.3754 16.9008 32.5557 15.9801 33.3309C15.5706 33.6759 15.5253 33.7886 15.7173 33.9812C15.9222 34.1861 28.5513 34.1041 29.454 33.8919C31.6629 33.3727 33.2613 32.3799 34.26 30.907C34.6341 30.355 35.0028 29.41 35.1396 28.6516C35.3064 27.7286 35.2494 6.04264 35.0784 5.24307C34.4982 2.53128 32.2788 0.670132 29.0046 0.150008C28.1433 0.0129914 23.1306 -0.0413946 18.3678 0.0343252ZM27.1152 2.19294C28.1925 2.61691 28.6158 3.24701 28.7784 4.66796C28.8822 5.5742 28.8813 28.7397 28.7778 29.596C28.6347 30.7778 28.1493 31.4989 27.249 31.8673C26.6367 32.1182 24.3348 32.2667 24.099 32.0704C23.9817 31.9731 23.9943 2.2281 24.1116 2.0379C24.1995 1.89577 26.6859 2.02408 27.1152 2.19294ZM68.5293 3.39154C68.4861 3.46185 68.3472 5.94979 68.2536 8.32445C68.136 11.3184 67.9653 15.1044 67.9107 15.9283C67.8558 16.7591 67.8828 16.836 68.2275 16.8387C68.4663 16.8402 68.5266 16.7257 68.8212 15.7092C68.97 15.1963 69.1227 14.718 69.1605 14.6465C69.1983 14.5746 69.2292 14.4731 69.2292 14.4208C69.2292 14.3682 69.3324 14.0218 69.4581 13.6507C69.5841 13.2796 69.7164 12.8749 69.7524 12.7511C69.7881 12.6273 69.939 12.1883 70.0875 11.7757C70.2363 11.3629 70.4571 10.7409 70.5786 10.3929C70.6998 10.0453 70.8333 9.72617 70.8756 9.6841C70.9176 9.64174 70.9521 9.56181 70.9521 9.50652C70.9521 9.45093 71.07 9.15286 71.2143 8.84457C71.3583 8.53598 71.4768 8.25895 71.4774 8.2289C71.4789 8.13365 72.0423 7.06516 72.3195 6.63217C72.795 5.88849 73.3068 5.48555 73.4601 5.73405C73.5702 5.91223 73.4985 25.7388 73.3845 26.661C73.2651 27.6255 73.011 28.4554 72.6843 28.9476C71.7444 30.3622 71.4711 30.2694 76.5702 30.2694C81.4956 30.2694 81.4071 30.291 80.6889 29.2643C80.2518 28.6393 79.9737 27.92 79.7862 26.9308C79.6848 26.3945 79.581 6.22412 79.6776 5.8299C79.9098 4.8825 81.5634 7.46118 82.5999 10.3875C83.025 11.5879 83.0958 11.7844 83.1549 11.9257C83.2395 12.1282 84.084 14.7865 84.2868 15.4893C84.6783 16.8459 84.8676 17.1095 85.1799 16.7324C85.2696 16.6242 85.1943 13.2535 85.0674 11.7006C85.0473 11.453 84.9996 10.4741 84.9618 9.52485C84.7017 2.99491 84.723 3.29659 84.5256 3.36149C83.3931 3.73228 83.8851 3.71065 76.6092 3.70764C69.7086 3.70494 69.1734 3.6845 68.904 3.41468C68.8125 3.32303 68.5803 3.30891 68.5293 3.39154ZM36.1191 3.86329C36.0129 4.0622 36.0732 4.23588 36.4206 4.73286C37.4106 6.1484 37.3974 5.98074 37.395 16.9565C37.3923 28.0675 37.4193 27.7301 36.4215 29.2222C36.0417 29.7904 35.9739 30.0173 36.1356 30.1792C36.3024 30.3463 50.8212 30.3054 50.973 30.1375C51.0693 30.0311 51.1074 29.6729 51.1716 28.2805C51.2151 27.3319 51.285 26.0153 51.327 25.3551C51.4941 22.7296 51.5562 21.6686 51.6606 19.6533C51.7206 18.498 51.8055 16.9986 51.849 16.3216C51.9399 14.9133 51.9255 14.8141 51.6303 14.8141C51.3447 14.8141 51.2529 14.9493 51.1782 15.4806C50.7936 18.2047 49.3209 23.1364 48.3861 24.8299C46.974 27.3884 45.9435 28.2436 44.2722 28.2436C43.4562 28.2436 43.5321 28.9025 43.5384 21.8609C43.5444 15.1422 43.521 15.4878 43.9725 15.4908C45.2886 15.4992 46.3815 16.3126 46.5765 17.4289C46.6545 17.876 46.8036 18.0527 47.0802 18.0259L47.319 18.0028V14.5515V11.1002L47.0799 11.0771C46.8141 11.0516 46.6752 11.2325 46.572 11.7382C46.3626 12.7634 45.5034 13.4782 44.3559 13.581C43.4622 13.6612 43.5363 14.0218 43.5363 9.59907C43.5363 7.2169 43.5633 5.80316 43.6095 5.77461C43.9752 5.54835 46.0314 5.72293 47.0688 6.06878C48.9105 6.68205 49.7664 7.6003 50.9037 10.1814C51.2256 10.9121 51.7374 10.7739 51.6099 9.99029C51.5748 9.77575 51.5004 9.24541 51.444 8.81212C51.3423 8.02878 51.2703 7.50686 51.0657 6.07359C51.0069 5.66103 50.9187 5.00269 50.8698 4.61057C50.8209 4.21875 50.748 3.85578 50.7075 3.80409C50.5596 3.61539 36.2205 3.67339 36.1191 3.86329ZM56.1189 3.90235C56.0166 4.17188 56.0193 4.18389 56.2704 4.61057C56.394 4.8206 56.4954 5.01621 56.4957 5.04536C56.496 5.0745 56.5482 5.1986 56.6121 5.3212C56.9799 6.02791 56.8098 8.43563 56.1207 12.2634C56.0799 12.4902 55.9785 13.1149 55.8951 13.6513C55.812 14.1876 55.6941 14.8968 55.6332 15.2267C55.5723 15.5569 55.4709 16.1645 55.4076 16.5773C55.3443 16.9899 55.2255 17.7326 55.1436 18.2278C55.0617 18.723 54.9423 19.4487 54.8781 19.8408C54.8139 20.2329 54.7137 20.8236 54.6552 21.1539C54.5967 21.4838 54.4965 22.0916 54.4326 22.5042C54.3687 22.9167 54.2691 23.5078 54.2109 23.8173C54.153 24.1268 54.0333 24.7842 53.9448 25.2785C53.8563 25.7725 53.7393 26.2959 53.6853 26.4413C53.631 26.5868 53.5641 26.807 53.5368 26.9308C53.3955 27.5708 52.7394 28.7703 52.2141 29.3484C51.9156 29.6772 51.8382 30.0014 52.0158 30.1792C52.1679 30.3316 56.823 30.3054 56.9766 30.1513C57.123 30.0047 57.1257 29.7643 56.9835 29.5191C56.2788 28.3034 56.1609 26.3731 56.6601 24.2298C57.0063 22.7428 60.0792 22.4246 61.0767 23.7722C61.6386 24.5318 61.6269 28.0293 61.0584 29.2C60.8994 29.5269 60.8376 29.7538 60.8538 29.9503L60.8772 30.2318L65.1384 30.2511C68.2233 30.2652 69.4278 30.2472 69.5016 30.1859C69.7179 30.0062 69.6156 29.7015 69.1539 29.1495C68.6802 28.5828 68.1561 27.5735 67.9239 26.7806C67.6929 25.9909 67.6662 25.8864 67.6182 25.5802C67.5924 25.4152 67.5246 25.0438 67.4673 24.7551C67.4103 24.466 67.3083 23.8753 67.2408 23.442C67.1733 23.0087 67.0713 22.3843 67.014 22.0541C66.8148 20.9039 66.669 20.0253 66.6036 19.5782C66.5334 19.1004 66.3039 17.696 66.1128 16.5773C66.0492 16.2059 65.9655 15.6657 65.9265 15.3769C65.8878 15.0879 65.8086 14.6152 65.7513 14.3265C65.6937 14.0377 65.5911 13.4467 65.5236 13.0137C65.4558 12.5804 65.3703 12.057 65.3331 11.8505C65.2959 11.6444 65.199 11.0534 65.1177 10.5378C65.0364 10.0218 64.9125 9.24541 64.8423 8.81212C64.5513 7.01377 64.7013 5.42336 65.2371 4.63281C65.37 4.43659 65.4108 4.28696 65.394 4.05769L65.3715 3.7479L60.7818 3.72867L56.1924 3.70914L56.1189 3.90235ZM86.1738 3.79989C86.0247 3.94922 86.0697 4.13041 86.3217 4.39633C86.8959 5.00209 87.1518 5.60094 87.4074 6.93655C87.6165 8.02938 87.6177 25.9413 87.4086 27.0432C87.1749 28.2751 86.9121 28.9338 86.4534 29.4365C85.6644 30.3018 85.5417 30.2739 90.0024 30.2514L93.8361 30.2318L93.8583 30.0407C93.8745 29.9013 93.7893 29.7493 93.5436 29.4782C93.1362 29.0284 92.7582 28.0963 92.556 27.0432C92.4075 26.2707 92.2872 15.2468 92.4255 15.1095C92.5152 15.0202 97.9116 15.0025 98.0001 15.0909C98.0982 15.1891 98.0889 24.9332 97.9896 26.1012C97.8393 27.8692 97.5522 28.7273 96.8517 29.5038C96.6369 29.7415 96.567 29.8791 96.5841 30.0287L96.6075 30.2318L100.399 30.2514C104.812 30.2739 104.754 30.2859 104.035 29.5002C102.93 28.2914 102.856 27.5846 102.827 17.9652C102.793 6.89719 102.88 5.87287 103.952 4.61388C104.741 3.68841 104.836 3.71305 100.49 3.71155C96.105 3.71004 96.1263 3.70554 96.8745 4.48227C97.7922 5.43538 98.0976 7.09881 98.0541 10.9127L98.0307 12.9761H95.2218H92.4129L92.3904 10.9879C92.3475 7.13937 92.6211 5.61806 93.5526 4.52463C93.7914 4.24459 93.8751 4.08564 93.8586 3.94351L93.8361 3.7479L90.0501 3.72837C87.168 3.71365 86.2428 3.73078 86.1738 3.79989ZM59.187 11.8133C59.274 12.3701 59.3931 13.0792 59.4516 13.3887C59.5101 13.6982 59.5797 14.154 59.6064 14.4016C59.6328 14.6492 59.6844 14.9698 59.7207 15.1143C59.7567 15.2585 59.8191 15.5963 59.859 15.8646C59.8989 16.1326 59.9835 16.6729 60.0468 17.065C60.4263 19.4153 60.4269 19.4333 60.1392 19.9159C59.4897 21.0039 57.9957 20.8077 57.5901 19.5812C57.4563 19.1758 57.4413 19.3264 57.8415 17.0274C57.9207 16.5734 58.0365 15.8814 58.0992 15.4893C58.4094 13.5467 58.5207 12.834 58.6293 12.0858C58.7361 11.3499 58.9212 10.6913 58.9989 10.77C59.0154 10.7865 59.1 11.2562 59.187 11.8133ZM52.668 32.7105C52.0335 32.9415 51.6504 33.3006 51.3606 33.9361C51.0933 34.5223 51.0726 39.1358 51.3342 39.8206C52.0662 41.7367 55.7397 41.7064 56.2989 39.7797C56.4711 39.1866 56.4786 34.6194 56.3082 34.0449C56.1063 33.3646 55.6464 32.9124 54.948 32.708C54.4704 32.5683 53.0547 32.5698 52.668 32.7105ZM58.4586 32.6501C56.6862 32.6744 56.5317 32.7102 56.8161 33.0293C57.2544 33.5211 57.2967 39.8188 56.8677 40.6436C56.6469 41.0676 56.6946 41.085 58.0983 41.0934C59.5416 41.1018 59.5908 41.0829 59.3313 40.6208C59.1582 40.3125 59.1543 40.2632 59.1543 38.4198V36.534L59.5134 36.5109C59.8773 36.4877 60.2739 36.7464 60.4101 37.0965C60.5325 37.4117 60.6159 36.9418 60.5925 36.0665C60.5676 35.1311 60.5139 34.9226 60.3627 35.1756C60.0996 35.6164 59.9706 35.7011 59.5572 35.705L59.1543 35.7086L59.1336 34.5515C59.1105 33.2645 59.1102 33.2651 59.5947 33.3261C60.3093 33.416 60.9891 33.9667 61.2618 34.6771C61.3746 34.97 61.527 35.0818 61.6161 34.9373C61.6581 34.8694 61.4028 32.9986 61.3251 32.8015C61.2843 32.6981 61.1826 32.6699 60.8505 32.669C60.618 32.6684 60.3603 32.6588 60.2778 32.6477C60.1956 32.6362 59.3769 32.6374 58.4586 32.6501ZM65.6823 32.6564C65.3979 32.6798 65.3943 32.6837 65.4387 32.9376C65.4636 33.0794 65.5053 33.3207 65.5314 33.474C65.58 33.7579 65.4525 35.0337 65.3259 35.5352C65.2872 35.6876 65.208 36.1266 65.1498 36.5106C64.647 39.8239 64.5588 40.2097 64.1907 40.7085C63.9657 41.0135 64.071 41.0736 64.8714 41.0976C65.6259 41.1202 65.7474 41.0457 65.5479 40.6818C65.3865 40.3876 65.4177 39.3564 65.592 39.229C65.847 39.0418 66.7971 39.0844 66.9402 39.2891C67.0941 39.509 67.0938 40.2915 66.9396 40.661C66.7749 41.0553 66.7983 41.0631 68.1909 41.0784C69.699 41.0949 69.7728 41.0694 69.4332 40.6472C69.1527 40.2984 68.9907 39.6199 68.5857 37.0965C68.4762 36.4156 68.3337 35.5548 68.2689 35.1834C68.1621 34.5737 68.1267 33.5223 68.1927 32.9328L68.2179 32.7077L67.0944 32.6702C66.4764 32.6495 65.841 32.6432 65.6823 32.6564ZM54.1878 33.5019C54.3894 33.7402 54.4089 34.1095 54.384 37.1845L54.3603 40.0856L54.1788 40.2791C53.7324 40.7548 53.3607 40.4017 53.2608 39.4078C53.1495 38.2993 53.2122 33.8763 53.3427 33.6455C53.568 33.2459 53.9205 33.1861 54.1878 33.5019ZM66.3438 35.4835C66.3654 35.5866 66.4026 35.7639 66.4272 35.8775C66.5178 36.3005 66.7725 37.8925 66.7833 38.1055C66.7965 38.3597 66.5703 38.4474 66.0573 38.3876C65.6331 38.3381 65.634 38.3753 66.0069 36.309C66.0441 36.1025 66.0963 35.7903 66.123 35.6149C66.1767 35.26 66.2844 35.1963 66.3438 35.4835ZM0.0662798 39.8471C-0.0924202 40.0057 0.0365798 40.3404 0.42418 40.7755C1.17328 41.6163 1.60828 42.8179 1.82278 44.6366C1.88488 45.164 1.92568 48.8304 1.95988 56.9784C2.01358 69.781 1.96468 68.5524 2.46958 69.8C3.52168 72.4003 6.65338 74.0977 10.3941 74.0953C11.6148 74.0944 13.2093 73.8318 13.9221 73.5139C14.052 73.4562 14.1804 73.4087 14.2077 73.4087C14.235 73.4087 14.4489 73.3182 14.6832 73.2074C16.3398 72.4249 17.6406 71.147 18.1518 69.8C18.6096 68.593 18.5793 69.4048 18.6282 57.0805C18.6555 50.2796 18.7032 45.5702 18.7494 45.1619C19.0299 42.6715 19.3716 41.6361 20.205 40.7488C20.6331 40.293 20.7471 39.9393 20.4966 39.8431C20.1912 39.7257 14.34 39.7948 14.2935 39.9162C14.2074 40.1409 14.2485 40.29 14.4609 40.5225C14.8299 40.9273 15.1812 41.4011 15.3135 41.673C15.5298 42.1168 15.7461 42.7211 15.7461 42.881C15.7461 42.9645 15.7953 43.1911 15.8556 43.3846C16.1736 44.4059 16.1955 45.2712 16.1955 56.8269C16.1955 67.6426 16.1928 67.8412 16.0455 68.2766C14.8386 71.8399 9.45448 72.1416 8.21368 68.7153L8.03068 68.2099L8.03038 57.061C8.03038 45.0801 8.03188 45.0264 8.41918 43.2112C8.67178 42.0264 8.91268 41.5096 9.54688 40.7896C9.90688 40.3813 9.98158 40.2512 9.96328 40.0637L9.94078 39.835L5.02888 39.8158C2.32708 39.805 0.0938798 39.8191 0.0662798 39.8471ZM99.8658 40.4829C98.8041 40.5502 97.2699 40.8398 96.9852 41.0264C96.6057 41.2755 96.8742 41.7482 97.395 41.7482C98.4324 41.7482 100.239 43.3846 101.08 45.0868C101.97 46.8857 101.969 46.8719 101.965 56.8281C101.961 67.5894 101.951 67.7015 100.879 69.1068C100.605 69.4676 100.539 69.8006 100.713 69.9457C100.888 70.0908 105.525 70.0554 105.673 69.9078C105.828 69.7525 105.754 69.3967 105.504 69.0987C105.208 68.7447 104.815 67.8288 104.641 67.0831C104.422 66.1528 104.332 52.3072 104.544 52.2261C104.61 52.2005 104.66 52.2212 104.66 52.2747C104.66 52.3261 104.815 52.7387 105.003 53.1915C105.192 53.6443 105.39 54.1332 105.443 54.278C105.622 54.7684 106.389 56.7143 106.492 56.9408C106.548 57.0646 106.999 58.1956 107.495 59.454C108.563 62.1634 108.971 63.1973 109.155 63.6555C109.229 63.8412 109.397 64.2631 109.529 64.5933C109.66 64.9236 109.829 65.3454 109.903 65.5311C109.977 65.7168 110.095 66.0206 110.167 66.2063C110.238 66.392 110.325 66.6116 110.361 66.694C110.397 66.7766 110.696 67.5194 111.026 68.3445C111.355 69.1699 111.683 69.8877 111.754 69.9397C111.96 70.092 118.496 70.0373 118.594 69.8826C118.723 69.6789 118.671 69.4586 118.416 69.1245C117.885 68.4268 117.621 67.6942 117.433 66.3938C117.254 65.1618 117.305 47.5813 117.49 46.6624C117.712 45.5558 117.929 45.0203 118.416 44.3824C118.73 43.9699 118.753 43.6526 118.475 43.5468C118.268 43.4681 113.891 43.4428 113.692 43.5192C113.476 43.6024 113.546 44.0534 113.837 44.45C114.32 45.1093 114.631 45.9933 114.772 47.1108C114.862 47.8229 114.879 60.5027 114.79 60.5919C114.73 60.6514 114.664 60.5267 114.268 59.6042C114.206 59.4597 114.062 59.0883 113.948 58.7788C113.834 58.4693 113.383 57.3215 112.945 56.2281C112.508 55.1347 111.995 53.8348 111.806 53.3396C111.616 52.8444 111.4 52.3042 111.324 52.1392C111.248 51.974 111.049 51.4845 110.883 51.0512C110.716 50.6179 110.424 49.8751 110.234 49.4007C109.781 48.2712 109.683 48.0203 109.313 47.0374C107.749 42.8933 105.276 40.7199 101.888 40.5129C101.456 40.4865 101.035 40.4555 100.952 40.4441C100.87 40.4327 100.381 40.4501 99.8658 40.4829ZM71.1726 43.1279C71.1495 43.1508 70.7955 43.2064 70.386 43.2514C67.1544 43.606 64.8939 45.3109 64.1268 47.9725C63.7818 49.1708 63.7611 49.6714 63.7611 56.866C63.7611 65.0567 63.7581 65.0209 64.6062 66.8815C64.9173 67.5641 65.9877 68.7381 66.57 69.0356C66.6936 69.0987 66.8454 69.1921 66.9072 69.2429C67.587 69.8024 70.041 70.3327 71.9499 70.3327C76.9914 70.3327 79.6995 68.3904 80.1612 64.4434C80.2683 63.5263 80.2692 49.8511 80.1621 49.0497C80.0037 47.8658 79.5828 46.7258 79.0029 45.9122C77.9277 44.4026 76.1643 43.496 73.836 43.2551C72.8454 43.1526 71.2251 43.0754 71.1726 43.1279ZM54.0231 43.3233C50.3952 43.7415 47.9073 45.758 47.4915 48.617C47.3496 49.5936 47.3502 64.0582 47.4921 64.8184C47.7768 66.3421 48.741 67.9367 49.7484 68.5491C49.8954 68.6386 50.0325 68.7327 50.0532 68.7585C50.6037 69.4451 53.3013 70.1251 55.5213 70.1371C58.4613 70.1527 60.201 69.5362 62.2899 67.7381L62.8788 67.2315L62.8296 66.7961C62.8026 66.5566 62.6841 65.9292 62.5668 65.4019C62.4492 64.8746 62.3292 64.2914 62.3001 64.1057C62.271 63.92 62.1834 63.481 62.1054 63.1303C62.0274 62.7797 61.9269 62.307 61.8822 62.0799C61.8375 61.853 61.7376 61.3803 61.6602 61.0297C61.4487 60.0706 61.3146 59.4285 61.1346 58.5162C60.9567 57.6139 60.9042 57.5033 60.6525 57.5033C60.3234 57.5033 60.2982 57.6262 60.2013 59.7166C59.9457 65.2315 58.7553 67.876 56.5251 67.8838C54.9723 67.8889 54.1311 67.0025 53.8302 65.0434C53.6802 64.0681 53.6817 49.8298 53.832 48.6128C54.0858 46.557 54.9669 45.5429 56.4951 45.5483C57.786 45.5525 58.7082 46.4049 59.1606 48.0128C59.4105 48.9001 59.5722 49.8676 59.6115 50.7102C59.6346 51.2074 59.6886 51.7071 59.7318 51.8213C59.8662 52.1771 60.3903 52.1639 60.3903 51.8048C60.3903 51.7342 60.4134 51.6533 60.4416 51.6251C60.498 51.5686 60.6267 51.2351 60.837 50.6011C60.9123 50.3742 61.1265 49.7664 61.3128 49.2507C61.4988 48.7348 61.6929 48.1946 61.7436 48.0503C61.7943 47.9058 61.8621 47.7201 61.8939 47.6375C62.4099 46.3043 62.5056 45.9948 62.4366 45.8851C62.2671 45.6159 60.174 44.1952 59.6037 43.9621C58.1502 43.368 55.884 43.1087 54.0231 43.3233ZM20.0892 43.6267C19.9839 43.8239 20.0481 44.015 20.3769 44.4822C21.3729 45.8971 21.4071 46.2892 21.4293 56.5655C21.4524 67.1573 21.4194 67.5377 20.3457 69.0671C20.0943 69.4256 20.0103 69.824 20.166 69.9205C20.2077 69.946 21.3273 69.9725 22.6545 69.9791L25.0674 69.9914L25.1361 69.7513C25.1895 69.5653 25.1769 69.4725 25.0806 69.3405C24.2865 68.2522 24.0273 67.5037 23.904 65.9437C23.805 64.6946 23.8485 52.9102 23.952 52.8757C23.9952 52.8613 24.3279 53.6013 24.6918 54.5199C25.0554 55.4387 25.7238 57.119 26.1765 58.2536C27.3483 61.1892 27.4266 61.387 27.6282 61.9299C27.7278 62.1982 27.8406 62.4852 27.8787 62.5675C27.9168 62.6502 28.0134 62.8866 28.0938 63.0928C28.1739 63.2992 28.3629 63.7718 28.5135 64.1432C28.6641 64.5146 28.8408 64.9533 28.9062 65.1186C28.9716 65.2835 29.067 65.52 29.1186 65.6438C29.1702 65.7676 29.5575 66.7465 29.9793 67.8195C30.4014 68.8922 30.8067 69.8237 30.8802 69.8892C31.0434 70.035 36.9036 70.0851 37.0752 69.9424C37.23 69.8138 37.1862 69.3895 36.9939 69.157C35.8806 67.8105 35.8227 67.1964 35.8236 56.7533C35.8245 46.413 35.8656 45.9437 36.8934 44.4672C37.2282 43.9864 37.2642 43.8984 37.2006 43.7169L37.1283 43.5114L34.7046 43.4915C32.8854 43.4765 32.2533 43.4945 32.1708 43.563C32.0109 43.6961 32.0991 44.0994 32.3613 44.4329C33.3138 45.6444 33.4173 46.5819 33.4212 54.0391C33.4242 59.5258 33.4188 59.5841 32.997 58.4786C32.8947 58.2106 32.7144 57.7548 32.5965 57.466C32.1597 56.3958 31.6887 55.2002 31.5036 54.69C31.3989 54.4012 31.2867 54.1311 31.2546 54.0899C31.2225 54.0484 31.1535 53.8799 31.1013 53.7146C31.0491 53.5496 30.9471 53.2795 30.8748 53.1146C30.8025 52.9493 30.6687 52.6119 30.5775 52.3643C30.4863 52.1167 30.3675 51.8129 30.3132 51.6891C30.1584 51.3354 29.7069 50.2159 29.6022 49.9259C29.55 49.7814 29.4486 49.5284 29.3766 49.3631C29.3046 49.1982 29.0754 48.6243 28.8678 48.0879C28.4985 47.1348 27.7755 45.3106 27.6483 45.0116C27.6132 44.9293 27.4863 44.6123 27.3663 44.3076C27.0021 43.384 27.4137 43.4738 23.5398 43.4738C20.2266 43.4738 20.1696 43.4762 20.0892 43.6267ZM38.2206 43.6189C38.1009 43.8431 38.1249 43.9513 38.37 44.2902C39.495 45.8457 39.4974 45.8704 39.513 56.7158C39.5283 67.4016 39.5055 67.672 38.4828 69.0118C38.181 69.4073 38.097 69.8345 38.2965 69.9619C38.4279 70.0458 46.6782 70.0539 46.8123 69.9703C47.0286 69.8354 47.0013 69.4815 46.7478 69.1323C46.2591 68.4599 46.0527 67.98 45.8109 66.9566C45.6558 66.2988 45.5562 48.6435 45.7014 47.5251C45.9069 45.9425 46.0857 45.3575 46.5864 44.6246C46.9461 44.0988 47.0508 43.7595 46.9074 43.5865C46.743 43.3882 38.3271 43.4197 38.2206 43.6189ZM80.7048 43.5636C80.5524 43.7166 80.6049 44.0276 80.8293 44.3007C81.9468 45.6604 81.9819 46.0693 81.945 57.241C81.9099 67.8322 81.9396 67.4839 80.9415 68.9863C80.6124 69.4815 80.5395 69.7768 80.7048 69.9427C80.8233 70.0614 89.0886 70.0731 89.3091 69.955C89.5728 69.8135 89.5029 69.5545 89.0187 68.8766C88.6875 68.413 88.4268 67.6864 88.2507 66.7375C88.0464 65.6366 88.0215 45.548 88.224 45.4699C88.4172 45.3956 89.7666 45.4182 90.2253 45.5029C92.4291 45.911 93.6234 48.4262 93.2025 51.7732C92.9076 54.1181 91.6185 55.6785 89.5758 56.1629C89.2263 56.2458 88.9254 56.3621 88.8693 56.4363C88.6938 56.6686 88.9245 59.4699 89.2599 61.1796C89.3205 61.4891 89.4195 61.9954 89.4798 62.3049C89.6127 62.9873 90.1326 64.7562 90.3471 65.2559C90.4326 65.4554 90.5025 65.6549 90.5025 65.6991C90.5025 65.8169 91.23 67.2823 91.5984 67.9067C93.0816 70.4202 94.8297 71.8823 97.2069 72.598C98.601 73.0178 102.34 72.8988 102.92 72.4162C103.131 72.2413 102.997 71.9553 102.675 71.8904C101.377 71.629 100.356 71.0596 99.3504 70.0364C98.8491 69.5262 97.6938 68.0022 97.6938 67.8514C97.6938 67.8171 97.5978 67.6444 97.4805 67.4668C96.5091 65.9972 95.2038 62.2673 94.7028 59.5291C94.2573 57.0944 94.2411 57.1971 95.1093 56.9297C98.0949 56.0093 99.9006 52.5653 99.273 48.9881C99.0903 47.9458 98.8299 47.1198 98.5164 46.5873C98.3949 46.3809 98.2653 46.1447 98.2281 46.0621C97.7247 44.9386 95.6631 43.7244 93.9534 43.5441C92.9268 43.4359 80.8146 43.454 80.7048 43.5636ZM72.6375 45.4912C73.1631 45.7343 73.47 46.1889 73.7058 47.0738C73.9098 47.8397 73.9053 65.4106 73.701 66.319C73.4187 67.5725 72.9129 68.1212 72.0432 68.1164C71.1348 68.1116 70.695 67.6104 70.3344 66.1687L70.1655 65.4936V56.5655V47.6375L70.338 47.0053C70.7205 45.6039 71.6118 45.017 72.6375 45.4912Z" fill="white"/>
</svg>
