<svg width="120" height="28" viewBox="0 0 120 28" fill="none" xmlns="http://www.w3.org/2000/svg">
<g clip-path="url(#clip0_1_1905)">
<path d="M9.88807 0.946923V0.79601H10.8691C11.2317 0.79601 11.5943 0.790726 11.9571 0.779947C12.3197 0.769167 12.6823 0.763672 13.0449 0.763672C13.3649 0.763672 13.7024 0.785231 14.0582 0.828349C14.4135 0.871467 14.7654 0.948826 15.114 1.06021C15.4624 1.17181 15.7928 1.32082 16.1059 1.50788C16.4188 1.69515 16.6959 1.9323 16.9377 2.21975C17.1793 2.50742 17.3714 2.84919 17.5137 3.24444C17.6558 3.64011 17.7271 4.10363 17.7271 4.63584C17.7271 5.16065 17.656 5.621 17.5137 6.01625C17.3714 6.41192 17.1814 6.75348 16.9431 7.04094C16.7047 7.3286 16.433 7.56596 16.1272 7.75281C15.8215 7.93986 15.5034 8.08887 15.1727 8.20047C14.8421 8.31207 14.5152 8.38922 14.1917 8.43234C13.8682 8.47546 13.5679 8.49702 13.2905 8.49702C12.8853 8.49702 12.4815 8.49342 12.08 8.48624C11.6781 8.47905 11.2748 8.47546 10.8695 8.47546H9.88849V8.32454H10.8695V0.946923H9.88807ZM12.9808 8.35688C13.4427 8.35688 13.8375 8.30129 14.1645 8.18969C14.4916 8.07831 14.7671 7.92718 14.9911 7.73653C15.2149 7.54609 15.3926 7.3286 15.5245 7.08406C15.6559 6.83972 15.7552 6.58249 15.8231 6.313C15.8906 6.0433 15.9351 5.77361 15.9565 5.50412C15.9778 5.23442 15.9884 4.98099 15.9884 4.74363C15.9884 4.16133 15.9527 3.63461 15.8819 3.16349C15.8108 2.69278 15.6701 2.28992 15.4605 1.95555C15.2507 1.62117 14.9556 1.36415 14.5754 1.18428C14.1948 1.00463 13.6956 0.914796 13.0769 0.914796C12.9346 0.914796 12.8067 0.916699 12.693 0.92008C12.5793 0.923674 12.4867 0.932762 12.4157 0.946923V8.32433C12.6217 8.34589 12.8102 8.35688 12.9808 8.35688Z" fill="white"/>
<path d="M19.7069 6.25328C19.7069 6.5122 19.7176 6.77281 19.7389 7.03532C19.7602 7.29783 19.817 7.53519 19.9096 7.74719C20.0018 7.95919 20.137 8.13377 20.3147 8.27031C20.4923 8.40685 20.7412 8.47512 21.0612 8.47512C21.3454 8.47512 21.5853 8.42123 21.7812 8.31343C21.9766 8.20564 22.1365 8.08157 22.261 7.94122C22.3852 7.80109 22.478 7.66286 22.5384 7.5261C22.5988 7.38956 22.6326 7.28895 22.6395 7.22428L22.789 7.27818C22.7534 7.41472 22.693 7.56034 22.6078 7.71485C22.5223 7.86957 22.405 8.0133 22.2558 8.14645C22.1066 8.27961 21.9214 8.391 21.7013 8.48083C21.4808 8.57066 21.2142 8.61568 20.9015 8.61568C20.5316 8.61568 20.187 8.55988 19.867 8.44849C19.547 8.3371 19.2678 8.17541 19.0297 7.96299C18.7915 7.75121 18.6049 7.49229 18.4698 7.18665C18.3346 6.88102 18.2671 6.53418 18.2671 6.1459C18.2671 5.83689 18.3311 5.53485 18.459 5.23979C18.5869 4.94494 18.7629 4.68433 18.9869 4.45775C19.2107 4.23117 19.4737 4.04792 19.7759 3.90757C20.0781 3.76744 20.4033 3.69727 20.7519 3.69727C21.0006 3.69727 21.2493 3.73679 21.4982 3.81584C21.7471 3.8951 21.9709 4.01727 22.1701 4.18255C22.3691 4.34805 22.5325 4.56195 22.6606 4.82425C22.7887 5.08698 22.8527 5.40127 22.8527 5.76799H19.7069V6.25328ZM21.4133 4.89421C21.4133 4.81516 21.4096 4.71815 21.4027 4.60296C21.3956 4.48797 21.3707 4.37299 21.3281 4.2578C21.2854 4.14303 21.216 4.04601 21.1201 3.96675C21.0242 3.8877 20.8909 3.84797 20.7201 3.84797C20.4783 3.84797 20.2917 3.90567 20.1602 4.02044C20.0285 4.13563 19.9309 4.28105 19.867 4.45733C19.803 4.6336 19.7621 4.82404 19.7443 5.02906C19.7265 5.23408 19.714 5.42981 19.7069 5.61686H21.4133V4.89421Z" fill="white"/>
<path d="M25.1299 3.84876V4.75487H25.1512C25.2791 4.48179 25.4516 4.24633 25.6685 4.0485C25.8852 3.85087 26.1713 3.75195 26.5271 3.75195C26.8257 3.75195 27.0673 3.83291 27.2523 3.9946C27.437 4.1565 27.5294 4.38118 27.5294 4.66863C27.5294 4.88444 27.4778 5.05331 27.3747 5.17548C27.2715 5.29786 27.1064 5.35895 26.8788 5.35895C26.7151 5.35895 26.5659 5.3247 26.4307 5.25643C26.2957 5.18816 26.2282 5.06071 26.2282 4.87366C26.2282 4.8521 26.2317 4.81426 26.2388 4.76037C26.246 4.70647 26.2549 4.64898 26.2656 4.58789C26.276 4.52681 26.285 4.47122 26.2921 4.42071C26.2992 4.3704 26.3028 4.34144 26.3028 4.33447C26.2957 4.27698 26.2852 4.23196 26.2708 4.19962C26.2566 4.16707 26.2334 4.13854 26.2014 4.11338C26.1695 4.08823 26.1214 4.07555 26.0574 4.07555C25.9864 4.07555 25.8976 4.10979 25.791 4.17806C25.6844 4.24633 25.5847 4.34525 25.4923 4.4746C25.3997 4.60396 25.3199 4.76037 25.2524 4.94383C25.1847 5.12708 25.151 5.334 25.151 5.56397V8.325H25.9935V8.47591H23.1566V8.325H23.8498V3.99967H23.1566V3.84876H25.1299Z" fill="white"/>
<path d="M0.74054 11.606V11.2904H4.8866V12.9585H4.93111C5.39174 11.6362 6.26847 10.9746 7.56153 10.9746C8.42322 10.9746 9.15868 11.1437 9.76832 11.4819C10.3775 11.8201 10.8791 12.2449 11.2731 12.7556C11.6666 13.2666 11.9565 13.8227 12.1425 14.4241C12.3281 15.0254 12.4211 15.5887 12.4211 16.1147C12.4211 16.7913 12.302 17.4375 12.0643 18.0534C11.8263 18.6699 11.4959 19.2144 11.0722 19.6878C10.6488 20.1613 10.1395 20.5411 9.54532 20.8262C8.95073 21.1116 8.28925 21.2547 7.56132 21.2547C6.8777 21.2547 6.32762 21.0666 5.91172 20.6912C5.49561 20.3156 5.18337 19.8647 4.97563 19.3384H4.93111V26.9357H6.44675V27.2512H0.74054V26.9357H2.21187V11.606H0.74054ZM4.98712 17.6814C5.02411 18.2451 5.13196 18.7712 5.31023 19.2594C5.4885 19.7481 5.75205 20.1539 6.10149 20.4768C6.45051 20.8002 6.93747 20.9615 7.56153 20.9615C7.97743 20.9615 8.30827 20.8486 8.55363 20.6233C8.79858 20.3978 8.98437 20.0748 9.11082 19.6538C9.23684 19.2334 9.31877 18.7259 9.35597 18.1322C9.39296 17.5385 9.41177 16.8735 9.41177 16.1371C9.41177 15.2353 9.37833 14.4729 9.31166 13.8491C9.24478 13.2256 9.12942 12.7258 8.96598 12.3499C8.80234 11.9746 8.59439 11.704 8.34192 11.5385C8.08904 11.3732 7.76969 11.2906 7.38347 11.2906C6.83339 11.2906 6.39513 11.4483 6.06826 11.7638C5.74118 12.0796 5.49603 12.4778 5.33259 12.9587C5.16895 13.4399 5.06132 13.9656 5.00948 14.5367C4.95724 15.108 4.93132 15.6413 4.93132 16.1374C4.93132 16.6034 4.94971 17.1179 4.98712 17.6814Z" fill="white"/>
<path d="M15.9429 16.3177C15.9429 16.8585 15.965 17.4036 16.0096 17.9521C16.0541 18.5008 16.173 18.9967 16.3663 19.4399C16.5594 19.8831 16.8418 20.2477 17.2134 20.5331C17.5845 20.8188 18.1052 20.9615 18.7737 20.9615C19.3679 20.9615 19.8695 20.8486 20.2785 20.6233C20.6871 20.3978 21.0213 20.1387 21.2815 19.8455C21.5412 19.5526 21.7346 19.2632 21.861 18.9774C21.9872 18.6921 22.0579 18.4814 22.0727 18.3465L22.385 18.459C22.3104 18.7447 22.1843 19.0491 22.0061 19.3721C21.8276 19.6954 21.5824 19.9958 21.2702 20.2739C20.9582 20.5523 20.5715 20.7848 20.1111 20.9727C19.6503 21.1606 19.0931 21.2545 18.4393 21.2545C17.6665 21.2545 16.9459 21.138 16.2771 20.9051C15.6083 20.6721 15.025 20.334 14.5271 19.8907C14.0289 19.4475 13.6389 18.9066 13.3568 18.2675C13.0742 17.6289 12.9331 16.9035 12.9331 16.0919C12.9331 15.4458 13.0669 14.8149 13.3344 14.1983C13.6019 13.5822 13.9698 13.0373 14.4377 12.5638C14.9058 12.0906 15.4555 11.7074 16.0873 11.4142C16.7187 11.1211 17.3985 10.9746 18.1269 10.9746C18.6469 10.9746 19.1668 11.0575 19.6872 11.2225C20.207 11.388 20.6754 11.6436 21.0915 11.9889C21.5074 12.3349 21.8493 12.782 22.1168 13.3305C22.3843 13.8792 22.5181 14.5365 22.5181 15.3029H15.9429V16.3177ZM19.5092 13.4771C19.5092 13.3119 19.5015 13.109 19.487 12.8684C19.472 12.6281 19.4202 12.3876 19.3309 12.1468C19.2419 11.9067 19.0968 11.7038 18.8962 11.5383C18.6956 11.373 18.417 11.2904 18.0602 11.2904C17.5549 11.2904 17.1647 11.4107 16.8898 11.651C16.6146 11.8915 16.4106 12.1961 16.2769 12.5638C16.1431 12.9325 16.0574 13.3305 16.0204 13.7587C15.9832 14.1871 15.9571 14.5967 15.9425 14.9873H19.5088V13.4771H19.5092Z" fill="white"/>
<path d="M27.222 11.2908V13.1842H27.2665C27.534 12.6133 27.8941 12.1212 28.3476 11.7078C28.8007 11.2946 29.3986 11.0879 30.1418 11.0879C30.7659 11.0879 31.271 11.257 31.6577 11.5949C32.0439 11.9331 32.2372 12.403 32.2372 13.0039C32.2372 13.4547 32.1292 13.8081 31.9139 14.0635C31.6984 14.3192 31.353 14.4467 30.8775 14.4467C30.5354 14.4467 30.2233 14.3756 29.9412 14.2325C29.6586 14.0899 29.5178 13.8231 29.5178 13.4323C29.5178 13.3871 29.5251 13.3085 29.5399 13.1956C29.5546 13.0829 29.5734 12.9627 29.5957 12.8348C29.6181 12.7074 29.6365 12.5907 29.6515 12.4854C29.6662 12.3804 29.6737 12.3201 29.6737 12.3049C29.6586 12.1849 29.6363 12.0908 29.6068 12.0232C29.5767 11.9555 29.5289 11.8957 29.462 11.8429C29.3951 11.7905 29.2948 11.7638 29.161 11.7638C29.0124 11.7638 28.8266 11.8355 28.6036 11.9779C28.3806 12.121 28.1725 12.3275 27.9794 12.5979C27.7862 12.8684 27.6191 13.1954 27.478 13.5786C27.3367 13.9616 27.2663 14.394 27.2663 14.8747V20.6459H29.0273V20.9615H23.0978V20.6459H24.5468V11.6059H23.0978V11.2904H27.222V11.2908Z" fill="white"/>
<path d="M33.2847 11.2904C33.2847 10.7943 33.2922 10.2837 33.3071 9.75736C33.3217 9.23149 33.37 8.72042 33.4519 8.22435C33.5336 7.72849 33.6638 7.25884 33.8421 6.81519C34.0204 6.37218 34.2731 5.98137 34.5999 5.64297C34.9266 5.30479 35.3429 5.03826 35.8483 4.84275C36.3534 4.64767 36.9775 4.5498 37.7209 4.5498C38.0624 4.5498 38.3967 4.59144 38.7238 4.67366C39.0505 4.75631 39.3479 4.88418 39.6156 5.05686C39.8829 5.22976 40.0984 5.45528 40.262 5.73323C40.4253 6.01138 40.5072 6.34576 40.5072 6.73657C40.5072 7.08235 40.3807 7.37551 40.1283 7.61562C39.8756 7.85637 39.5784 7.97642 39.2367 7.97642C38.4488 7.97642 38.0552 7.59301 38.0552 6.82661C38.0552 6.78159 38.0663 6.70275 38.0887 6.58988C38.1108 6.47701 38.133 6.35696 38.1554 6.22908C38.1777 6.10163 38.1961 5.98496 38.2112 5.8797C38.2258 5.77465 38.2335 5.6992 38.2335 5.65418C38.2335 5.38384 38.1368 5.18474 37.9436 5.05686C37.7503 4.92941 37.5275 4.86516 37.2751 4.86516C36.9628 4.86516 36.7177 4.94421 36.5394 5.10188C36.3609 5.25977 36.2347 5.47388 36.1603 5.74443C36.0859 6.01476 36.0412 6.32694 36.0265 6.67992C36.0117 7.03332 36.0042 7.40532 36.0042 7.7957V11.2902H37.8544V11.6057H36.0042V20.6457H37.7206V20.9613H31.8134V20.6457H33.2845V11.6057H31.8134V11.2902L33.2847 11.2904Z" fill="white"/>
<path d="M41.4878 16.3177C41.4878 16.8585 41.5099 17.4036 41.5545 17.9521C41.599 18.5008 41.7179 18.9967 41.9112 19.4399C42.1043 19.8831 42.3867 20.2477 42.7583 20.5331C43.1295 20.8188 43.6501 20.9615 44.3186 20.9615C44.9128 20.9615 45.4144 20.8486 45.8234 20.6233C46.232 20.3978 46.5662 20.1387 46.8264 19.8455C47.0862 19.5526 47.2795 19.2632 47.4059 18.9774C47.5322 18.6921 47.6028 18.4814 47.6176 18.3465L47.9299 18.459C47.8553 18.7447 47.7292 19.0491 47.551 19.3721C47.3725 19.6954 47.1273 19.9958 46.8151 20.2739C46.5031 20.5523 46.1166 20.7848 45.656 20.9727C45.1952 21.1606 44.638 21.2545 43.9842 21.2545C43.2114 21.2545 42.4908 21.138 41.822 20.9051C41.1532 20.6721 40.5699 20.334 40.0721 19.8907C39.5738 19.4475 39.1838 18.9066 38.9017 18.2675C38.6191 17.6289 38.4783 16.9035 38.4783 16.0919C38.4783 15.4458 38.612 14.8149 38.8793 14.1983C39.1468 13.5822 39.5147 13.0373 39.9826 12.5638C40.4508 12.0906 41.0004 11.7074 41.6322 11.4142C42.2636 11.1211 42.9434 10.9746 43.672 10.9746C44.1918 10.9746 44.712 11.0575 45.2324 11.2225C45.7521 11.388 46.2205 11.6436 46.6366 11.9889C47.0525 12.3349 47.3944 12.782 47.6619 13.3305C47.9295 13.8792 48.0632 14.5365 48.0632 15.3029H41.4876L41.4878 16.3177ZM45.0541 13.4771C45.0541 13.3119 45.0464 13.109 45.0319 12.8684C45.0169 12.6281 44.9651 12.3876 44.8758 12.1468C44.7868 11.9067 44.6417 11.7038 44.4411 11.5383C44.2405 11.373 43.9619 11.2904 43.6051 11.2904C43.0998 11.2904 42.7096 11.4107 42.4348 11.651C42.1595 11.8915 41.9555 12.1961 41.8218 12.5638C41.688 12.9325 41.6023 13.3305 41.5653 13.7587C41.5281 14.1871 41.502 14.5967 41.4874 14.9873H45.0537V13.4771H45.0541Z" fill="white"/>
<path d="M52.7 4.70703V15.4603H52.8114L56.9575 11.6053H55.3302V11.2897H58.8298V11.6053H57.4034L54.9068 13.9947L60.0115 20.6453H60.8809V20.9608H54.9737V20.6453H56.5788L52.8116 15.7759H52.7002V20.6453H54.0823V20.9608H48.5094V20.6453H49.9808V5.0226H48.5094V4.70703H52.7Z" fill="white"/>
<path d="M62.7642 8.60715C62.9943 8.6676 63.221 8.6974 63.444 8.6974C63.6668 8.6974 63.8932 8.6676 64.1239 8.60715C64.3542 8.54733 64.581 8.47188 64.8038 8.38184V11.29H67.4118V11.6055H64.8038V19.1577C64.8038 19.3831 64.8184 19.5938 64.8483 19.7889C64.878 19.9844 64.9336 20.1609 65.0157 20.3188C65.0972 20.4764 65.2161 20.6005 65.3722 20.6908C65.5281 20.7808 65.7323 20.8258 65.9852 20.8258C66.2676 20.8258 66.5092 20.766 66.7096 20.6455C66.9104 20.5255 67.085 20.3714 67.2338 20.1833C67.3819 19.9954 67.5048 19.7815 67.6016 19.5407C67.6979 19.3004 67.7761 19.0673 67.8357 18.8418L68.1701 18.9094C68.0808 19.4205 67.9285 19.8301 67.713 20.138C67.4975 20.4462 67.2522 20.6829 66.9773 20.848C66.7023 21.0133 66.4086 21.1222 66.0968 21.1748C65.7848 21.2276 65.4872 21.2538 65.205 21.2538C64.4324 21.2538 63.834 21.1636 63.4106 20.9833C62.9872 20.8028 62.6749 20.5777 62.4743 20.3071C62.2739 20.0364 62.1585 19.7434 62.129 19.4279C62.0992 19.1123 62.0843 18.8189 62.0843 18.5486V11.6053H60.5908V11.2898H62.0843V8.38184C62.3071 8.47188 62.5337 8.54733 62.7642 8.60715Z" fill="white"/>
<path d="M70.7551 16.3177C70.7551 16.8585 70.7773 17.4036 70.8218 17.9521C70.8665 18.5008 70.9852 18.9967 71.1785 19.4399C71.3714 19.8831 71.6538 20.2477 72.0256 20.5331C72.397 20.8188 72.9174 20.9615 73.586 20.9615C74.1803 20.9615 74.6819 20.8486 75.0905 20.6233C75.4991 20.3978 75.8337 20.1387 76.0939 19.8455C76.3537 19.5526 76.547 19.2632 76.6732 18.9774C76.7993 18.6921 76.8699 18.4814 76.8852 18.3465L77.1972 18.459C77.1228 18.7447 76.9964 19.0491 76.8183 19.3721C76.6398 19.6954 76.3949 19.9958 76.0826 20.2739C75.7708 20.5523 75.384 20.7848 74.9235 20.9727C74.4627 21.1606 73.9055 21.2545 73.2516 21.2545C72.4787 21.2545 71.7581 21.138 71.0893 20.9051C70.4205 20.6721 69.8372 20.334 69.3396 19.8907C68.8416 19.4475 68.4514 18.9066 68.1692 18.2675C67.8867 17.6289 67.7458 16.9035 67.7458 16.0919C67.7458 15.4458 67.8795 14.8149 68.1471 14.1983C68.4144 13.5822 68.7822 13.0373 69.2503 12.5638C69.7183 12.0906 70.268 11.7074 70.9 11.4142C71.5313 11.1211 72.2112 10.9746 72.9398 10.9746C73.4597 10.9746 73.9797 11.0575 74.5001 11.2225C75.0201 11.388 75.488 11.6436 75.9044 11.9889C76.3203 12.3349 76.6622 12.782 76.9299 13.3305C77.1972 13.8792 77.3312 14.5365 77.3312 15.3029H70.7551V16.3177ZM74.3216 13.4771C74.3216 13.3119 74.3143 13.109 74.2995 12.8684C74.2848 12.6281 74.2326 12.3876 74.1436 12.1468C74.0543 11.9067 73.9095 11.7038 73.7091 11.5383C73.5082 11.373 73.2296 11.2904 72.8731 11.2904C72.3675 11.2904 71.9775 11.4107 71.7027 11.651C71.4275 11.8915 71.2233 12.1961 71.0895 12.5638C70.9558 12.9325 70.8703 13.3305 70.8331 13.7587C70.7957 14.1871 70.7698 14.5967 70.7551 14.9873H74.3214V13.4771H74.3216Z" fill="white"/>
<path d="M98.6686 0.749023V7.07427H98.1929C98.0706 6.65514 97.8639 6.1187 97.5714 5.46516C97.2786 4.81205 96.8702 4.17691 96.3458 3.56015C95.8212 2.94403 95.1447 2.4078 94.3158 1.95126C93.487 1.49535 92.4746 1.26686 91.2804 1.26686H85.4649V12.6965H87.5132C88.415 12.6965 89.1775 12.5672 89.7992 12.3082C90.4212 12.0491 90.9389 11.6792 91.3537 11.1984C91.768 10.7177 92.109 10.1386 92.3776 9.46013C92.6457 8.78208 92.8652 8.02371 93.0357 7.18523H93.5114V18.6889H93.0357C92.8652 17.9738 92.6639 17.2831 92.4324 16.6173C92.2004 15.9515 91.8894 15.3662 91.4996 14.8605C91.1096 14.3553 90.6277 13.9543 90.055 13.6582C89.482 13.3623 88.7687 13.2144 87.9156 13.2144H85.4647V26.5674H91.463C92.5841 26.5674 93.5965 26.3766 94.4987 25.9942C95.4003 25.6121 96.1995 25.0758 96.8944 24.3851C97.5891 23.695 98.1682 22.887 98.6316 21.9622C99.0947 21.0375 99.4483 20.0452 99.6922 18.9848H100.168V27.0853H76.7968V26.5674H80.1618V1.26686H76.7968V0.749023H98.6686Z" fill="white"/>
<path d="M110.774 11.217V11.7346H108.543L111.652 16.913L115.383 11.7346H112.932V11.217H118.089V11.7346H116.041L112.018 17.3941L117.76 26.5672H119.259V27.0851H109.933V26.5672H112.457L108.836 20.8338L104.776 26.5672H107.592V27.0851H101.631V26.5672H104.081L108.507 20.353L103.057 11.7344H101.192V11.2168L110.774 11.217Z" fill="white"/>
</g>
<defs>
<clipPath id="clip0_1_1905">
<rect width="120" height="28" fill="white"/>
</clipPath>
</defs>
</svg>
