<svg width="120" height="46" viewBox="0 0 120 46" fill="none" xmlns="http://www.w3.org/2000/svg">
<path d="M14.5706 8.82544H7.18368L0 45.9998H6.44111C14.5736 45.9998 23.3362 38.0072 25.3695 27.4125C27.4024 16.818 22.7027 8.82544 14.5706 8.82544ZM18.1719 27.7128C16.9994 34.7413 12.0424 40.1138 7.90849 40.1138H7.63737L12.5168 14.7113H12.7878C17.4891 14.7114 19.5242 19.6077 18.1719 27.7128Z" fill="white"/>
<path d="M86.4527 29.1473H94.3109L95.1917 24.5007H87.3337L89.5021 13.4723H97.1839L98.38 8.82544H82.9521L75.7686 45.9998H93.5621L94.7582 41.353H84.0806L86.4527 29.1473Z" fill="white"/>
<path d="M119.815 19.5441C120.967 13.5963 116.63 8.82544 110.124 8.82544H102.127L94.9434 45.9997H102.059L104.973 30.8822L110.934 45.9997H119.209C115.503 36.4034 112.292 28.8375 112.292 28.8375C116.291 26.7931 119.137 23.1995 119.815 19.5441ZM113.377 19.5441C112.767 22.8896 109.853 25.6779 106.193 25.6779H105.99L108.362 13.4723H108.565C112.225 13.4723 114.054 16.1985 113.377 19.5441Z" fill="white"/>
<path d="M75.8367 8.82563L77.5261 0H75.7407C74.0747 6.5764 69.4325 8.82563 66.0779 8.82563H64.5874H62.2828H58.7387L53.3851 17.4995L52.0298 8.82563H45.7709H44.8902H30.343L23.1597 46H35.9684H38.4314H41.1187L48.6411 33.7944L51.2369 46H58.6913L54.4692 24.1911L61.5273 13.4725H67.8399L61.5372 46H68.653L74.9555 13.4725H81.3936L82.2745 8.82574L75.8367 8.82563ZM38.8952 41.3532H30.841L33.2131 29.1476H40.1256L41.0067 24.5009H34.094L36.2626 13.4725H44.2595L45.1842 10.6288L47.8719 27.1033L38.8952 41.3532Z" fill="white"/>
</svg>
