<svg width="120" height="24" viewBox="0 0 120 24" fill="none" xmlns="http://www.w3.org/2000/svg">
<path d="M106.727 1.98633H108.133C109.612 2.02718 111.109 2.14667 112.528 2.59041C113.257 2.82122 113.964 3.15569 114.552 3.64948C115.616 4.49765 116.432 5.68437 116.715 7.02224C117.04 8.53271 116.766 10.1606 115.983 11.4913C115.808 11.7967 115.575 12.0607 115.34 12.3201C116.511 12.842 117.507 13.8056 117.939 15.0219C118.095 15.4452 118.176 15.8925 118.206 16.3409V16.9981C118.155 17.6716 118.043 18.3502 117.769 18.9727C117.558 19.4782 117.23 19.924 116.853 20.3188C116.354 20.7554 115.781 21.1087 115.154 21.3308C113.717 21.8599 112.163 21.8645 110.652 21.9043C107.483 21.9702 104.313 21.8583 101.146 21.7327C101.169 20.4883 101.196 19.2444 101.219 17.9999C101.218 17.8789 101.224 17.7584 101.232 17.6384C102.851 17.5945 104.475 17.5113 106.076 17.2529C106.746 17.1288 107.439 17.0083 108.032 16.6559C108.204 16.5421 108.378 16.3679 108.363 16.1453C108.342 15.963 108.156 15.8706 108.002 15.8144C107.618 15.6847 107.21 15.6648 106.809 15.6423C105.666 15.6071 104.525 15.7097 103.39 15.8241C103.325 14.8381 103.274 13.8505 103.214 12.8634C103.207 12.7547 103.198 12.6459 103.19 12.5371C103.902 12.4513 104.618 12.3911 105.324 12.2537C105.75 12.1695 106.182 12.074 106.568 11.8692C106.719 11.7758 106.878 11.642 106.887 11.4515C106.881 11.2708 106.704 11.1645 106.563 11.0885C106.148 10.8908 105.689 10.8112 105.238 10.7407C104.055 10.5773 102.853 10.5809 101.665 10.6866C101.561 8.04352 101.455 5.40046 101.35 2.7579C101.344 2.65016 101.339 2.54241 101.335 2.43467C103.124 2.20233 104.924 2.05067 106.727 1.98633Z" fill="white" stroke="white" stroke-miterlimit="10"/>
<path d="M16.4883 2.41485C17.7421 2.13145 19.0308 2.04617 20.3129 2.01758C22.3519 2.02524 24.3832 2.22745 26.4073 2.45162C26.9375 2.49656 27.4575 2.614 27.9832 2.6952C28.0744 2.69673 28.1339 2.76873 28.196 2.82541C27.9837 5.88668 27.9288 8.95562 27.7888 12.0205C27.6857 12.0246 27.5826 12.0281 27.4801 12.0281C26.6344 12.0302 25.7637 11.9612 24.9452 12.2191C24.5247 12.3565 24.1308 12.6087 23.8796 12.9769C23.8221 13.0606 23.7519 13.1413 23.7308 13.2435C23.5775 13.8537 23.5503 14.5017 23.7047 15.1144C23.9062 15.936 24.4247 16.6606 25.0867 17.181C26.2067 17.9842 27.5924 18.2891 28.9401 18.4443C28.9806 19.3788 29.0191 20.3127 29.0611 21.2467C28.958 21.3059 28.8555 21.3846 28.7288 21.3743C26.4457 21.454 24.1632 21.5771 21.878 21.5837C19.5498 21.5893 17.2114 21.4897 14.9165 21.0782C14.0216 20.8836 13.2252 20.3418 12.6391 19.6509C12.3467 19.3006 12.1078 18.9003 11.9765 18.4627C11.4729 16.9022 11.3534 15.2441 11.4314 13.6147C11.5288 11.4925 11.9473 9.40447 12.3288 7.31954C12.4575 6.22779 12.9355 5.1963 13.6129 4.33537C14.3462 3.42745 15.3396 2.69009 16.4883 2.41485Z" fill="white" stroke="white" stroke-miterlimit="10"/>
<path d="M51.6246 3.34656C54.9098 3.19132 58.159 2.64954 61.4364 2.40137C62.2251 6.67235 63.0123 10.9438 63.8 15.2143C64.1595 17.1782 64.5303 19.1406 64.8821 21.1055C64.7549 21.1142 64.6282 21.1229 64.5021 21.1316C63.3287 21.2128 62.1554 21.2996 60.9821 21.3818C60.7636 20.4902 60.62 19.5787 60.3185 18.7096C58.9703 18.6953 57.621 18.703 56.2718 18.706C56.2339 18.8281 56.1954 18.9501 56.1564 19.0717C55.8877 19.9035 55.6154 20.7338 55.3467 21.5656C55.3313 21.68 55.198 21.6126 55.1262 21.6187C52.7128 21.4017 50.321 21.007 47.9169 20.7154C47.9144 20.5122 47.8985 20.3069 47.9267 20.1047C49.0918 14.6388 50.2646 9.17498 51.4282 3.70911C51.4431 3.5646 51.4969 3.42877 51.6246 3.34656ZM58.5764 12.4952C58.3303 13.1222 58.1097 13.759 57.8739 14.3896C57.5236 15.3542 57.16 16.3142 56.8185 17.2819C57.7539 17.2191 58.6903 17.168 59.6262 17.1088C59.761 17.1037 59.8959 17.0955 60.0308 17.0848C59.6308 15.3287 59.2292 13.5726 58.8344 11.8155C58.7246 12.0315 58.6477 12.2649 58.5764 12.4952Z" fill="white" stroke="white" stroke-miterlimit="10"/>
<path d="M71.101 2.7502C72.2344 2.53471 73.3959 2.51173 74.5456 2.56995C76.3549 2.65727 78.14 2.97693 79.9333 3.20416C79.9303 4.37812 79.8821 5.55258 79.8595 6.72654C79.8282 7.99395 79.7913 9.26135 79.7477 10.5288C79.6436 10.5344 79.5395 10.54 79.4369 10.5415C78.3277 10.5614 77.2185 10.4828 76.1098 10.5451C75.2621 10.6028 74.3851 10.7483 73.658 11.213C73.3821 11.3933 73.1246 11.6103 72.9344 11.8799C72.7144 12.148 72.5487 12.4595 72.4349 12.7853C72.2882 13.637 72.3749 14.5362 72.7236 15.3313C72.9185 15.7802 73.1939 16.1933 73.5174 16.5604C73.9456 17.093 74.6041 17.3667 75.2385 17.574C76.6939 18.0065 78.2395 17.9162 79.7287 17.742C79.8446 17.7282 79.9616 17.7129 80.079 17.6986C80.0159 16.9005 79.9518 16.1034 79.8908 15.3053C79.8882 15.1848 79.7759 15.0847 79.6631 15.0632C78.7339 14.8998 77.7467 15.1802 76.8533 14.8054C76.8503 14.6108 76.8518 14.4168 76.8508 14.2232C76.8492 14.1053 76.8508 13.9868 76.8585 13.8694C78.5349 13.7866 80.2108 13.6886 81.8867 13.5977C81.981 13.5762 82.0339 13.6702 82.098 13.7202C82.141 16.2259 82.1498 18.7327 82.1918 21.2384C82.08 21.2501 81.9687 21.2608 81.858 21.2685C79.3431 21.4564 76.8339 21.7408 74.3113 21.822C72.1795 21.8879 70.0272 21.8205 67.9339 21.3854C67.1021 21.149 66.3846 20.5934 65.8749 19.9061C65.5862 19.5063 65.3421 19.0636 65.2164 18.5856C64.9395 16.3408 64.9323 14.0639 65.1867 11.8166C65.4149 9.82152 65.8585 7.84841 66.5431 5.95854C66.658 5.60722 66.8985 5.31871 67.1062 5.01795C67.5077 4.51395 67.9887 4.0702 68.5354 3.72501C69.3113 3.22816 70.1985 2.92331 71.101 2.7502Z" fill="white" stroke="white" stroke-miterlimit="10"/>
<path d="M82.6298 2.82031C86.8287 2.95155 91.0272 3.07972 95.2251 3.21299C95.2272 5.62423 95.2262 8.03546 95.2262 10.4462C95.118 10.4528 95.0103 10.459 94.9036 10.4646C93.6913 10.5335 92.4785 10.5953 91.2667 10.6739C91.2446 10.7904 91.2226 10.9063 91.2036 11.0232C91.0672 11.8995 91.0708 12.789 90.9892 13.6709C91.0503 13.724 91.1082 13.8016 91.201 13.7939C92.1215 13.8455 93.0451 13.8751 93.9657 13.9384C93.9585 14.6365 93.9662 15.334 93.9616 16.0321C93.8544 16.0346 93.7472 16.0387 93.641 16.0428C92.7564 16.076 91.8708 16.102 90.9872 16.1459C90.979 16.2629 90.9718 16.3808 90.9646 16.4983C90.9087 17.2336 90.8431 17.9679 90.7959 18.7037C90.8626 18.7517 90.9262 18.8242 91.0195 18.814C92.4498 18.859 93.88 18.9054 95.3108 18.9509C95.4185 19.5999 95.3477 20.2591 95.358 20.9127C95.2503 20.9163 95.1426 20.9199 95.0359 20.925C91.219 21.1129 87.4031 21.309 83.5857 21.4923C83.2985 15.3932 82.8687 9.30082 82.6441 3.1987C82.6375 3.07206 82.6328 2.94644 82.6298 2.82031Z" fill="white" stroke="white" stroke-miterlimit="10"/>
<path d="M30.3759 2.99739C34.6077 2.97339 38.8323 3.28999 43.0641 3.28233C43.1138 5.73288 43.1477 8.18446 43.1871 10.636C43.0774 10.6416 42.9677 10.6478 42.8584 10.6544C41.3748 10.7387 39.8923 10.8367 38.4087 10.9169C38.4082 11.0348 38.4077 11.1528 38.4092 11.2718C38.42 12.1731 38.3677 13.0769 38.4543 13.9756C39.5353 13.9746 40.6164 13.9756 41.6979 13.9751C41.6753 14.7201 41.6512 15.4646 41.6251 16.2096C41.521 16.2137 41.4174 16.2193 41.3133 16.225C40.423 16.274 39.5323 16.322 38.642 16.3756C38.6312 16.4925 38.6205 16.6095 38.6148 16.7264C38.5902 17.5342 38.7256 18.3359 38.7528 19.1417C40.2559 19.2081 41.7584 19.2837 43.2615 19.3547C43.2605 20.0108 43.2697 20.6675 43.2569 21.3237C43.1507 21.3252 43.0451 21.3278 42.94 21.3314C40.5056 21.411 38.0718 21.4968 35.6369 21.5765C33.6933 21.6485 31.7487 21.6995 29.8056 21.7812C29.6687 21.6684 29.7107 21.4917 29.7153 21.3375C29.9251 15.3462 30.1533 9.35535 30.3641 3.36454C30.3666 3.24199 30.3712 3.11944 30.3759 2.99739Z" fill="white" stroke="white" stroke-miterlimit="10"/>
<path d="M2.98617 3.35959C5.42104 3.115 7.87284 3.31466 10.3128 3.16504C10.3718 4.88538 10.4005 6.60623 10.4477 8.32708C10.5575 12.7548 10.6662 17.1821 10.7775 21.6103C10.6667 21.6103 10.5564 21.6103 10.4457 21.6103C7.90412 21.6103 5.36258 21.6103 2.82104 21.6103V16.7526C2.82822 16.7148 2.8431 16.6387 2.85079 16.6004C2.86258 14.3495 2.87438 12.0987 2.88771 9.84776C2.91181 7.79653 2.95284 5.74632 2.98156 3.69508C2.98156 3.58274 2.98361 3.47091 2.98617 3.35959Z" fill="white" stroke="white" stroke-miterlimit="10"/>
</svg>
