<svg width="120" height="18" viewBox="0 0 120 18" fill="none" xmlns="http://www.w3.org/2000/svg">
<path d="M13.7425 7.91203C13.7592 7.91203 13.7677 7.91203 13.7844 7.91203C15.0134 5.94038 16.2273 3.96135 17.4273 1.97363C19.6364 1.97363 21.8452 1.97395 24.0544 1.97363C23.7989 3.00253 23.6714 3.51681 23.4156 4.54506C22.6736 4.88353 22.597 5.42481 22.4603 5.96642C21.9123 8.13767 21.3643 10.3086 20.8159 12.4798C20.6792 13.0215 20.4755 13.5627 21.0918 13.9009C20.8361 14.9295 20.7085 15.4437 20.4531 16.4723C18.1322 16.4723 15.8115 16.4723 13.4906 16.4723C13.7914 15.4437 13.9419 14.9295 14.2424 13.9009C15.0418 13.5627 15.1306 13.0211 15.2868 12.4798C15.661 11.1829 16.0348 9.8856 16.409 8.58863C16.392 8.58863 16.3835 8.58863 16.3665 8.58863C14.775 11.2321 13.1561 13.8591 11.5107 16.4726C10.763 16.4726 10.3895 16.4726 9.64208 16.4726C9.57845 13.8443 9.55074 11.2176 9.56113 8.58863C9.54412 8.58863 9.53562 8.58863 9.51893 8.58863C9.08554 9.88592 8.65184 11.1829 8.21846 12.4798C8.03735 13.0215 7.78948 13.5627 8.37814 13.9009C8.0383 14.9295 7.86885 15.4437 7.52901 16.4723C5.57153 16.4723 3.61405 16.4723 1.65625 16.4723C2.0342 15.4437 2.22286 14.9295 2.60082 13.9009C3.42538 13.5627 3.55515 13.0211 3.75168 12.4798C4.54003 10.3086 5.32869 8.13767 6.11704 5.96642C6.31389 5.42481 6.57058 4.88353 6.03672 4.54538C6.41468 3.51681 6.60334 3.00253 6.98129 1.97395C9.25121 1.97395 11.5208 1.97395 13.7904 1.97395C13.7501 3.95267 13.7337 5.93235 13.7425 7.91203Z" fill="white"/>
<path d="M28.2609 16.4726C26.0735 16.4726 23.8861 16.4726 21.6987 16.4726C21.9463 15.4441 22.0698 14.9298 22.3173 13.9012C23.0332 13.5631 23.2738 12.8183 23.5781 12.26C25.1835 8.84674 26.7501 5.4187 28.277 1.97363C30.8364 1.97363 33.3954 1.97363 35.9548 1.97363C36.226 5.48074 36.5501 8.98174 36.9261 12.4802C36.9671 12.9369 37.0657 13.7492 37.7006 13.9012C37.5551 14.9301 37.482 15.4441 37.3365 16.4726C34.8376 16.4726 32.3387 16.4726 29.8401 16.4726C30.0345 15.4441 30.1318 14.9298 30.3261 13.9012C30.8112 13.7659 31.0795 13.4952 31.1513 13.106C31.1794 12.9536 31.1608 12.8183 31.1425 12.683C30.0222 12.683 29.4622 12.683 28.3419 12.683C28.2707 12.8183 28.1964 12.9707 28.1687 13.106C28.0858 13.5123 28.2893 13.7996 28.7724 13.9012C28.568 14.9298 28.4653 15.4441 28.2609 16.4726ZM31.1545 9.85763C31.1151 8.42503 31.0814 6.99306 31.0537 5.56045C31.037 5.56045 31.0288 5.56045 31.0121 5.56045C30.4417 6.99531 29.8638 8.42792 29.2789 9.85763C30.0291 9.85763 30.4042 9.85763 31.1545 9.85763Z" fill="white"/>
<path d="M47.2792 6.42312C47.329 5.83105 47.5586 4.81598 46.4046 4.81598C45.2506 4.81598 45.2956 5.83105 45.238 6.42312C45.0553 8.28998 44.8726 10.1565 44.69 12.023C44.632 12.6154 44.3797 13.6302 45.603 13.6302C46.8263 13.6302 46.7586 12.6151 46.8087 12.023C46.8638 11.3667 46.8915 11.0385 46.9466 10.3822C48.786 10.3822 50.6254 10.3822 52.4648 10.3822C52.3876 11.9948 52.3107 13.6077 52.2339 15.2206C50.3237 16.3421 47.9501 16.7098 45.7422 16.7606C43.8632 16.8037 41.5208 16.6857 40.0096 15.5594C38.6377 14.5369 38.7381 12.7755 39.0188 11.2789C39.2462 9.59819 39.4742 7.91776 39.7013 6.23701C39.8465 4.87865 40.4137 3.54312 41.6518 2.78583C43.2329 1.81897 45.1737 1.62515 46.911 1.6859C48.9624 1.7579 50.8562 2.33294 52.8046 3.25962C52.7407 4.6019 52.6764 5.94387 52.6122 7.28615C50.8103 7.28615 49.0084 7.28615 47.2065 7.28615C47.2358 6.94094 47.2503 6.76833 47.2792 6.42312Z" fill="white"/>
<path d="M69.3686 16.4725C66.9589 16.4725 64.5491 16.4725 62.139 16.4725C62.1236 15.4439 62.1157 14.9296 62.1 13.9011C62.7951 13.5629 62.7173 13.0213 62.7069 12.48C62.6905 11.6276 62.6823 11.201 62.666 10.3483C61.7935 10.3483 61.357 10.3483 60.4849 10.3483C60.4893 11.2007 60.4912 11.6273 60.4956 12.48C60.4984 13.0216 60.4341 13.5629 61.1375 13.9011C61.1466 14.9299 61.1513 15.4439 61.1608 16.4725C58.751 16.4725 56.3412 16.4725 53.9312 16.4725C53.9689 15.4439 53.9878 14.9296 54.0253 13.9011C54.7381 13.5629 54.6883 13.0213 54.7063 12.48C54.7768 10.3088 54.8477 8.13784 54.9182 5.96659C54.9359 5.42498 55.014 4.88369 54.3683 4.54555C54.4061 3.51698 54.425 3.00269 54.4628 1.97412C56.6515 1.97412 58.8404 1.97412 61.0291 1.97412C61.0382 3.00301 61.0433 3.51698 61.0527 4.54555C60.3973 4.88401 60.4606 5.4253 60.4631 5.96659C60.4663 6.58919 60.4678 6.90033 60.4707 7.52294C61.3267 7.52294 61.7554 7.52294 62.6115 7.52294C62.5995 6.90033 62.5932 6.58887 62.5812 5.96659C62.5705 5.42498 62.6209 4.88369 61.9576 4.54555C61.9419 3.51698 61.934 3.00269 61.9186 1.97412C64.1072 1.97412 66.2959 1.97412 68.4849 1.97412C68.5475 3.00301 68.579 3.5173 68.6417 4.54587C68.0042 4.88434 68.0956 5.42562 68.1261 5.96691C68.2499 8.13816 68.3737 10.3091 68.4968 12.4803C68.5277 13.0219 68.4915 13.5632 69.2124 13.9014C69.2748 14.9296 69.306 15.4439 69.3686 16.4725Z" fill="white"/>
<path d="M84.4691 11.2278C84.7526 12.9757 85.0354 14.7243 85.3179 16.4722C80.5576 16.4722 75.797 16.4722 71.0367 16.4722C70.9633 15.4437 70.9264 14.9294 70.8531 13.9008C71.529 13.5627 71.4206 13.0211 71.38 12.4798C71.2162 10.3085 71.0515 8.13759 70.8874 5.96634C70.8464 5.42473 70.8663 4.88345 70.1838 4.54531C70.1101 3.51673 70.0732 3.00245 69.9995 1.97388C74.3236 1.97388 78.6474 1.97388 82.9712 1.97388C83.236 3.60931 83.5012 5.24473 83.7652 6.88016C82.0518 6.88016 80.3384 6.88016 78.625 6.88016C78.6027 6.70434 78.592 6.61627 78.5696 6.44045C78.4449 5.45913 78.2275 5.05316 76.7419 5.05316C76.6099 5.05316 76.5434 5.05316 76.4115 5.05316C76.5296 6.08848 76.5885 6.6063 76.7063 7.64163C78.1261 7.64163 78.8357 7.64163 80.2556 7.64163C80.4112 8.77177 80.4887 9.33684 80.6439 10.467C79.1973 10.467 78.4742 10.467 77.0275 10.467C77.1605 11.6379 77.2275 12.2233 77.3608 13.3939C77.5006 13.3939 77.5705 13.3939 77.7101 13.3939C79.4546 13.3939 79.3683 12.8864 79.2392 11.7022C79.2153 11.5126 79.203 11.4178 79.1787 11.2281C80.9422 11.2278 82.7057 11.2278 84.4691 11.2278Z" fill="white"/>
<path d="M83.6182 1.97363C88.5952 1.97363 93.5725 1.97363 98.5495 1.97363C99.1394 4.15613 99.7293 6.33863 100.32 8.52081C98.9889 8.52081 97.6578 8.52081 96.3271 8.52081C96.0897 7.54624 95.9706 7.05895 95.7331 6.08438C95.5722 5.42449 95.2997 5.06931 94.5117 5.05228C95.0991 7.52792 95.6856 10.0039 96.273 12.4795C96.4015 13.0211 96.4626 13.5624 97.244 13.9006C97.4922 14.9291 97.6163 15.4434 97.8645 16.472C95.4547 16.472 93.0446 16.472 90.6349 16.472C90.4339 15.4434 90.3334 14.9291 90.1322 13.9006C90.7662 13.5624 90.5914 13.0208 90.4834 12.4795C89.9892 10.0039 89.4956 7.52824 89.0012 5.05228C88.2204 5.06931 88.1032 5.42449 88.2304 6.08438C88.4185 7.05895 88.5127 7.54624 88.7007 8.52081C87.3697 8.52081 86.0386 8.52081 84.7076 8.52081C84.3441 6.33863 83.9807 4.15613 83.6182 1.97363Z" fill="white"/>
<path d="M115.869 11.2278C116.511 12.9757 117.154 14.724 117.795 16.4722C113.035 16.4722 108.274 16.4722 103.514 16.4722C103.229 15.4437 103.087 14.9294 102.802 13.9008C103.409 13.5627 103.189 13.0211 103.037 12.4798C102.427 10.3085 101.817 8.13727 101.207 5.96634C101.055 5.42473 100.963 4.88345 100.211 4.54531C99.9264 3.51673 99.7837 3.00245 99.499 1.97388C103.823 1.97388 108.147 1.97388 112.471 1.97388C113.071 3.60931 113.672 5.24473 114.272 6.88016C112.559 6.88016 110.845 6.88016 109.132 6.88016C109.074 6.70434 109.045 6.61627 108.986 6.44045C108.66 5.45913 108.359 5.05316 106.873 5.05316C106.741 5.05316 106.675 5.05316 106.543 5.05316C106.874 6.08848 107.039 6.6063 107.37 7.64163C108.789 7.64163 109.499 7.64163 110.919 7.64163C111.307 8.77177 111.5 9.33684 111.888 10.467C110.441 10.467 109.718 10.467 108.272 10.467C108.645 11.6379 108.832 12.2233 109.205 13.3939C109.345 13.3939 109.415 13.3939 109.554 13.3939C111.299 13.3939 111.109 12.8861 110.737 11.7022C110.674 11.5126 110.643 11.4178 110.579 11.2284C112.342 11.2278 114.106 11.2278 115.869 11.2278Z" fill="white"/>
</svg>
