<svg width="120" height="25" viewBox="0 0 120 25" fill="none" xmlns="http://www.w3.org/2000/svg">
<path d="M114.917 2.21558H115.103C115.799 2.24691 116.5 2.65324 116.982 3.43824C117.398 4.10258 117.614 5.01691 117.632 5.93024V6.26824C117.607 6.93491 117.525 7.60091 117.357 8.21924C117.18 8.89491 116.93 9.51758 116.664 10.1176C116.189 11.2189 115.689 12.3296 115.439 13.6076C115.316 14.1806 115.283 14.7839 115.259 15.3822C115.072 15.3746 114.883 15.3729 114.696 15.3832C114.698 14.6832 114.625 13.9822 114.468 13.3242C114.148 11.9366 113.561 10.7536 113.05 9.52558C112.629 8.51191 112.332 7.34224 112.336 6.12691C112.319 5.11758 112.555 4.08291 113.032 3.37358C113.525 2.61291 114.229 2.24991 114.917 2.21558Z" fill="white"/>
<path d="M114.477 15.9868C115.222 15.8605 116.016 15.9988 116.662 16.6118C116.935 16.8458 117.164 17.1975 117.326 17.6058C117.592 18.2755 117.647 19.1041 117.551 19.8631C117.465 20.5555 117.198 21.1858 116.827 21.5965C116.131 22.3395 115.24 22.5195 114.415 22.3501C114.034 22.2618 113.656 22.0951 113.322 21.7921C112.827 21.4011 112.464 20.6398 112.373 19.7958C112.28 18.9981 112.357 18.1261 112.669 17.4555C113.078 16.5591 113.793 16.1335 114.477 15.9868Z" fill="white"/>
<path d="M16.8017 3.49283V21.6802H17.9997V22.4368H11.1313V21.6802H12.3148V5.74916H12.285L8.89129 22.4365H8.26616L4.806 5.5425H4.77625V19.2605C4.77625 19.9935 4.8384 20.5802 4.96236 21.0198C5.08633 21.4595 5.37393 21.6795 5.8255 21.6795H6.11575V22.4362H2.97559V21.6795H3.26583C3.89592 21.6795 4.21096 20.8915 4.21096 19.3148V3.49283H3.08005V2.7085H8.60137L10.4767 12.0982L12.3967 2.7085H18.0001V3.49283H16.8017Z" fill="white"/>
<path d="M21.0989 22.4366H18.167V21.6799H18.5164C18.7346 21.6799 18.9319 21.4026 19.1081 20.8476C19.284 20.2926 19.4539 19.6026 19.6179 18.7769L22.7581 2.70825H25.9429L29.7081 21.6799H30.5415V22.4366H23.7779V21.6799H24.8718L23.7928 15.8879H20.7121L20.1019 18.9209C20.0027 19.4059 19.9531 19.8269 19.9531 20.1839C19.9531 20.6966 20.0288 21.0736 20.1802 21.3163C20.3316 21.5586 20.4989 21.6799 20.6827 21.6799H21.0996V22.4366H21.0989ZM23.644 15.0766L22.2377 7.86759L20.8536 15.0766H23.644Z" fill="white"/>
<path d="M44.4313 3.49283V21.6802H45.6293V22.4368H38.7608V21.6802H39.9443V5.74916H39.9146L36.5212 22.4365H35.896L32.4359 5.5425H32.4061V19.2605C32.4061 19.9935 32.4679 20.5802 32.5922 21.0198C32.7162 21.4595 33.0038 21.6795 33.4554 21.6795H33.7456V22.4362H30.6055V21.6795H30.8957C31.5255 21.6795 31.8405 20.8915 31.8405 19.3148V3.49283H30.7096V2.7085H36.2313L38.1066 12.0982L40.0266 2.7085H45.6299V3.49283H44.4313Z" fill="white"/>
<path d="M59.5185 3.49283V21.6802H60.7165V22.4368H53.8484V21.6802H55.0316V5.74916H55.0018L51.6084 22.4365H50.9833L47.5231 5.5425H47.4934V19.2605C47.4934 19.9935 47.5552 20.5802 47.6795 21.0198C47.8035 21.4595 48.0914 21.6795 48.5426 21.6795H48.8329V22.4362H45.6924V21.6795H45.9826C46.6124 21.6795 46.9274 20.8915 46.9274 19.3148V3.49283H45.7965V2.7085H51.3178L53.1932 12.0982L55.1132 2.7085H60.7165V3.49283H59.5185Z" fill="white"/>
<path d="M63.8162 22.4366H60.8843V21.6799H61.234C61.4522 21.6799 61.6496 21.4026 61.8258 20.8476C62.0016 20.2926 62.1719 19.6026 62.3355 18.7769L65.4757 2.70825H68.6605L72.4261 21.6799H73.2595V22.4366H66.4955V21.6799H67.5897L66.5104 15.8879H63.4297L62.8195 18.9209C62.7203 19.4059 62.6707 19.8269 62.6707 20.1839C62.6707 20.6966 62.7468 21.0736 62.8978 21.3163C63.0492 21.5586 63.2165 21.6799 63.4003 21.6799H63.8168L63.8162 22.4366ZM66.3613 15.0766L64.9547 7.86759L63.5709 15.0766H66.3613Z" fill="white"/>
<path d="M91.2085 3.46597V21.6533H92.4141V22.41H85.5011V21.6533H86.6918V5.72197H86.6617L83.2465 22.4096H82.6174L79.1348 5.51564H79.1047V19.234C79.1047 19.967 79.1672 20.5536 79.2921 20.9933C79.4168 21.4333 79.7064 21.653 80.1609 21.653H80.4528V22.4096H77.2925V21.653H77.5844C78.2184 21.653 78.5358 20.865 78.5358 19.2883V3.46597H77.3973V2.68164H82.955L84.8422 12.0713L86.7745 2.68164H92.4141V3.46597H91.2085Z" fill="white"/>
<path d="M99.6253 22.4096H92.54V21.653H93.7086V3.46597H92.54V2.68164H99.6253V3.46597H98.4571V21.6533H99.6253V22.4096Z" fill="white"/>
<path d="M102.743 22.4096H99.7925V21.653H100.144C100.364 21.653 100.562 21.3756 100.74 20.8206C100.917 20.266 101.088 19.576 101.253 18.7503L104.413 2.68164H107.619L111.409 21.653H112.247V22.4096H105.439V21.653H106.54L105.455 15.8613H102.354L101.74 18.8943C101.64 19.3793 101.59 19.8003 101.59 20.1573C101.59 20.6696 101.666 21.047 101.819 21.2893C101.971 21.532 102.139 21.653 102.324 21.653H102.744V22.4096H102.743ZM105.305 15.0496L103.889 7.84097L102.496 15.0496H105.305Z" fill="white"/>
</svg>
