<svg width="120" height="55" viewBox="0 0 120 55" fill="none" xmlns="http://www.w3.org/2000/svg">
<path d="M3.80371 26.7771V26.0767C6.04464 26.0767 7.56637 25.9101 7.56637 24.2087V6.02822C7.43959 4.59387 5.83295 4.59387 4.2263 4.46052V3.75977H11.4989L22.6605 22.641L33.1886 3.75977H39.8691V4.46052C37.6704 4.59387 36.7403 4.79408 36.7403 6.62887V24.2087C36.7403 25.9101 37.8817 26.0767 39.8691 26.0767V26.7775H28.8761V26.0767C31.8777 25.9101 32.3852 25.6763 32.4702 24.2087V6.69574H32.3856L21.3923 26.7775H20.6308L8.79268 6.92919H8.70816V24.2087C8.70816 25.6098 10.2303 26.0767 12.598 26.0767V26.7775L3.80371 26.7771Z" fill="white"/>
<path d="M50.8307 14.7015C50.8307 13.3673 49.7735 12.9673 48.2095 12.9673C46.6874 12.9673 44.4887 13.7009 44.4887 14.5682C44.4887 14.7684 44.5309 14.9686 44.5309 15.3018C44.5309 16.5696 44.1925 17.4701 42.3745 17.4701C41.6139 17.4701 41.106 16.8695 41.106 16.3357C41.106 15.6021 41.7402 14.9014 42.6281 14.3007C44.5305 13.0329 47.5752 11.999 50.0697 11.999C52.6487 11.999 54.044 13.2332 54.044 15.2349V24.1746C54.044 24.7416 54.044 25.7423 55.0164 25.7423C55.6929 25.7423 56.0737 25.0415 56.2004 24.6083H56.8766C56.6653 26.2092 55.8197 27.1434 53.7901 27.1434C52.2257 27.1434 50.9149 26.0094 50.8726 24.8417C48.8856 26.0094 47.5329 27.1434 44.9113 27.1434C42.9662 27.1434 41.1482 25.9093 41.1482 24.3079C41.1482 20.6384 47.4058 19.5047 50.8303 18.3367L50.8307 14.7015ZM50.8307 19.0715C48.9283 19.7386 44.0234 20.8394 44.0234 22.9076C44.0234 24.2755 45.292 25.4095 47.0681 25.4095C48.6747 25.4095 49.6048 24.8421 50.8307 24.1085V19.0715Z" fill="white"/>
<path d="M58.1992 26.7772V26.1433C60.0172 26.0432 60.5673 26.0432 60.5673 24.3085V15.8686C60.5673 14.5676 60.1021 14.5011 58.6222 13.9337V13.6002C60.3979 13.1329 62.0894 12.4325 63.8225 11.8991V14.3009C64.8793 13.3335 66.2324 11.7654 68.0504 11.7654C69.2767 11.7654 70.2917 12.2659 70.2917 13.3002C70.2917 14.0338 69.5729 14.568 68.6851 14.568C68.0085 14.568 67.2897 14.0006 66.1906 14.0006C65.4718 14.0006 63.9074 14.9344 63.9074 15.4682V24.3085C63.9074 26.0432 64.4572 26.0432 66.6136 26.1433V26.7772H58.1992Z" fill="white"/>
<path d="M76.4217 24.3088C76.4217 26.0435 76.9711 26.0435 78.7471 26.1436V26.7775H70.6294V26.1436C72.5319 26.0439 73.0816 26.0439 73.0816 24.3088V7.99638C73.0816 7.16307 73.0816 6.36221 72.4896 5.8949C72.1093 5.62782 71.5599 5.4276 70.6717 5.39436V4.99393C72.659 4.5935 74.5615 3.92638 76.4221 3.45947V24.3088H76.4217Z" fill="white"/>
<path d="M83.0209 17.0033C82.8937 17.6372 82.81 18.2711 82.81 18.9046C82.81 22.4072 85.8112 24.9423 90.2934 24.9423C93.0419 24.9423 95.6209 23.6413 96.6781 21.6399L97.3969 21.8065C96.0439 24.9419 93.1268 27.1439 88.7717 27.1439C83.0635 27.1439 79.5967 24.0746 79.5967 19.5717C79.5967 15.5686 83.402 11.9995 88.6449 11.9995C92.8306 11.9995 96.2125 13.6669 97.1857 17.0033H83.0209ZM92.0687 16.2365C91.9001 14.3348 90.9696 12.7003 88.2215 12.7003C85.4731 12.7003 84.12 14.4013 83.3167 16.2365H92.0687Z" fill="white"/>
<path d="M96.7388 12.3667H105.914V13.0006C105.068 13.0006 102.785 13.0006 102.785 13.9344C102.785 14.0345 102.954 14.4349 103.293 14.9351L109.084 23.4419L112.467 15.7359C112.763 15.002 112.932 14.4349 112.932 14.1014C112.932 13.0006 111.03 13.0338 109.93 13.0006V12.3667H117.075V13.0006C115.046 13.0006 114.496 13.568 113.862 15.0356L107.055 30.4467C106.337 32.0148 105.449 33.9497 103.039 33.9497C102.108 33.9497 101.432 33.3158 101.432 32.6154C101.432 31.8149 102.024 31.2808 103.039 31.2471C103.504 31.2808 103.926 31.4141 104.392 31.4477C105.576 31.5475 106.083 30.5472 106.379 29.8464L107.689 26.544L99.4868 14.7353C98.4303 13.3009 98.7261 13.2677 96.7388 13.0006V12.3667Z" fill="white"/>
<path d="M52.0464 52.3435V51.6427C54.2869 51.6427 55.809 51.4757 55.809 49.7747V31.5946C55.6819 30.1599 54.0752 30.1599 52.469 30.0269V29.3262H59.7415L70.9035 48.207L81.4312 29.3262H88.1114V30.0269C85.9127 30.1599 84.983 30.3605 84.983 32.1949V49.7751C84.983 51.4757 86.1244 51.6427 88.1114 51.6427V52.3435H77.1184V51.6427C80.1204 51.4757 80.6279 51.2423 80.7124 49.7751V32.2614H80.6279L69.6354 52.3431H68.8739L57.0354 32.4948H56.9512V49.7747C56.9512 51.175 58.4734 51.6427 60.8411 51.6427V52.3435H52.0464Z" fill="white"/>
<path d="M91.8064 42.5692C91.6796 43.203 91.5951 43.8365 91.5951 44.4708C91.5951 47.9734 94.5967 50.5085 99.0786 50.5085C101.827 50.5085 104.406 49.2075 105.463 47.2062L106.182 47.3724C104.829 50.5085 101.912 52.7097 97.5565 52.7097C91.8487 52.7097 88.3818 49.6408 88.3818 45.1375C88.3818 41.134 92.1872 37.5649 97.4293 37.5649C101.615 37.5649 104.998 39.2327 105.97 42.5684L91.8064 42.5692ZM100.855 41.8023C100.686 39.9007 99.7555 38.2657 97.0075 38.2657C94.2586 38.2657 92.9064 39.9675 92.103 41.8023H100.855Z" fill="white"/>
<path d="M37.1336 36.0642H46.5199V36.765C43.4757 36.9984 42.0385 37.9991 40.2628 39.8671L35.7387 44.571C37.1759 45.9052 40.5586 50.1418 42.2075 50.9091C42.546 51.0756 42.9682 51.1758 43.3915 51.1758C44.4484 51.1758 45.4208 50.7421 45.9705 50.0413L46.8165 50.4085C45.6751 51.7428 43.8991 52.8099 41.7849 52.8099C37.3453 52.8099 35.6545 49.4743 33.2442 47.1057C30.1999 50.1082 27.4941 52.8099 22.209 52.8099C17.6426 52.8099 14.2603 50.0413 14.2603 46.439C14.2603 42.2357 17.9811 40.0005 22.4203 38.3991C21.0676 37.5658 19.2496 36.1979 19.2496 34.7296C19.2496 33.0618 20.7717 31.7275 22.3361 30.7933C23.6892 29.9928 25.5494 29.0254 27.2828 29.0254C29.8622 29.0254 32.6525 30.326 32.6525 32.5616C32.6525 34.9634 29.0167 36.1975 26.9021 37.4317C29.6928 39.5668 32.6103 41.6687 35.1048 44.0368C36.1616 42.6025 40.0937 39.4002 40.0937 37.899C40.0937 36.8983 37.9796 36.8318 37.134 36.765L37.1336 36.0642ZM17.8961 44.2038C17.8961 47.1726 20.0948 50.1418 24.2382 50.1418C27.9163 50.1418 30.3263 48.5405 32.6517 46.5059C30.1573 43.5034 26.5632 41.2686 23.1809 38.9333C20.2634 40.0005 17.8961 41.468 17.8961 44.2038ZM29.9882 33.4958C29.9882 31.7611 28.0009 30.2267 25.8022 30.2267C23.7307 30.2267 22.2508 31.4276 22.2508 33.0622C22.2508 34.7968 24.703 35.7979 26.0984 36.8655C27.7046 36.2308 29.9882 35.1308 29.9882 33.4958Z" fill="white"/>
</svg>
