<svg width="120" height="56" viewBox="0 0 120 56" fill="none" xmlns="http://www.w3.org/2000/svg">
<path d="M0.0266667 20.8118L0.0666667 40.8421L7.05333 40.8818C12.36 40.9083 14.08 40.8686 14.2267 40.7494C14.4 40.617 14.4267 39.4123 14.4 32.1707C14.3867 27.5504 14.3733 23.6714 14.3867 23.5655C14.4133 23.2345 14.6667 23.6979 14.6667 24.0818C14.6667 24.2671 14.72 24.5849 14.7867 24.8099C15.0133 25.6043 15.4667 27.6033 15.4667 27.8681C15.4667 28.0137 15.5867 28.583 15.7333 29.1258C15.88 29.6686 16.0933 30.5953 16.2 31.1778C16.3067 31.7603 16.4533 32.4487 16.5333 32.7002C16.72 33.2828 17.16 35.2289 17.4 36.5395C17.5067 37.0823 17.7067 38.009 17.8533 38.5915C18 39.174 18.16 39.9154 18.2267 40.2463L18.3333 40.8421H25.8H33.2667L33.4267 40.5111C33.5067 40.3258 33.68 39.6374 33.8 38.9887C33.9333 38.3267 34.1067 37.5324 34.2133 37.2147C34.32 36.8837 34.4 36.4601 34.4 36.2615C34.4 36.0629 34.5467 35.3348 34.7333 34.6199C34.92 33.9182 35.1333 32.9783 35.2 32.5281C35.44 31.0057 35.72 29.6421 35.9867 28.6889C36.12 28.1593 36.28 27.4709 36.3333 27.14C36.4933 26.0147 36.8267 24.6246 36.9467 24.5452C37.0133 24.5054 37.0667 24.2407 37.0667 23.9627C37.0667 23.6846 37.1067 23.3404 37.1733 23.208C37.2267 23.0757 37.2933 26.9943 37.3333 31.9059L37.4 40.8421H44.1333H50.8667V20.8515V0.861L40.24 0.821285C30.2133 0.794807 29.6133 0.808044 29.5467 1.01987C29.52 1.15225 29.44 1.58913 29.4 1.9863C29.3467 2.38346 29.16 3.41608 28.9867 4.26336C28.8133 5.11065 28.6667 6.01088 28.6667 6.26242C28.6667 6.51395 28.5867 7.12294 28.48 7.62601C28.2933 8.49977 27.88 11.0284 27.5867 13.1069C27.5067 13.6497 27.36 14.4572 27.2667 14.8941C27.16 15.331 27.0133 16.1915 26.9467 16.8137C26.8667 17.4359 26.7067 18.4421 26.6 19.0643C26.48 19.6865 26.3333 20.5073 26.2667 20.9045C26.2 21.2884 26.12 21.6459 26.08 21.6723C26 21.7518 25.8933 21.209 25.68 19.5277C25.5733 18.7201 25.4533 17.9787 25.4133 17.8728C25.36 17.7669 25.1867 16.6946 25 15.4898C24.8133 14.2851 24.5467 12.617 24.4 11.783C24.2533 10.9489 24.08 9.78393 24 9.20143C23.92 8.61892 23.7467 7.54658 23.6133 6.81845C23.4667 6.09032 23.2933 5.04445 23.2 4.50166C23.04 3.42932 22.8533 2.40993 22.64 1.41703L22.5067 0.794807H11.2533H0L0.0266667 20.8118Z" fill="white"/>
<path d="M57.0133 1.00622C56.8933 1.32395 56.92 40.5504 57.04 40.749C57.1333 40.8814 58.8533 40.9079 65.2133 40.8814L73.2666 40.8417V20.8511V0.860592L65.1866 0.820873C57.8933 0.794395 57.0933 0.807636 57.0133 1.00622Z" fill="white"/>
<path d="M79.2934 0.874165C79.1734 0.993313 79.1734 40.4051 79.2801 40.6964C79.3601 40.8817 80.5334 40.9082 91.2534 40.9082C105.333 40.9082 106.413 40.842 109.707 39.7961C115.173 38.0883 117.88 34.633 117.867 29.417C117.867 27.5106 117.48 25.9352 116.667 24.4657C115.56 22.4401 112.827 20.7191 110.107 20.3219C109.733 20.269 109.467 20.1498 109.467 20.0571C109.467 19.885 110.027 19.5938 110.373 19.5938C110.787 19.5938 112.373 18.9716 113.147 18.5214C114.2 17.886 115.333 16.6151 115.707 15.6486C116.547 13.4245 116.733 10.2207 116.147 8.00986C115.2 4.47511 112.387 2.23775 107.6 1.21837L105.933 0.860924L92.6534 0.821209C85.3601 0.807968 79.3467 0.834446 79.2934 0.874165ZM99.2667 10.1943C100.533 10.7635 100.973 11.5314 100.96 13.173C100.96 14.8675 100.427 15.8207 99.0801 16.5091C98.8801 16.6283 98.1201 16.6813 96.8001 16.6813C94.8667 16.6813 94.8267 16.6813 94.7467 16.3768C94.7067 16.2179 94.6667 14.7749 94.6667 13.1597C94.6667 11.0151 94.7067 10.2075 94.8401 10.0751C95.0667 9.83681 98.6934 9.94272 99.2667 10.1943ZM99.9334 25.4586C101.24 26.1867 101.867 27.537 101.667 29.2316C101.48 30.7673 100.667 31.8661 99.4134 32.2368C98.5467 32.5016 94.8001 32.5148 94.8001 32.2633C94.7601 28.8609 94.8001 25.3924 94.8801 25.2732C94.9334 25.1673 95.6534 25.1408 97.2534 25.1805C99.0667 25.2203 99.6134 25.2732 99.9334 25.4586Z" fill="white"/>
<path d="M0.173333 45.3693C0.04 45.4222 0 46.4284 0 49.7778C0 53.617 0.0266667 54.1333 0.213333 54.1995C0.333333 54.2392 0.946667 54.279 1.6 54.279C3.12 54.279 3.12 54.2657 3.01333 52.5844C2.97333 51.8827 2.89333 50.6118 2.85333 49.7778C2.81333 48.9437 2.74667 48.2288 2.73333 48.1891C2.70667 48.1494 2.73333 48.0303 2.8 47.9244C2.89333 47.7655 2.93333 47.7787 3 47.9905C3.04 48.1362 3.22667 48.5333 3.41333 48.8643C3.58667 49.2085 3.73333 49.6057 3.73333 49.7513C3.73333 49.9102 3.78667 50.0558 3.85333 50.0955C3.90667 50.1352 4.06667 50.453 4.2 50.7972C4.33333 51.1414 4.58667 51.7371 4.76 52.121C4.92 52.4917 5.06667 52.8624 5.06667 52.9286C5.06667 52.9948 5.2 53.3125 5.37333 53.6303L5.69333 54.2128L6.89333 54.2525C7.74667 54.279 8.13333 54.2392 8.22667 54.1201C8.30667 54.0274 8.64 53.2596 8.97333 52.4255C9.30667 51.5915 9.73333 50.5986 9.90667 50.2411C10.08 49.8705 10.36 49.2085 10.5333 48.7452C10.72 48.2288 10.88 47.9508 10.96 48.0303C11.04 48.1097 11.0267 49.2615 10.9333 51.0222C10.8133 53.2463 10.8133 53.948 10.9467 54.0936C11.1467 54.3319 13.4667 54.3584 13.7067 54.1201C13.8267 54.0009 13.8667 52.8624 13.8667 49.8307C13.8667 46.243 13.84 45.6605 13.6533 45.4884C13.48 45.3163 13.08 45.2766 11.3467 45.2766C9.32 45.2766 9.24 45.2898 8.96 45.5811C8.8 45.7532 8.66667 45.9915 8.66667 46.1239C8.66667 46.243 8.58667 46.5078 8.48 46.7064C8.38667 46.905 8.10667 47.6596 7.86667 48.3877C7.37333 49.8969 7.08 50.5721 6.93333 50.5721C6.78667 50.5721 6.36 49.6454 6.06667 48.7187C5.93333 48.3215 5.65333 47.6066 5.45333 47.1433C5.24 46.6799 5.06667 46.1901 5.06667 46.0577C5.06667 45.9121 4.94667 45.687 4.8 45.5414C4.56 45.3031 4.36 45.2766 2.44 45.2898C1.28 45.2898 0.253333 45.3296 0.173333 45.3693Z" fill="white"/>
<path d="M15.7068 45.4224C15.4801 45.5416 15.4668 45.899 15.4668 49.778C15.4668 53.8423 15.4801 54.0144 15.7335 54.1468C15.8935 54.2394 17.3068 54.2659 19.7601 54.2527L23.5335 54.2129L23.5735 53.3789C23.6001 52.9155 23.5468 52.4654 23.4801 52.3728C23.3735 52.2536 22.7201 52.2007 21.0935 52.2007C19.8535 52.2007 18.7735 52.1609 18.6801 52.108C18.4668 51.9756 18.4935 50.9033 18.7201 50.7179C18.8401 50.612 19.5601 50.5723 20.9068 50.5855C22.0135 50.5855 22.9868 50.559 23.0535 50.5061C23.1335 50.4664 23.2001 50.0957 23.2001 49.6985V48.9836H21.0935C18.6135 48.9836 18.4935 48.9439 18.5601 48.0569L18.6001 47.4612L20.9601 47.395C22.2535 47.3553 23.3468 47.3023 23.3868 47.2626C23.4135 47.2229 23.4668 46.8125 23.4801 46.3491C23.5068 45.7534 23.4535 45.4886 23.3201 45.3959C23.0535 45.2371 15.9868 45.2503 15.7068 45.4224Z" fill="white"/>
<path d="M25.4402 45.422C25.2135 45.5412 25.2002 45.8986 25.2002 49.7511C25.2002 52.849 25.2402 54.0008 25.3602 54.1199C25.5869 54.345 27.9469 54.3317 28.0935 54.1067C28.2002 53.9346 28.1735 49.301 28.0535 48.3213L27.9735 47.7256L28.3202 48.1227C28.5069 48.3346 28.6535 48.5993 28.6669 48.6788C28.6669 48.7714 28.8135 49.1289 29.0002 49.4731C29.4935 50.4395 30.4935 52.5842 30.6002 52.9549C30.6535 53.1402 30.8535 53.5109 31.0269 53.7757L31.3335 54.2788H33.5869C34.8269 54.2788 35.9335 54.2391 36.0535 54.1993C36.2402 54.1331 36.2669 53.6168 36.2669 49.857C36.2669 46.7194 36.2269 45.5544 36.1069 45.4353C35.9202 45.2499 33.7735 45.2102 33.4935 45.3956C33.3469 45.4882 33.3202 46.1104 33.3469 48.5596C33.3735 50.2409 33.3602 51.6443 33.3202 51.6972C33.2402 51.7634 31.8669 49.0892 31.8669 48.8641C31.8669 48.7714 31.0535 47.0239 30.4402 45.806L30.2002 45.3426L27.9335 45.3161C26.5602 45.2896 25.5735 45.3294 25.4402 45.422Z" fill="white"/>
<path d="M43.4932 45.4358C43.2666 45.6609 43.2666 53.8954 43.4932 54.1204C43.7066 54.3323 46.0266 54.3323 46.2399 54.1204C46.3599 54.0013 46.3999 52.8495 46.3999 49.7516C46.3999 45.7403 46.3866 45.5417 46.1466 45.4093C45.7732 45.224 43.6932 45.2372 43.4932 45.4358Z" fill="white"/>
<path d="M48.1733 45.4226C48.04 45.555 48 46.6273 48 49.8576C48 53.6174 48.0267 54.1337 48.2133 54.1999C48.3333 54.2396 48.92 54.2793 49.5333 54.2793C50.3467 54.2793 50.68 54.2264 50.8 54.0807C50.92 53.9351 50.9467 53.432 50.88 52.1346C50.7333 48.8779 50.7333 47.885 50.8667 47.832C50.9467 47.8188 51.16 48.163 51.3467 48.6264C51.7733 49.606 53.32 52.9422 53.48 53.2202C53.5467 53.3261 53.6667 53.5644 53.7467 53.7498C53.8133 53.9219 53.96 54.1204 54.04 54.1734C54.32 54.3455 58.5867 54.3058 58.7733 54.1204C58.8933 54.0013 58.9333 52.8495 58.9333 49.7517C58.9333 44.8798 59.08 45.2769 57.36 45.2769C56.6133 45.2769 56.2533 45.3299 56.1467 45.4623C56.04 45.5947 56.0133 46.3758 56.0667 48.2027C56.1067 49.6193 56.1733 50.9564 56.2133 51.1947C56.28 51.658 56.0533 51.9228 55.9067 51.5389C55.8533 51.4065 55.6933 51.0888 55.5333 50.8372C55.3867 50.5857 54.9333 49.659 54.5467 48.7852C53.3867 46.1904 53.04 45.4755 52.9067 45.3961C52.8267 45.3431 51.7733 45.3034 50.5467 45.2902C48.9333 45.2637 48.2933 45.3034 48.1733 45.4226Z" fill="white"/>
<path d="M65.6401 45.3561C65.5068 45.409 65.4668 46.4284 65.4668 49.7778C65.4668 53.617 65.4935 54.1334 65.6801 54.1996C66.0401 54.3319 71.7468 54.279 72.6668 54.1334C73.7601 53.9613 74.2668 53.67 74.5868 53.0478C75.0935 52.0019 74.7868 50.1485 74.0535 49.9631C73.4935 49.8175 73.4135 49.566 73.8801 49.3806C74.4001 49.1556 74.6668 48.5731 74.6668 47.6331C74.6668 46.6667 74.3335 46.0842 73.5201 45.6738C72.8801 45.3428 72.8268 45.3428 69.3335 45.3163C67.3868 45.3031 65.7201 45.3163 65.6401 45.3561ZM71.6268 47.7258C71.8135 48.123 71.6001 48.679 71.2135 48.8246C71.0668 48.8776 70.4001 48.8908 69.7068 48.8511L68.4668 48.7849L68.4268 48.2686C68.3468 47.4081 68.3601 47.3948 70.0001 47.3948C71.4401 47.3948 71.4801 47.4081 71.6268 47.7258ZM71.5201 50.7045C72.1468 50.9296 71.8935 52.1211 71.2268 52.174C70.3468 52.2402 68.9068 52.227 68.6801 52.1343C68.4535 52.0549 68.4001 51.9225 68.4001 51.3929C68.4001 51.0355 68.4401 50.7045 68.4935 50.6648C68.6268 50.5192 71.1468 50.5589 71.5201 50.7045Z" fill="white"/>
<path d="M76.1067 45.4226C75.88 45.5417 75.8667 45.8992 75.8667 49.8311C75.8667 53.6174 75.8934 54.1337 76.08 54.1999C76.2 54.2396 77.8267 54.2793 79.72 54.2793C82.2134 54.2793 83.1867 54.2396 83.3067 54.1204C83.4 54.0278 83.4667 53.6041 83.4667 53.1275C83.4667 52.4523 83.4267 52.2802 83.2134 52.1611C83.0667 52.0949 82.08 52.0287 80.96 52.0287C79 52.0287 78.96 52.0287 78.88 51.7242C78.84 51.5653 78.8 50.0826 78.8 48.441C78.8 45.8197 78.7734 45.4226 78.5867 45.3564C78.24 45.224 76.3467 45.2769 76.1067 45.4226Z" fill="white"/>
<path d="M87.5068 45.383C87.2935 45.5154 86.9201 46.4157 86.0535 48.8516C85.6401 49.9769 85.1335 51.314 84.9201 51.8171C84.7068 52.3201 84.5335 52.81 84.5335 52.9027C84.5335 52.9953 84.4268 53.2866 84.3068 53.5514C84.1068 53.9618 84.1068 54.0412 84.2668 54.1471C84.5068 54.2927 86.8001 54.3192 87.0268 54.1736C87.1068 54.1206 87.2935 53.7764 87.4268 53.419L87.6801 52.757L89.4935 52.7173L91.3068 52.6776L91.5735 53.0483C91.7201 53.2601 91.8801 53.5514 91.9335 53.7235C91.9735 53.8956 92.1735 54.0809 92.3601 54.1603C92.8001 54.3192 94.7068 54.3192 94.8935 54.1339C95.0268 54.0015 94.4135 51.9892 94.1335 51.7112C94.0668 51.645 94.0001 51.4596 94.0001 51.3008C94.0001 51.1551 93.9068 50.8639 93.8001 50.6653C93.6935 50.4667 93.5468 50.1093 93.4801 49.871C93.2668 49.1164 92.6401 47.4615 92.5335 47.3291C92.4801 47.2497 92.3335 46.8525 92.2001 46.4289C91.8535 45.3301 91.7468 45.2771 89.5335 45.2771C88.5068 45.2771 87.6001 45.3301 87.5068 45.383ZM90.1468 48.7854C90.2001 48.9972 90.3868 49.5268 90.5468 49.9504C90.7068 50.3608 90.8001 50.758 90.7468 50.8109C90.6135 50.9433 88.5868 50.9301 88.4535 50.7977C88.3868 50.7447 88.4268 50.5064 88.5201 50.2681C88.6135 50.0298 88.8535 49.3944 89.0535 48.8516C89.5468 47.4483 89.6135 47.3688 89.8401 47.9249C89.9468 48.1764 90.0801 48.5603 90.1468 48.7854Z" fill="white"/>
<path d="M97.2536 45.5416C95.5069 46.0976 95.0669 46.9714 95.0669 49.9104C95.0669 51.9624 95.2536 52.7038 95.9602 53.3657C96.7469 54.1071 97.6002 54.3057 100.094 54.3057C101.88 54.3057 102.294 54.2659 102.854 54.0541C104.027 53.5775 104.667 52.7038 104.667 51.552C104.667 50.9165 104.454 50.8239 103.054 50.8636L101.8 50.9033L101.547 51.4593C101.36 51.8697 101.2 52.0154 100.894 52.0816C100.214 52.2139 99.2136 52.1742 98.7469 51.9756C98.3869 51.83 98.2802 51.6844 98.1469 51.1946C97.9602 50.4135 97.9602 49.0896 98.1602 48.4276C98.3869 47.6466 98.8002 47.395 99.8136 47.395C100.894 47.395 101.227 47.5274 101.574 48.1099L101.854 48.5865H103.187C104.414 48.5865 104.52 48.56 104.6 48.3085C104.814 47.6598 104.334 46.3624 103.707 45.899C103.027 45.396 102.374 45.2768 100.134 45.2901C98.4802 45.2901 97.9069 45.343 97.2536 45.5416Z" fill="white"/>
<path d="M106.28 45.3961C106.134 45.4888 106.107 46.2963 106.12 49.7649C106.12 52.1081 106.16 54.0807 106.187 54.1337C106.267 54.2661 108.694 54.2925 108.907 54.1601C109 54.1072 109.067 53.5114 109.094 52.4921L109.134 50.9034L109.467 50.8637C109.814 50.824 110.427 51.3932 112.334 53.5247L113 54.2793H114.574C115.854 54.2793 116.16 54.2396 116.214 54.0807C116.267 53.9483 115.934 53.485 115.254 52.7568C113.494 50.8637 112.534 49.7781 112.534 49.6722C112.534 49.5795 113.134 48.8911 115.12 46.6802C116.267 45.4093 116.24 45.3564 114.534 45.3034C113.76 45.2769 113.014 45.3034 112.854 45.3299C112.694 45.3696 112.347 45.6873 112.08 46.0315C111.814 46.3758 111.334 46.9318 111.014 47.2627C110.707 47.5937 110.334 48.0306 110.2 48.2292C110.014 48.5204 109.88 48.5866 109.547 48.5601L109.134 48.5204L109.094 47.0774C109.08 46.2698 108.987 45.5417 108.907 45.449C108.747 45.2505 106.587 45.2107 106.28 45.3961Z" fill="white"/>
</svg>
