<svg width="120" height="40" viewBox="0 0 120 40" fill="none" xmlns="http://www.w3.org/2000/svg">
<g clip-path="url(#clip0_2246_1893)">
<path d="M0.99058 38.8967C1.092 38.2978 1.18744 33.3425 1.20267 27.885C1.22775 18.8586 1.18679 17.8799 0.748094 17.0527C0.460578 16.5107 0.364737 16.0448 0.510813 15.8991C0.647005 15.7633 3.51533 15.687 6.96789 15.7274L13.18 15.8002L15.3679 22.27C16.5712 25.8284 17.6687 28.7774 17.8067 28.8233C17.9448 28.8692 18.688 27.113 19.4584 24.9206C20.2287 22.7283 21.2721 19.7793 21.777 18.3674L22.6951 15.8002H28.7738H34.8526L34.7171 16.746C34.4824 18.3847 34.5704 38.4633 34.8157 39.2484L35.0498 39.9975L29.8039 39.924C24.7235 39.8528 24.5614 39.8335 24.6619 39.31C24.719 39.0128 24.82 35.1519 24.8863 30.7303C25.0035 22.9146 24.878 21.5577 24.2118 23.4341C24.0667 23.8429 22.7609 27.5214 21.31 31.6085C19.8591 35.6957 18.5577 39.2563 18.418 39.5209C18.1922 39.9486 17.7993 39.9936 14.8792 39.9263L11.5945 39.8505L8.72999 31.4275C7.15454 26.7949 5.76888 22.9085 5.65072 22.7911C5.3689 22.5111 5.55535 38.5863 5.84308 39.3776C6.06268 39.9815 6.04644 39.9856 3.43517 39.9856H0.806144L0.99058 38.8967ZM36.2748 39.7994C36.0141 39.7314 35.8007 39.6376 35.8007 39.591C35.8007 39.5443 36.343 38.4892 37.0057 37.2462C37.6684 36.0033 39.3239 32.6151 40.6846 29.7169C42.0452 26.8188 43.8802 22.9845 44.7623 21.1964C46.3696 17.9381 46.6 17.1923 46.0952 16.8811C45.9462 16.7893 45.8243 16.4781 45.8243 16.1896C45.8243 15.6884 46.0563 15.6653 51.0393 15.6692C53.9075 15.6724 56.4043 15.7685 56.5878 15.8847C56.9418 16.1091 57.3075 16.9595 62.071 28.6361C63.7384 32.7233 65.5194 36.8537 66.0288 37.8149C66.5382 38.7761 66.955 39.6602 66.955 39.7795C66.955 39.8988 64.3666 39.9635 61.2029 39.9234L55.4507 39.8505L55.4146 38.4994C55.3792 37.1706 54.2413 34.1161 53.6448 33.7483C53.4263 33.6136 44.6406 33.6092 43.5778 33.7429C43.4597 33.7577 43.0027 34.53 42.5621 35.4589C41.9916 36.6618 41.7611 37.5561 41.7609 38.5665L41.7607 39.9852L39.2548 39.9538C37.8766 39.9365 36.5356 39.8669 36.2748 39.7989L36.2748 39.7994ZM51.6814 29.24C52.0265 29.0142 49.2919 22.2409 48.8994 22.3494C48.5181 22.4549 45.7778 28.6659 45.9337 29.0711C46.0436 29.3567 46.7131 29.4457 48.7281 29.4426C50.1855 29.4394 51.5145 29.3491 51.6814 29.24ZM67.6709 39.7989C67.6024 39.7306 67.6571 39.2895 67.7925 38.8186C67.9279 38.3477 68.0387 33.4888 68.0387 28.0211C68.0387 19.8154 67.968 17.9112 67.6341 17.1139C67.4116 16.5827 67.2969 16.0394 67.3792 15.9066C67.6074 15.5383 88.6673 15.5993 90.1533 15.9725C91.7519 16.374 93.0912 17.6492 93.4984 19.1575C93.7942 20.2534 93.6969 25.8136 93.3529 27.4736C93.235 28.0423 92.6192 28.5017 90.998 29.2304C90.5883 29.4145 90.2542 29.6906 90.2555 29.8438C90.2575 29.997 91.2931 32.234 92.5582 34.8151C93.8233 37.3961 94.8585 39.6154 94.8585 39.7467C94.8585 40.1429 84.68 40.0471 84.3576 39.6479C84.2076 39.462 83.2576 37.3036 82.2465 34.8513C81.2354 32.3989 80.2921 30.2405 80.1502 30.0547C80.0083 29.869 79.4326 29.7169 78.8708 29.7169C78.2892 29.7169 77.8048 29.8625 77.7461 30.0547C77.6193 30.4697 77.9196 38.882 78.0813 39.4452C78.1816 39.7945 77.4796 39.8555 72.9965 39.8868C70.1359 39.9067 67.7393 39.8668 67.6709 39.7989ZM83.6971 25.069C83.89 24.8767 84.0222 23.9504 84.0222 22.7914C84.0222 20.1068 83.8731 19.9888 80.481 19.9888H77.7913V22.691V25.3933H80.5817C82.3907 25.3933 83.4863 25.2793 83.6971 25.069ZM96.9005 39.646C96.8418 39.4612 96.6564 38.4715 96.4886 37.4467C96.129 35.251 96.337 34.8275 97.4925 35.4024C98.0395 35.6745 99.8044 35.804 103.959 35.8771C109.002 35.9657 109.727 35.925 110.123 35.5302C110.753 34.9018 110.696 33.3548 110.019 32.6788C109.494 32.1555 109.195 32.1317 104.08 32.206C98.992 32.2798 98.6507 32.2531 97.9272 31.7245C96.4073 30.614 96.2139 29.7993 96.2134 24.5064C96.2131 21.0187 96.3155 19.4627 96.587 18.8316C97.0429 17.7718 98.5149 16.3409 99.5492 15.9519C100.032 15.7702 103.684 15.665 109.512 15.665H118.712L118.956 16.3063C119.279 17.1523 119.634 20.7994 119.394 20.7994C119.291 20.7994 118.635 20.6199 117.936 20.4007C117.028 20.1154 115.067 19.9808 111.045 19.9278L105.423 19.8536L105.424 21.1179C105.424 23.1798 105.558 23.2312 110.929 23.233C116.181 23.2354 117.355 23.4585 118.594 24.6943C119.922 26.0196 120.146 27.2894 119.926 32.2535C119.822 34.6146 119.673 36.7113 119.596 36.9128C119.518 37.1143 118.635 37.8226 117.634 38.4867L115.813 39.6942L106.41 39.8381C99.0499 39.9508 96.9842 39.909 96.9005 39.646ZM0.461924 13.2565C0.367452 13.104 0.257991 10.3915 0.218791 7.2287C0.179711 4.06583 0.0930176 1.23494 0.0265176 0.93767C-0.0870064 0.430221 0.0645983 0.392541 2.51242 0.320251L5.11932 0.243357L5.81993 1.94167C6.20531 2.87574 6.98386 4.7952 7.55017 6.20712C8.11643 7.61907 8.70053 8.74547 8.84808 8.71021C9.13247 8.6424 11.8768 1.93117 12.015 0.965554C12.09 0.441275 12.291 0.391134 14.6071 0.319374L17.1178 0.241725L17.0453 6.80492L16.9727 13.3681L15.6362 13.4525C12.915 13.6244 13.0446 13.8607 13.0446 8.7241C13.0446 6.24984 12.9707 4.29919 12.8803 4.38917C12.79 4.47934 11.9055 6.53645 10.9146 8.96061L9.11304 13.3681L7.8719 13.4487C7.09558 13.4991 6.52199 13.3979 6.34023 13.1785C6.18045 12.9856 5.41617 11.2469 4.64192 9.31475C3.86766 7.38259 3.09479 5.49776 2.92442 5.12623C2.67198 4.57572 2.5896 5.27594 2.47919 8.90939L2.34374 13.3681L1.48875 13.451C1.01844 13.4965 0.556372 13.409 0.461924 13.2565ZM19.6909 13.1779C19.6255 12.9853 19.5357 10.0004 19.4914 6.54478L19.4109 0.261841L21.5152 0.261963L23.6196 0.262121L23.547 6.81513L23.4745 13.3681L21.6421 13.4481C20.3254 13.5056 19.7763 13.4295 19.6909 13.1779ZM26.1158 13.203C25.9296 13.0115 25.7772 12.5043 25.7772 12.076V11.2972L29.4961 11.3856L33.215 11.474L33.4727 10.7431C33.6475 10.2473 33.6295 9.79122 33.4169 9.32566C33.1084 8.65043 33.0532 8.63914 30.0498 8.63063C25.9793 8.61918 25.5063 8.22983 25.5063 4.89135C25.5063 2.66025 25.7775 1.82484 26.7905 0.935587C27.519 0.296034 27.6566 0.279008 32.1796 0.270705C36.7674 0.261847 36.8231 0.268311 36.9845 0.870115C37.4531 2.61418 37.517 2.58364 33.4303 2.57079L29.7053 2.55906V3.63996V4.72084L32.8208 4.85594C34.5343 4.9303 36.101 5.09716 36.3025 5.22672C36.9688 5.65544 37.4262 7.2446 37.4262 9.13063C37.4262 11.3291 37.0462 12.5833 36.2463 13.0245C35.3756 13.505 26.5604 13.6603 26.1158 13.203ZM39.7114 13.1521C39.4975 13.0333 39.3225 12.5918 39.3225 12.1711V11.4062L43.0475 11.4413L46.7725 11.4764V10.1253V8.7741L43.7925 8.7052C42.1535 8.6675 40.5517 8.50192 40.2329 8.33774C39.3533 7.88468 39.0507 6.92969 39.0612 4.64037C39.0715 2.41015 39.3259 1.70342 40.4289 0.840806C41.0592 0.347829 41.5667 0.288164 45.5265 0.241677C48.2362 0.209797 50.0306 0.29612 50.2015 0.466612C50.354 0.618778 50.4983 1.14108 50.522 1.62726L50.5652 2.51124L46.9157 2.53502L43.2662 2.55877L43.0087 3.28571C42.5387 4.6123 43.0662 4.85563 46.4116 4.85563C49.2028 4.85563 49.409 4.89353 50.0446 5.52788C50.6928 6.17448 50.7155 6.31453 50.6418 9.21503C50.5668 12.1676 50.5494 12.2418 49.8032 12.7968C49.1019 13.3184 48.6857 13.3637 44.5708 13.3657C42.112 13.3673 39.9253 13.2709 39.7114 13.1521ZM53.0071 13.1642C52.9447 12.9791 52.8573 10.0018 52.813 6.54779C52.7484 1.51078 52.8038 0.240511 53.0932 0.129873C53.5841 -0.057776 55.5734 -0.0378432 56.3219 0.162274L56.9315 0.325231V6.77916C56.9315 10.3288 56.8401 13.2423 56.7283 13.2537C54.4158 13.4876 53.1057 13.4561 53.0071 13.1642ZM60.5493 13.2855C60.2296 13.24 59.742 12.9537 59.4657 12.6491C59.0148 12.1522 58.9633 11.5862 58.9633 7.12907V2.16266L59.9587 1.16983L60.9541 0.176922L64.219 0.0527226C68.4363 -0.107626 69.6889 0.086037 70.7348 1.06069L71.5605 1.83013V6.85603C71.5605 13.5403 71.92 13.1766 65.1941 13.2961C62.9592 13.3355 60.869 13.3307 60.5493 13.2855ZM67.6033 11.1841C67.9336 10.3257 67.7826 3.35808 67.4232 2.86774C67.1386 2.47954 66.7258 2.41168 65.0527 2.47831L63.0269 2.55891V6.88257V11.2062L64.5169 11.3648C67.1532 11.6455 67.4321 11.6292 67.6033 11.1841ZM99.8082 13.3005L98.1207 13.2075L98.0473 7.88321L97.9739 2.55894H96.213H94.4521L94.5461 1.61321C94.5978 1.09297 94.7807 0.578002 94.9525 0.468852C95.1243 0.359627 97.4868 0.268414 100.203 0.266163L105.14 0.261622L105.575 0.923935C106.394 2.17 106.035 2.5586 104.065 2.5586H102.308L102.173 7.94096C102.09 11.2231 101.932 13.337 101.767 13.3583C101.618 13.3775 100.736 13.3508 99.8082 13.3001V13.3005ZM73.8928 13.0106C73.817 12.8883 73.7359 10.0154 73.7125 6.62638C73.6786 1.69842 73.7437 0.418062 74.0375 0.232325C74.4469 -0.0264128 77.085 -0.0833938 77.9268 0.148332C78.2617 0.240548 79.4826 1.93329 81.1247 4.58258C82.5856 6.93935 83.9699 9.02411 84.2008 9.21535C84.5781 9.52758 84.6111 9.09061 84.5247 4.92478L84.4285 0.28651L85.0611 0.128277C85.409 0.0412002 85.9293 0.0445898 86.2173 0.136168C86.7182 0.294749 86.7378 0.579738 86.6684 6.70018L86.5958 13.0983H84.1938H81.7918L79.153 8.96182C77.7017 6.68682 76.3749 4.68647 76.2046 4.51662C75.9724 4.28499 75.895 5.33594 75.895 8.72059V13.2334H74.9628C74.4501 13.2334 73.9686 13.1333 73.8928 13.011V13.0106ZM107.331 12.6416C106.817 12.0916 106.778 11.7078 106.778 7.16204C106.778 0.384403 106.891 0.262072 113.145 0.262072C119.223 0.262072 119.511 0.561491 119.511 6.88263C119.511 11.29 119.211 12.5116 118.016 12.9645C117.627 13.1122 115.188 13.233 112.596 13.233C108.097 13.233 107.858 13.2063 107.331 12.6416ZM115.387 7.32436C115.438 4.49218 115.363 3.05318 115.151 2.79801C114.937 2.54171 114.215 2.42384 112.859 2.42384C110.525 2.42384 110.565 2.36513 110.704 5.53147C110.755 6.72047 110.808 8.50566 110.82 9.49851C110.845 11.5726 110.85 11.5763 113.687 11.5128L115.312 11.4767L115.387 7.32436Z" fill="white"/>
</g>
<defs>
<clipPath id="clip0_2246_1893">
<rect width="120" height="40" fill="white"/>
</clipPath>
</defs>
</svg>
