<svg width="120" height="30" viewBox="0 0 120 30" fill="none" xmlns="http://www.w3.org/2000/svg">
<g clip-path="url(#clip0_2246_1538)">
<path d="M25.3214 0.828439C28.0289 2.03697 28.0443 4.59527 29.1892 7.37331C29.7926 8.81727 30.7363 10.4966 31.3397 11.9563C32.7011 15.1895 33.3819 18.768 34.5577 21.9855C34.9135 23.5864 35.2693 25.1873 35.6252 26.7882C35.8882 27.2905 37.3734 28.2792 36.9093 28.7501C35.5787 29.7703 31.5099 28.4676 30.6744 28.0909C30.3805 27.3218 29.839 26.647 29.6069 25.9093C29.4677 24.8263 29.313 23.7277 29.1737 22.6447C28.5549 20.62 27.3791 18.1716 26.5901 16.3195C25.7082 14.2321 25.3524 11.972 24.4396 9.9944C24.0373 10.1357 24.2385 10.0101 24.0064 10.2141C22.7996 11.5011 23.0627 13.6671 22.2891 15.4406C20.742 19.0348 19.7519 23.4765 18.8545 27.6514C18.5296 27.777 18.4987 27.8084 17.9882 27.8712C17.1991 26.286 15.652 25.0774 14.9868 23.2882C14.9094 22.629 14.8475 21.9855 14.7702 21.3263C14.6309 21.2478 14.4762 21.185 14.337 21.1066C13.9347 20.4003 14.043 19.7411 13.6872 18.9249C13.4551 18.3913 12.8363 17.7164 12.6197 17.1828C12.5423 16.5236 12.4805 15.8801 12.4031 15.2209C12.0318 13.9339 11.4284 12.6312 10.9024 11.5168C10.7632 11.5168 10.6085 11.5168 10.4692 11.5168C9.81943 12.5998 9.18512 13.6985 8.53533 14.7814C7.34406 17.5281 6.53957 20.5572 5.53395 23.2882C5.24 24.0573 4.09514 28.5304 3.81666 28.7344C2.95028 28.7344 2.09937 28.7344 1.23299 28.7344C1.00093 28.5304 1.20205 28.6559 0.799805 28.5147C0.799805 28.3734 0.799805 28.2165 0.799805 28.0752C4.60568 25.1716 4.46645 18.5326 6.16826 13.463C7.73084 8.81727 10.6085 5.50559 12.6197 1.25221C13.0219 1.39346 12.8208 1.2679 13.0529 1.47194C14.0894 2.79033 13.9347 5.4899 14.5536 7.13789C14.863 7.93834 15.5283 8.98991 15.8377 9.75898C16.2863 10.8576 16.1626 12.2074 16.7041 13.2433C17.3384 14.4832 18.4059 15.629 19.0711 16.9474C19.2722 16.7119 19.1485 16.916 19.2877 16.5079C20.4326 15.2837 20.5718 12.9922 21.2216 11.2814C22.5057 7.90695 23.6196 3.98316 25.306 0.812744L25.3214 0.828439Z" fill="white"/>
<path d="M79.4702 7.7971C83.044 7.78141 85.7669 8.25226 87.8555 9.759C88.6446 10.7007 89.4336 11.6424 90.2226 12.5998C91.089 13.4003 91.9399 14.2007 92.8063 15.0012C93.6108 16.1312 94.7556 18.9093 96.0242 19.3644C96.1016 18.0931 96.411 16.7119 96.674 15.6604C96.8906 14.7814 96.5812 13.3689 96.4574 12.8195C95.9778 10.7635 96.5967 8.07962 96.674 6.27467C97.2155 5.96077 97.3548 5.74104 98.1747 5.61548C98.1747 5.75673 98.1747 5.91369 98.1747 6.05494C98.9328 7.10652 98.1747 9.94734 98.1747 11.5012C98.1747 16.5707 98.283 23.194 96.674 26.7568C96.5967 26.7568 96.5348 26.7568 96.4574 26.7568C96.4574 26.6784 96.4574 26.6156 96.4574 26.5371C95.622 25.7523 95.4209 24.6694 94.7401 23.6963C94.3843 23.194 91.5686 20.3218 91.089 19.9922C89.8049 19.1133 88.0876 19.0662 86.788 18.2501C85.9526 17.7164 85.6586 16.9317 84.421 16.7276C84.421 16.8061 84.421 16.8689 84.421 16.9474C84.3436 16.9474 84.2817 16.9474 84.2044 16.9474C84.0651 20.573 83.9104 24.2142 83.7712 27.8398C83.4308 27.9654 83.2606 28.0281 82.7037 28.0595C82.4716 27.8712 82.518 27.9183 82.0539 27.8398C81.8373 27.0707 81.6207 26.6313 81.6207 25.4384C82.0694 24.7949 81.8373 22.9743 81.8373 21.9541C81.8373 18.3285 81.8373 14.6873 81.8373 11.0617C81.3422 9.71191 79.7951 9.90025 79.4702 7.7971Z" fill="white"/>
<path d="M44.8769 5.83526C51.9936 5.6783 55.0878 7.54603 57.5477 12.1604C58.3522 13.6671 59.7137 15.425 58.6152 17.8263C57.3002 20.7143 55.0105 22.786 51.7461 23.712C50.5239 24.0573 48.9768 23.5237 48.3115 23.2726C45.3565 22.1582 43.7166 22.0326 43.794 17.8263C44.5675 17.0102 44.5211 15.6133 45.7279 15.2053C46.1765 14.7972 46.7799 14.7658 47.6617 14.7658C47.8783 14.9855 48.0021 14.7815 48.3115 14.9855C49.3171 15.6447 49.0232 16.7905 50.6786 16.9474C50.7559 16.7277 50.8178 16.508 50.8952 16.2882C51.1118 16.0057 51.0963 15.7546 51.1118 15.2053C50.2609 14.1537 50.2145 12.8353 48.7447 12.3644C47.6927 11.4227 45.5731 12.1133 44.6603 12.5842C44.2272 12.7254 43.794 12.8824 43.3763 13.0236C42.2778 13.777 40.4368 18.0147 41.2258 20.6515C42.3706 24.5282 47.1667 27.4475 51.9627 25.0147C53.4634 24.2457 54.2988 22.99 56.4802 22.8331C56.4802 22.9116 56.4802 22.9744 56.4802 23.0528C55.8769 23.4609 55.8305 23.7748 55.4127 24.3555C54.9486 24.999 52.0555 27.2434 51.3284 27.6201C50.5394 28.0282 49.905 27.8085 48.9613 28.0596C43.6238 29.4721 38.0078 25.6739 36.7082 22.1739C35.5788 19.0977 37.5127 16.5393 38.8587 15.2053C41.9993 12.0662 44.0415 9.36666 50.462 10.842C51.0499 11.7366 54.2369 15.1111 52.6125 17.3869C52.2566 18.6739 51.3438 19.1918 49.6111 19.129C48.9458 18.4542 47.6463 18.0775 46.3931 18.0461C46.2229 18.5326 46.1765 19.2232 46.1765 20.008C46.718 20.416 47.4297 21.2322 47.8938 21.7501C50.8024 21.86 53.6954 21.2636 54.3452 19.129C55.8923 17.6066 54.5618 13.4003 54.1286 11.7209C52.9683 11.1245 52.2412 9.79043 51.1273 9.31958C47.6463 7.89132 40.7926 9.27249 39.3074 11.2815C38.5029 12.3644 37.4199 16.6806 36.5071 17.1672C36.5071 16.2882 36.5071 15.425 36.5071 14.5461C36.832 14.0909 36.7082 13.4003 36.9403 12.8039C37.4354 11.7837 37.9459 10.7635 38.441 9.75904C39.4466 8.33078 41.5043 7.23212 43.1751 6.49445C43.8713 6.19624 44.3973 6.27472 44.8924 5.83526H44.8769Z" fill="white"/>
<path d="M68.0836 12.5999C65.9331 16.0999 63.829 16.5394 63.7826 22.6291C64.1075 22.7547 64.1384 22.7861 64.649 22.8488C66.258 21.5305 70.6827 20.5103 70.8838 18.0461C70.0948 16.304 69.3058 14.5618 68.5167 12.8196C68.2847 12.6156 68.4858 12.7412 68.0836 12.5999ZM74.7516 26.7726C74.8289 26.3332 74.8908 25.8937 74.9682 25.4699C74.9063 25.2659 74.4112 24.9677 74.3184 24.8107C73.6222 23.6493 73.5448 21.7659 72.1679 21.3264C70.8683 22.3937 68.656 22.3623 67.0161 23.0686C66.6138 23.2412 65.9021 23.7592 65.5154 23.9475C64.8656 24.23 64.2313 24.1515 63.7981 24.6067C63.2566 25.1717 63.2102 26.6314 62.9317 27.4475C61.7404 28.0125 60.6884 28.8287 59.2805 29.1897C58.5224 22.5192 60.4254 18.5641 63.1483 14.7972C64.3241 13.1649 67.8824 11.5797 68.0836 9.35102C67.6658 8.89586 67.4957 8.18958 67.0161 7.82859C66.258 7.26357 65.438 7.29496 65.0822 6.30616C65.8403 6.08643 66.2734 5.8667 67.4492 5.8667C68.13 6.55729 69.5378 6.49451 70.2495 7.1694C70.2495 7.31065 70.2495 7.4676 70.2495 7.60886C71.1159 8.66044 71.7811 9.71201 72.6166 10.8735C74.0399 12.8981 75.8655 14.7502 76.9175 17.1986C77.7684 19.1605 77.9541 21.3107 78.8514 23.304C79.1763 24.0417 79.7333 24.026 79.9189 25.0462C78.1707 25.9094 77.0568 27.0238 74.7671 26.7883L74.7516 26.7726Z" fill="white"/>
<path d="M108.912 12.8195C106.545 15.4877 103.976 17.2769 103.976 22.4092C104.054 22.4092 104.116 22.4092 104.193 22.4092C104.193 22.4877 104.193 22.5505 104.193 22.629C105.725 21.9541 111.031 18.9877 111.495 17.6222C110.443 16.4922 110.35 13.4944 108.912 12.8195ZM112.346 20.4473C109.732 20.7456 107.674 22.6761 105.895 23.9317C105.307 24.3554 104.286 24.5909 103.961 25.2344C103.358 26.4586 104.27 27.1963 102.893 27.8555C102.306 28.4676 101.3 28.7501 100.31 28.9384C99.8301 28.0438 99.8611 26.5214 99.8766 25.0146C100.697 23.8532 100.495 21.0752 101.161 19.3487C101.362 18.8464 101.965 18.25 102.228 17.8263C102.801 16.8845 102.909 15.8958 103.512 14.9854C104.765 13.1177 107.055 11.8935 107.38 9.09976C106.947 8.51904 106.514 7.93832 106.096 7.3576C105.369 6.85535 104.951 7.42038 104.595 6.47867C104.812 6.40019 105.028 6.33741 105.245 6.25894C105.694 5.80378 106.251 5.80378 107.179 5.81947C108.293 6.98091 110.087 7.31051 111.047 8.66029C112.903 11.2657 114.883 14.0751 116.199 17.1671C116.771 18.5011 116.74 19.6626 117.266 21.0908C117.823 22.5819 119.045 23.916 119.2 25.6738C118.009 26.5685 117.699 27.62 115.549 27.6357C115.317 27.4317 115.518 27.5572 115.116 27.416C114.11 25.1245 112.671 23.3353 112.315 20.4473H112.346Z" fill="white"/>
</g>
<defs>
<clipPath id="clip0_2246_1538">
<rect width="120" height="30" fill="white"/>
</clipPath>
</defs>
</svg>
