<svg width="120" height="43" viewBox="0 0 120 43" fill="none" xmlns="http://www.w3.org/2000/svg">
<g clip-path="url(#clip0_2246_1896)">
<path fill-rule="evenodd" clip-rule="evenodd" d="M5.22526 42.7791L5.25568 42.8203L5.17416 42.8719C5.18105 42.8377 5.19828 42.8064 5.22526 42.7791ZM33.0428 9.66938C33.1513 9.7453 33.1886 9.85485 33.1547 9.99859C33.2093 10.0461 33.2363 10.1933 33.2363 10.4403C33.2294 10.7005 33.2466 10.8616 33.2868 10.9236C33.1783 11.0332 33.1886 11.1665 33.3178 11.3241C33.4602 11.4951 33.4975 11.6423 33.4297 11.7658C33.4429 12.1906 33.5583 12.907 33.7759 13.9132C33.9723 14.811 34.0572 15.5581 34.0302 16.1534H34.1422L34.0302 16.2873C34.0434 16.322 34.1083 16.3394 34.2237 16.3394L34.3557 17.9217H34.4683C34.4815 18.2301 34.6818 19.4015 35.0682 21.4359L34.9258 21.5692C35.0274 21.7889 35.0917 21.9871 35.1193 22.1656C35.0039 22.1928 35.0142 22.2925 35.1497 22.4635C35.3059 22.6623 35.3667 22.7985 35.3328 22.8744C35.3667 22.922 35.3363 23.0251 35.2416 23.1822C35.1664 23.3057 35.218 23.4054 35.3943 23.4807C35.3529 23.4946 35.3328 23.5561 35.3328 23.6656L35.3943 23.727L35.4448 23.7995L35.3839 23.727C35.2955 23.8505 35.299 23.916 35.3943 23.9229C35.5091 23.9363 35.5533 24.0047 35.5263 24.1275C35.52 24.6075 35.5872 25.0526 35.7301 25.4641C35.8863 25.9232 35.9747 26.3208 35.9942 26.6564C35.9534 26.6013 35.927 26.5572 35.9133 26.5219C35.8248 26.6662 35.8214 26.752 35.9029 26.7792C36.0051 26.821 36.0522 26.872 36.0453 26.9334H35.9942C36.0694 27.036 36.113 27.2968 36.1268 27.7147C36.1337 28.0978 36.2146 28.3546 36.3714 28.4856V29.4721H36.5034C36.3679 29.5544 36.3645 29.7155 36.4931 29.9549C36.6561 30.2493 36.7066 30.4858 36.6458 30.6643L36.6969 30.7252C36.8255 31.0126 36.9173 31.558 36.9719 32.3596H37.0838C37.0838 32.7016 37.1412 33.0824 37.2566 33.4997C37.3858 33.9663 37.4639 34.3906 37.4908 34.7743L37.5419 34.692C37.5689 34.9933 37.6499 35.3289 37.7859 35.6993C37.9082 36.0552 37.9794 36.418 37.9995 36.7884C38.0271 36.8226 38.1356 37.1518 38.3256 37.7749C38.4203 38.0971 38.5937 38.5764 38.8446 39.2134C39.2516 40.2411 39.6385 41.005 40.0048 41.5052C40.0255 41.5736 40.0524 41.6802 40.0863 41.824L40.2293 41.7724C40.1472 41.8338 40.1472 41.8889 40.2293 41.937C40.3171 41.992 40.3337 42.0639 40.2798 42.1526C40.4153 42.1178 40.483 42.1769 40.483 42.3276C40.4767 42.4777 40.5611 42.5288 40.7373 42.4812C40.758 42.5085 40.7787 42.6354 40.7988 42.862C39.5846 43.0058 38.6545 43.0359 38.0098 42.9548V42.8104C37.8135 42.9606 37.5075 42.9606 37.0942 42.8104C37.0735 42.7826 36.907 42.7316 36.5953 42.6557C36.283 42.5809 36.0895 42.4812 36.0149 42.3578C35.6279 42.3242 35.2892 42.1659 34.997 41.8854C34.7054 41.5498 34.478 41.3168 34.315 41.1864C34.1927 41.0699 34.0739 40.8717 33.959 40.5906C33.85 40.3303 33.7076 40.1379 33.5313 40.015C33.579 39.9263 33.5618 39.8336 33.4803 39.7374C33.3792 39.6215 33.3316 39.5148 33.3379 39.4192C33.4395 39.2894 33.3987 39.1074 33.2156 38.8749C33.0325 38.6483 33.0124 38.457 33.1547 38.2994C33.1071 38.2507 33.0836 38.1615 33.0836 38.0322C33.0905 37.8948 33.0663 37.7922 33.0124 37.7233L32.9613 37.641C32.9952 37.6757 33.0158 37.703 33.0227 37.7233C33.0296 37.7233 33.0531 37.634 33.0933 37.4561C33.0732 37.4225 33.002 37.4057 32.8798 37.4057C32.8057 37.1651 32.7885 36.9628 32.8292 36.7988H32.8798C32.9136 36.5861 32.8562 36.2847 32.707 35.894C32.5508 35.4901 32.4796 35.1852 32.4934 34.98H32.5542C32.6088 34.7951 32.5847 34.6201 32.4831 34.4561C32.3746 34.2775 32.3338 34.1066 32.3614 33.9419H32.4423C32.3947 33.7634 32.3235 33.6098 32.2287 33.4794L32.1673 33.3971L32.2287 33.469C32.1202 33.1473 32.0554 32.8251 32.0353 32.5034C31.6891 30.5779 31.5163 29.3521 31.5163 28.8246C31.3733 28.1871 31.2482 27.7147 31.1397 27.4064H31.2413C31.1259 27.2759 31.0513 27.0603 31.0174 26.7589C30.9766 26.3822 30.9428 26.1631 30.9158 26.1011L30.9967 26.0194L30.9158 25.9672L30.8647 25.8861L30.9256 25.9469L30.9967 25.8861C30.8073 25.6119 30.7154 25.2792 30.7223 24.8886C30.7361 24.4979 30.6747 24.2035 30.5392 24.0047C30.5662 23.8679 30.5558 23.6928 30.5088 23.4807C30.4404 23.1857 30.4031 22.9701 30.3962 22.8339H30.2642C30.2234 22.7238 30.2097 22.4363 30.2234 21.9703C30.2303 21.6132 30.1626 21.4185 30.0196 21.3849H30.0707C30.0369 20.9322 29.9553 20.5798 29.8267 20.3265L29.8773 20.4077C29.918 20.3943 29.9381 20.3294 29.9381 20.2129L29.8773 20.1405L29.9381 20.0796C29.755 19.8738 29.6706 19.5319 29.6838 19.0514C29.6976 18.6271 29.6361 18.3802 29.5007 18.3118C29.4461 18.2029 29.4226 18.0104 29.4295 17.7363C29.4364 17.4824 29.4163 17.3288 29.3686 17.2738C29.3365 17.2222 29.2923 17.1949 29.236 17.192C29.2992 17.1938 29.3462 17.2181 29.3784 17.2639C29.453 17.1468 29.4433 17.0819 29.348 17.0686C29.2395 17.0616 29.1987 16.9973 29.2262 16.8733H29.2871L29.2262 16.6269H29.2768C29.209 16.5238 29.1579 16.3464 29.1241 16.0925C29.0902 15.8045 29.0598 15.6259 29.0328 15.5581L29.0936 15.6404C29.1476 15.5854 29.1746 15.5407 29.1746 15.506C29.0259 15.4179 28.9174 15.455 28.8491 15.6196C28.7676 15.8114 28.6964 15.9001 28.6355 15.8868C28.6625 16.1951 28.5815 16.3968 28.3915 16.493C28.3915 16.8014 28.3301 17.0176 28.2078 17.1404L28.1269 17.0581C28.0517 17.2088 28.0046 17.4557 27.9845 17.7977C27.8622 17.8255 27.8008 17.9455 27.8008 18.1576C27.8077 18.3634 27.7262 18.4799 27.5568 18.5071C27.5775 18.6439 27.5229 18.8253 27.3938 19.0514C27.2445 19.3053 27.1664 19.5585 27.1595 19.8124L27.0987 19.7608C27.0309 19.802 26.993 19.9359 26.9867 20.1619C26.9867 20.374 26.919 20.5039 26.7829 20.5514L26.9155 20.6546L26.834 20.6036C26.807 20.6714 26.7766 20.7746 26.7422 20.9113C26.702 21.0284 26.6233 21.1003 26.5085 21.1281C26.6032 21.1142 26.6233 21.1959 26.5694 21.3739C26.5286 21.5251 26.4643 21.659 26.3759 21.7749L26.3248 21.7234C26.3524 21.9703 26.3013 22.1656 26.1721 22.3099C26.0234 22.4739 25.9488 22.6861 25.9488 22.9463C25.7989 22.9394 25.7277 23.0147 25.7346 23.1724C25.7415 23.4123 25.7415 23.5393 25.7346 23.5526C25.66 23.6071 25.5957 23.6523 25.5417 23.6865C25.6296 23.7618 25.6261 23.8435 25.5308 23.9328C25.4022 24.0563 25.3615 24.2104 25.4091 24.3953C25.28 24.3953 25.2191 24.5049 25.2254 24.7245C25.2254 24.9442 25.1445 25.0526 24.9814 25.0526C25.0084 25.3888 24.9372 25.5876 24.7679 25.649L24.6559 26.4407L24.5744 26.3579C24.3574 27.0702 24.1438 27.5501 23.9331 27.7964C23.9739 28.0433 23.9504 28.2555 23.8619 28.434C23.7529 28.6461 23.6955 28.8078 23.6891 28.9168C23.4917 28.9093 23.3969 29.0292 23.4038 29.2762C23.417 29.5781 23.3803 29.7595 23.2919 29.8216L23.2304 29.7595C23.2035 29.9653 23.0846 30.3073 22.8745 30.7872C22.6845 31.219 22.5898 31.5511 22.5898 31.7835L22.5082 31.7227C22.4405 31.7087 22.4066 31.8357 22.4066 32.1029C22.4066 32.3904 22.3148 32.548 22.1316 32.5752C22.2602 32.788 22.2333 32.9688 22.0501 33.1195C21.8463 33.2916 21.7855 33.4997 21.867 33.7466C21.7516 33.7536 21.6701 33.8973 21.623 34.1778C21.5748 34.4729 21.4869 34.6375 21.3583 34.6717L21.2969 35.3191L21.2154 35.2675C21.1477 35.4043 21.0661 35.6923 20.9708 36.1305C20.9037 36.4395 20.771 36.6684 20.5741 36.8191L20.6557 36.9014C20.7234 37.0185 20.6729 37.1518 20.5029 37.3025C20.3468 37.4323 20.337 37.5558 20.4725 37.6717L20.391 37.6102C20.4042 37.8299 20.333 38.0629 20.1774 38.3087C20.0282 38.5417 19.9736 38.7921 20.0144 39.0593C19.8519 39.0593 19.7595 39.0761 19.74 39.1108V39.2447C19.6039 39.2378 19.5161 39.196 19.4748 39.1207C19.4208 39.032 19.3835 38.9839 19.3628 38.977C19.4036 38.8332 19.3697 38.7167 19.2612 38.628C19.105 38.5046 19.0034 38.3678 18.9558 38.2171L19.0373 38.2681C19.058 38.213 19.0166 38.1104 18.915 37.9603C18.8134 37.823 18.7933 37.7099 18.8542 37.6207C18.7319 37.6137 18.6538 37.4665 18.6199 37.179C18.5792 36.8846 18.4741 36.7235 18.3042 36.6956C18.3248 36.5113 18.2703 36.3432 18.1417 36.1925C18.0194 36.0413 17.9655 35.8807 17.9787 35.7097C17.8702 35.7097 17.8087 35.6477 17.7955 35.5243C17.8024 35.3875 17.8024 35.3052 17.7955 35.2779L17.4695 34.8154C17.524 34.6989 17.4936 34.576 17.3782 34.445C17.2496 34.3013 17.1985 34.1778 17.2255 34.0747C16.9338 33.5554 16.7541 33.1027 16.6858 32.7196H16.4929L16.4418 32.1232L16.3603 32.2055C16.2788 32.1707 16.2415 32.0577 16.2484 31.8664C16.2553 31.7157 16.1841 31.6537 16.0348 31.6809C16.0687 31.2764 15.8959 30.859 15.5158 30.4272C15.5629 30.331 15.5158 30.1977 15.3729 30.0267C15.2167 29.8349 15.1559 29.643 15.1897 29.4512C14.9458 29.0814 14.7557 28.6293 14.6197 28.0949H14.4061L14.355 27.5501H14.223L14.1615 27.0256C14.0329 27.0882 13.9652 27.0638 13.9583 26.9543C13.9382 26.8308 13.8969 26.7723 13.8366 26.7792C13.9721 26.7045 13.9583 26.581 13.7953 26.4094C13.6058 26.2176 13.5306 26.0802 13.572 25.9985C13.5507 25.889 13.4422 25.6728 13.2459 25.3511C13.0759 25.0839 13.0116 24.8613 13.0524 24.6828C13.0323 24.6625 12.8796 24.3814 12.5943 23.8401C12.6012 23.7792 12.5977 23.7207 12.5839 23.6656C12.557 23.563 12.4961 23.5323 12.4008 23.5729C12.3193 23.2993 12.1706 22.9121 11.953 22.4119C11.763 21.9737 11.6344 21.5964 11.5661 21.2817C11.546 21.2411 11.5052 21.2336 11.4444 21.2614C11.3967 21.2747 11.3726 21.2371 11.3726 21.1484C11.4002 21.0452 11.356 20.898 11.2411 20.7062C11.1114 20.5004 11.0471 20.3022 11.0471 20.1103C10.8777 20.1034 10.7928 19.9904 10.7928 19.7713C10.7865 19.5585 10.7182 19.456 10.589 19.4623C10.5011 19.2983 10.3823 18.9662 10.233 18.466C10.1177 18.0829 9.97528 17.8047 9.80535 17.6331C9.88687 17.5241 9.88687 17.4216 9.80535 17.3253C9.70374 17.2088 9.65609 17.1132 9.66298 17.0379C9.59523 17.01 9.54414 16.8976 9.51027 16.6982C9.4764 16.5272 9.40176 16.442 9.28637 16.442C9.32024 16.311 9.29613 16.1951 9.21518 16.0925C9.10668 15.983 9.03549 15.8931 9.00162 15.8253C8.83858 15.6468 8.7605 15.5407 8.76739 15.506L8.72663 15.3831C8.72663 15.4103 8.71286 15.4248 8.68587 15.4248C8.71286 15.0887 8.66234 14.982 8.53316 15.1055C8.41088 15.2289 8.36036 15.4521 8.38046 15.7732C8.40112 15.8966 8.32994 16.1708 8.16689 16.5956C8.01763 16.9729 8.00385 17.2946 8.12614 17.5618L7.81039 17.8905L7.99409 18.0238C7.93956 18.8051 7.8345 19.2403 7.67834 19.329C7.61692 19.4322 7.58649 19.6721 7.58649 20.0483C7.58649 20.4737 7.55262 20.778 7.48488 20.9629L7.40336 20.9113C7.38326 21.0696 7.35915 21.4052 7.33217 21.9193C7.29141 22.3911 7.20989 22.6826 7.08818 22.7921C7.18979 22.8339 7.22367 22.8982 7.18979 22.9881C7.17602 23.0356 7.14214 23.1074 7.08818 23.2031V23.8505C6.93834 23.8505 6.8574 23.8714 6.84362 23.9125C6.8574 23.9467 6.93834 23.9635 7.08818 23.9635C7.04742 24.0192 7.0302 24.156 7.03651 24.3745C7.0434 24.553 6.9791 24.6625 6.84362 24.7037L6.95556 24.8376C6.87404 25.0016 6.81951 25.3134 6.79252 25.7725C6.76554 26.2582 6.71445 26.6013 6.63982 26.8001C6.77587 26.8482 6.78908 26.9201 6.68058 27.0157C6.55829 27.1183 6.52442 27.1902 6.57896 27.2319C6.55829 27.3136 6.55485 27.6324 6.56863 28.1871C6.57552 28.598 6.49113 28.9168 6.31431 29.1428C6.26034 29.2188 6.28732 29.293 6.39583 29.3689C6.46357 29.417 6.43659 29.4477 6.31431 29.4616L6.39583 29.5544C6.40961 30.054 6.34818 30.7698 6.21269 31.7018L6.13117 31.6195C6.0973 31.6334 6.08008 31.6948 6.08008 31.8044L6.21269 31.9481L6.13117 31.8867C6.07663 31.9481 6.06974 32.1301 6.1105 32.4309C6.14438 32.7393 6.13462 32.9485 6.08008 33.0586L5.87685 35.0113L5.89694 34.969L5.94804 35.1649L5.89694 35.0826C5.88316 35.3631 5.82231 36.0934 5.71381 37.2712C5.63918 38.4014 5.64607 39.1827 5.73448 39.6139C5.53699 39.7032 5.55077 40.0567 5.77524 40.6729C5.80853 40.721 5.79533 40.7923 5.73448 40.8885C5.68683 40.9841 5.70003 41.0699 5.77524 41.1458L5.9578 41.0427C5.80164 41.1997 5.79877 41.3991 5.94804 41.6391C6.14438 41.9335 6.21269 42.1903 6.15126 42.4094C6.34818 42.4366 6.40961 42.5427 6.33497 42.7281C6.3212 42.8238 6.20867 42.8278 5.99913 42.7386C5.78844 42.6557 5.6696 42.6794 5.64262 42.8104C5.62195 42.8168 5.55421 42.8035 5.43939 42.7687C5.33032 42.7351 5.25913 42.7386 5.22526 42.7791C5.19081 42.7519 5.15751 42.7386 5.12364 42.7386L4.80789 42.7281C4.61098 42.7281 4.4755 42.7757 4.40086 42.8719C4.18386 42.8922 3.94905 42.8754 3.69818 42.8203C3.69818 42.7386 3.64708 42.7281 3.54604 42.7896C3.43697 42.8516 3.37956 42.8788 3.37267 42.8719L3.42319 42.8203C3.40367 42.7658 3.3698 42.7386 3.32215 42.7386C3.32846 42.7925 3.26416 42.8104 3.12868 42.7896C2.97253 42.7687 2.88067 42.7791 2.85369 42.8203C2.75897 42.7316 2.67744 42.7247 2.60913 42.7994C2.5345 42.8823 2.46331 42.9061 2.39557 42.8719L2.45642 42.8203C2.40246 42.7589 2.25664 42.7351 2.01896 42.7484V42.8719H1.93744C1.95811 42.8377 1.94089 42.7925 1.88692 42.7386H1.75431V42.8719L1.62227 42.7484C1.51319 42.7484 1.41502 42.7519 1.32661 42.7589C1.14405 42.7658 1.05162 42.8064 1.05162 42.8823C1.03899 42.8823 0.96723 42.8348 0.838059 42.7386L0.777206 42.8203C0.587182 42.862 0.451697 42.8858 0.370176 42.8922C0.227802 42.8922 0.10552 42.8238 0.00390625 42.687L0.594071 42.2245L0.512551 42.1729C0.709464 42.1874 0.797299 42.0772 0.777206 41.8442H0.91958C1.10272 41.5834 1.31685 41.1487 1.56084 40.539C1.68944 40.5187 1.75775 40.4225 1.76464 40.2515C1.77842 40.0596 1.83583 39.9368 1.93744 39.8811C1.97189 39.4632 2.01552 39.1555 2.06948 38.9561H2.2021C2.34447 38.4286 2.40934 37.9737 2.39557 37.59C2.42944 37.59 2.47364 37.5627 2.52818 37.5077L2.44666 37.4561L2.39557 37.3744L2.44666 37.4259L2.52818 36.7988H2.5787C2.42312 36.7026 2.46675 36.5044 2.71132 36.2024C2.60913 36.2024 2.57181 36.1543 2.59937 36.0587C2.64013 35.9427 2.64013 35.8668 2.59937 35.8332L2.66022 35.8738C2.6872 35.7851 2.73141 35.4698 2.79284 34.9284C2.83302 34.572 2.93177 34.3256 3.08735 34.1883L2.89445 33.9935L2.97597 34.0445C3.02994 33.4145 3.09481 32.8691 3.16887 32.4106L3.21996 32.4727C3.2745 32.4518 3.30148 32.3869 3.30148 32.2773L3.21996 32.2257L3.16887 32.1434L3.21996 32.2055C3.24005 31.5407 3.34569 31.0816 3.53571 30.8283L3.40367 30.5918L3.48462 30.6434L3.53571 29.7393H3.61723C3.5558 29.4373 3.62068 29.2217 3.8107 29.0918L3.72918 29.009C3.844 28.8044 3.844 28.6942 3.72918 28.6809L3.86122 27.7037H3.94274V27.4579C4.03115 27.4093 4.06789 27.1942 4.05469 26.8105C4.03402 26.4135 4.10234 26.1457 4.25792 26.0084C4.1563 26.0084 4.11267 25.9603 4.12587 25.8646C4.13965 25.7557 4.13965 25.6931 4.12587 25.6797L4.30901 25.4948C4.24127 24.6793 4.28547 24.1073 4.44105 23.7792H4.50248V23.5323L4.584 23.6453C4.61787 23.6314 4.63509 23.5665 4.63509 23.4494L4.50248 23.3161C4.49559 23.1318 4.57711 22.7475 4.74704 22.1656C4.86875 21.7332 4.84865 21.3982 4.68561 21.1582L4.76713 21.2411C4.90951 20.6036 4.98758 20.2338 5.00136 20.1306L4.98069 19.9764C4.9606 19.9631 4.95027 19.9051 4.95027 19.802L5.00136 19.9869C5.10298 19.5417 5.21492 18.6578 5.3372 17.3358C5.4658 15.9928 5.56799 15.1507 5.64262 14.8076L5.72414 14.3763L5.77524 14.4273C5.90728 14.3642 5.90728 14.2691 5.77524 14.1451C5.77811 14.0819 5.79188 13.806 5.81542 13.318C5.8292 12.9748 5.9245 12.7563 6.10074 12.6601H5.90728C6.05654 12.4405 6.13462 12.0602 6.14151 11.5189C6.14782 10.9781 6.23968 10.577 6.41592 10.3168C6.36196 10.3035 6.33153 10.238 6.32464 10.122C6.30397 9.95686 6.29077 9.86876 6.28388 9.85485H6.3654C6.37229 9.82703 6.36827 9.63518 6.35507 9.27872C6.35507 9.0805 6.40272 8.92633 6.49744 8.81678V8.54959C6.71445 8.5293 6.73167 8.46381 6.54854 8.35368C6.6025 7.6286 6.6467 6.99451 6.68058 6.45317L6.81319 6.44331L6.7621 6.26827L6.81319 6.30943C6.85338 6.30247 6.87404 6.24103 6.87404 6.12395L6.81319 6.06252L6.86371 4.95258H6.92456V4.34631H7.00666V4.24372C7.04053 4.24372 7.08416 4.21648 7.1387 4.162L7.05718 3.96609C7.11172 2.98019 7.15248 1.71898 7.17946 0.184772H7.45445V0.0410309C7.54229 0.177818 7.60027 0.212593 7.62783 0.14362C7.66112 0.0410309 7.71222 0.0062561 7.77996 0.0410309L7.69844 0.10247C7.9562 0.143623 8.10891 0.30127 8.15656 0.576C8.21742 0.931297 8.28229 1.14401 8.35003 1.2124C8.35692 1.21936 8.3707 1.33181 8.39079 1.55148C8.40399 1.6616 8.47863 1.72245 8.61469 1.73578C8.7031 1.98965 8.72319 2.2499 8.67554 2.51709H8.85867C8.96775 2.66837 9.03894 2.91122 9.07281 3.24739C9.0929 3.54182 9.20141 3.78178 9.39832 3.96609C9.37823 4.06927 9.40865 4.17243 9.49017 4.27444C9.5849 4.39152 9.63599 4.50397 9.64288 4.61351L9.78526 4.75725L9.64288 4.89114C9.65609 4.92533 9.72096 4.94273 9.83578 4.94273C9.89031 5.38148 10.1515 6.01847 10.62 6.85425C10.5924 7.00437 10.647 7.19332 10.7825 7.41879C10.9185 7.64541 10.9725 7.84711 10.9455 8.02563C11.0609 8.03896 11.1694 8.29978 11.271 8.80693C11.5632 9.16976 11.7153 9.4984 11.7291 9.79284C11.6953 9.90933 11.7498 10.0125 11.8922 10.1012C12.0414 10.1968 12.0954 10.3098 12.0546 10.4403C11.9392 10.5023 11.9634 10.6043 12.1264 10.7486C12.3164 10.9202 12.3842 11.0709 12.3296 11.2013C12.3842 11.2216 12.4381 11.3786 12.4927 11.6731C12.5535 11.9959 12.6419 12.1941 12.7573 12.2695C12.7636 12.2967 12.8354 12.4202 12.9709 12.6393C13.0593 12.7836 13.08 12.9412 13.0323 13.1116C13.08 13.1331 13.1437 13.2148 13.2258 13.3585C13.3136 13.5162 13.3578 13.6495 13.3578 13.7596C13.4801 13.8211 13.5507 13.9758 13.572 14.2216C13.5984 14.4685 13.6799 14.6227 13.8154 14.6841C13.9313 14.8215 14.0094 15.0342 14.0502 15.3217C14.0766 15.5749 14.1719 15.7529 14.3349 15.856C14.355 15.9314 14.3516 16.0236 14.3246 16.1331C14.3246 16.2021 14.3889 16.2363 14.5181 16.2363C14.6266 16.6542 14.8373 17.1949 15.149 17.8597C15.4406 18.4834 15.6209 18.9523 15.6886 19.2682C15.7839 19.3974 15.8649 19.5655 15.9326 19.7713C15.994 19.9764 16.0922 20.1683 16.2283 20.3468L16.2788 20.4285L16.2283 20.3567L16.1462 20.4285C16.2822 20.5937 16.3907 20.7914 16.4723 21.0249C16.5538 21.2718 16.6623 21.484 16.7983 21.6619L16.7472 21.6005C16.7673 21.6689 16.8316 21.8091 16.9407 22.0219C17.0291 22.227 17.0458 22.3951 16.9912 22.5255L17.1239 22.4426C17.0555 22.6484 17.1066 22.8304 17.2766 22.9881C17.4528 23.1451 17.5108 23.337 17.4494 23.563C17.6325 23.6384 17.7209 23.7792 17.714 23.9838C17.7071 24.1965 17.7886 24.3374 17.9586 24.4058C17.8839 24.557 17.931 24.7141 18.101 24.8781C18.2772 25.0491 18.3386 25.2004 18.2841 25.3308C18.3042 25.5905 18.4506 25.9162 18.7221 26.3069C18.9793 26.6703 19.0981 26.9983 19.0781 27.2928C19.3289 27.451 19.3904 27.6666 19.2612 27.9402C19.3565 27.8793 19.4139 27.8793 19.434 27.9402C19.4478 27.9819 19.465 28.0636 19.4851 28.1871C19.5121 28.3586 19.5597 28.4711 19.6275 28.5267C19.7021 28.5812 19.7635 28.7319 19.8112 28.9782L20.0448 29.1736C20.0994 29.0982 20.147 28.9516 20.1878 28.7319C20.2079 28.725 20.2521 28.7418 20.3198 28.7835C20.3738 28.3175 20.4559 28.0573 20.5638 28.0022C20.6453 27.7559 20.72 27.5501 20.7877 27.3855C20.91 27.0702 21.0323 26.8818 21.1545 26.821C21.1545 26.814 21.1511 26.7108 21.1442 26.5126C21.1442 26.3544 21.1919 26.2582 21.2866 26.224C21.2866 26.0466 21.348 25.8101 21.4697 25.5157C21.5512 25.536 21.6259 25.4195 21.6936 25.1656C21.755 24.8984 21.7889 24.7512 21.7958 24.7245L21.8463 24.8068C21.8871 24.7512 21.9175 24.6347 21.9382 24.4573C21.952 24.3269 22.0128 24.262 22.1213 24.262L22.3044 23.5016L22.386 23.5526C22.3314 23.3404 22.3963 23.1283 22.5794 22.9156C22.7488 22.7238 22.793 22.5458 22.7115 22.3812H22.7626V22.1963L22.8137 22.2473C22.9698 22.234 23.0272 22.1175 22.9865 21.8984C22.9463 21.6793 23.0238 21.5593 23.2207 21.539L23.1392 21.4562C23.2276 21.3536 23.2718 21.182 23.2718 20.9426L23.4647 20.7473L23.3533 20.614L23.4038 20.665C23.3837 20.5491 23.4549 20.4152 23.6174 20.2639C23.7666 20.1271 23.804 19.9596 23.7293 19.7608H23.7804V19.5759C23.8619 19.6171 23.9062 19.6339 23.913 19.6275C23.8585 19.449 23.9262 19.223 24.1163 18.9494C24.3063 18.6816 24.374 18.4556 24.3201 18.2707C24.374 18.2434 24.4452 18.1032 24.5336 17.8493C24.622 17.6024 24.6932 17.4795 24.7472 17.4795C24.7472 16.9932 24.9275 16.62 25.2868 16.3597L25.1542 16.2258L25.3379 16.0821C25.2225 16.0409 25.1852 15.9725 25.2254 15.8763C25.3006 15.7732 25.3379 15.6984 25.3379 15.6503L25.5308 15.5164C25.5446 15.4892 25.5481 15.3767 25.5417 15.1779C25.528 15.0064 25.5687 14.873 25.6634 14.7768L25.714 14.8591L25.9281 14.068L25.989 14.1196C26.2197 13.5573 26.3724 13.1221 26.4471 12.8143L26.4982 12.896C26.5252 12.6636 26.5963 12.4103 26.7117 12.1362C26.8202 11.869 26.8817 11.6597 26.8954 11.509C27.0309 11.5502 27.0952 11.4783 27.0883 11.2934C27.0814 11.0471 27.0987 10.8993 27.1394 10.8512C27.2818 10.8512 27.3495 10.7387 27.3427 10.5121C27.3363 10.2727 27.3765 10.1493 27.4649 10.1423L27.5465 10.1933C27.601 10.0977 27.6314 9.95338 27.6383 9.76212C27.6446 9.58418 27.6751 9.44739 27.7296 9.35118L27.7807 9.43348C27.8146 9.24163 27.8892 9.0295 28.0046 8.7965C28.1131 8.5635 28.1912 8.34035 28.2388 8.1288L28.2997 8.1798C28.3542 8.1456 28.3812 8.1004 28.3812 8.04591C28.368 7.93637 28.3605 7.8303 28.3605 7.72771C28.3542 7.52891 28.4386 7.41531 28.6154 7.38807L28.5643 7.33706L28.5132 7.25476L28.5643 7.32663C28.5712 7.22404 28.6493 7.0461 28.7986 6.79223C28.9271 6.56619 28.9748 6.35695 28.9409 6.16568C29.0494 6.16568 29.1212 6.13786 29.1551 6.0828L29.0735 6.03238L29.0224 5.94949L29.0735 6.00108C29.0936 5.78199 29.1717 5.5658 29.3072 5.35366C29.4433 5.1479 29.5173 4.93577 29.5311 4.71668L29.5822 4.77869C29.6706 4.41586 29.8061 4.17881 29.9892 4.06926C29.9146 4.00087 29.8979 3.87741 29.9381 3.6989C30.0064 3.50763 30.0403 3.38417 30.0403 3.32911L30.1218 3.41142C30.2097 3.07583 30.3693 2.61678 30.6 2.03428C30.7964 1.5138 30.9158 1.14749 30.956 0.934776H31.0886V0.708733L31.1397 0.791035C31.1397 0.626427 31.15 0.500076 31.1701 0.410236C31.1971 0.239254 31.2786 0.150578 31.4141 0.14362L31.4652 0.0618973L31.5163 -0.00069809L31.4755 0.0618973L32.1168 0.195206V0.842621L32.0554 0.791035L32.0657 0.986938L31.9842 0.924347C32.0657 1.15097 32.1168 1.51786 32.1369 2.02443C32.1501 2.51013 32.2081 2.8805 32.3097 3.13437L32.2488 3.08278C32.2557 3.62355 32.3677 4.57642 32.5847 5.93906C32.6254 6.38477 32.707 6.98756 32.8292 7.74858C32.9372 8.41976 33.0089 9.06021 33.0428 9.66938Z" fill="white"/>
<path fill-rule="evenodd" clip-rule="evenodd" d="M56.3886 20.0184V20.0387C56.341 19.9906 56.3243 19.9465 56.3375 19.9059L56.3886 20.0184ZM56.4087 19.135L56.3886 19.1959C56.3542 19.189 56.3375 19.1281 56.3375 19.0116L56.4087 19.135ZM60.6025 9.72105C60.6834 9.66656 60.7897 9.63932 60.9183 9.63932C61.0945 9.63237 61.2064 9.70424 61.2541 9.85552C61.3551 9.83465 61.3764 9.90304 61.315 10.0601C61.2334 10.2595 61.2128 10.3824 61.2541 10.4305L61.1927 10.3696C61.145 10.5812 61.0606 10.7974 60.9389 11.0165C60.8499 11.1811 60.7994 11.4031 60.7856 11.6842C60.6909 11.7526 60.6634 11.9033 60.7041 12.1363C60.7449 12.3757 60.7386 12.5235 60.6834 12.5779H60.6025C60.5617 12.6191 60.5686 12.6776 60.6226 12.753C60.6702 12.8144 60.6467 12.8654 60.5514 12.9072L60.6834 13.041L60.6025 12.9895C60.6094 13.0167 60.5922 13.1981 60.5514 13.5337C60.5244 13.787 60.5686 13.9794 60.6834 14.1098C60.5749 14.3562 60.5313 14.5544 60.5514 14.7051C60.5922 15.014 60.6094 15.2227 60.6025 15.3322C60.657 16.1408 60.6358 17.3672 60.5411 19.0116C60.4463 20.6756 60.4228 21.8917 60.4705 22.6591L60.3585 22.9268C60.4601 22.9952 60.5038 23.1865 60.4905 23.5024C60.4905 23.6798 60.4837 23.9267 60.4705 24.2414L60.5514 26.441H60.4705V26.7186H60.409C60.5313 26.9586 60.5686 27.4101 60.521 28.0744C60.4733 28.7392 60.5175 29.2057 60.6536 29.4729H60.6834V31.5375H60.6025C60.6025 31.5514 60.5991 31.723 60.5922 32.0516C60.5853 32.2574 60.6157 32.415 60.6834 32.5246L60.6025 32.4631C60.6501 32.7025 60.7012 33.1169 60.7546 33.7058C60.8161 34.2199 60.9183 34.5521 61.0606 34.7028C61.0669 34.8332 61.1927 35.0899 61.4372 35.4736C61.6273 35.7681 61.6542 36.008 61.5193 36.1929C60.6433 36.2613 60.0393 36.2347 59.7069 36.1112L59.6357 36.0596L59.7069 36.0903C59.6725 35.9877 59.5266 35.9292 59.2694 35.9153C58.9979 35.895 58.8211 35.8168 58.7396 35.68C58.5426 35.7275 58.3394 35.658 58.1287 35.4736C57.8715 35.2406 57.6608 35.1102 57.4984 35.083V34.8059C57.4099 34.8743 57.2739 34.8297 57.0907 34.672C56.8875 34.4732 56.7446 34.3469 56.6636 34.2918L56.7141 34.2408C56.585 34.1927 56.5178 34.0866 56.5109 33.9214C56.4971 33.7168 56.4564 33.5766 56.3886 33.5006C56.4432 33.4804 56.4701 33.4149 56.4701 33.3053L56.3886 33.2537L56.3375 33.172L56.399 33.2334C56.5138 32.5553 56.4937 32.0621 56.3375 31.7537L56.2566 31.8256C56.2566 31.7775 56.2394 31.7537 56.2055 31.7537C56.1917 31.9658 56.0631 32.1716 55.8186 32.3704C55.5539 32.5825 55.4046 32.768 55.3708 32.9257L55.4213 32.9865C55.4081 33.0352 55.3472 33.0555 55.2387 33.0486C55.1434 33.0422 55.0958 33.0828 55.0958 33.172C55.0487 33.3366 54.8988 33.514 54.648 33.7058C54.4103 33.8774 54.2375 33.9632 54.129 33.9632C54.1967 34.1753 54.1187 34.3051 53.8948 34.3533C53.6571 34.4083 53.5451 34.4767 53.5589 34.559C53.4912 34.6622 53.335 34.7578 53.0904 34.8465C52.8803 34.9224 52.7753 35.0186 52.7753 35.1346C52.5307 35.1554 52.3682 35.1966 52.2867 35.258C52.1914 35.3606 52.0932 35.4568 51.9916 35.5455C52.0117 35.4904 51.9951 35.4464 51.9405 35.4128C51.8929 35.3844 51.8182 35.4464 51.7166 35.5971C51.615 35.7478 51.4726 35.7756 51.2895 35.68C51.3366 35.7889 51.2855 35.8539 51.1368 35.8741C50.9468 35.8811 50.8176 35.8979 50.7499 35.9257C50.6752 36.0283 50.4548 36.1042 50.0879 36.1518C49.6332 36.1929 49.2974 36.2277 49.0804 36.2549L49.1315 36.3367C48.3777 36.5013 47.7301 36.5187 47.187 36.3883V36.3367C46.9907 36.3645 46.3253 36.2718 45.1926 36.0596C45.1857 35.9843 45.0393 35.9362 44.7546 35.9153C44.4761 35.8881 44.3441 35.8092 44.3573 35.68L43.8486 35.5971C43.6994 35.4331 43.3939 35.2615 42.9329 35.083C42.9731 35.0146 42.9904 34.97 42.9835 34.9497L42.8715 34.8059L42.79 34.8877C42.79 34.7717 42.7458 34.7201 42.658 34.7341C42.3049 34.5625 42.0707 34.3985 41.9553 34.2408C42.0236 34.104 42.0064 34.0484 41.9047 34.0756C41.7756 34.104 41.7314 34.0484 41.7721 33.9116C41.4466 33.7406 41.1992 33.4937 41.0292 33.172C40.7847 32.706 40.6188 32.4249 40.5304 32.3287C40.5573 32.3362 40.6015 32.3188 40.6624 32.2777C40.4861 32.0719 40.3576 31.8975 40.276 31.7537C40.1268 31.4935 40.059 31.1677 40.0722 30.7776C39.9367 30.7226 39.8719 30.6235 39.8788 30.4797C39.8856 30.2943 39.869 30.1743 39.8282 30.1198C39.6107 28.8116 39.5464 27.8698 39.6348 27.2936C39.5808 25.0952 39.6009 23.4578 39.6956 22.3814H39.8282C39.7329 22.2649 39.6859 22.0569 39.6859 21.7549C39.6859 21.4599 39.7329 21.217 39.8282 21.0252C39.6583 20.8333 39.6313 20.525 39.7467 20.1007C39.7266 19.3744 39.7094 18.8296 39.6956 18.4662H39.7467C39.7467 17.0282 39.7295 16.0104 39.6956 15.4151C39.811 15.2157 39.8076 14.952 39.6859 14.6228C39.5768 14.322 39.5974 14.1029 39.7467 13.9661L39.6348 13.8322H39.6956C39.6554 13.743 39.5291 13.2016 39.3196 12.2081C39.156 11.4407 38.912 10.9376 38.5865 10.6977L38.5354 10.3696C38.1283 10.2456 37.8838 10.1395 37.8022 10.0503L37.8838 9.63932C39.0578 9.91986 40.6325 9.9923 42.6069 9.85552V9.90652C42.7693 9.89261 43.4347 9.83117 44.6018 9.72105L44.8154 9.90652L44.8665 9.96796L44.8154 9.91637C44.89 10.2253 44.8464 10.485 44.6834 10.6977C44.5611 10.773 44.483 10.9718 44.4491 11.2935C44.4153 11.6291 44.3406 11.8424 44.2252 11.9305V12.8556H44.1747C44.2419 13.1089 44.2149 13.3691 44.0932 13.6363C43.9847 13.8699 43.9847 14.1064 44.0932 14.3457L44.0318 14.2942C43.9979 14.4037 43.9709 14.486 43.9502 14.5411L44.0932 14.6744C43.9101 15.1954 43.8894 15.7229 44.0318 16.2573C43.964 16.5378 43.9502 16.932 43.991 17.4391C44.0249 17.8982 43.9945 18.2407 43.8997 18.4662C44.0013 18.734 44.0455 19.0284 44.0318 19.3501C44.018 19.5356 43.991 19.83 43.9502 20.234L44.0932 20.3679C43.991 20.4705 43.9439 20.5354 43.9502 20.562L44.0318 20.6449C43.991 22.735 43.964 23.8409 43.9502 23.9643C43.9979 23.9574 44.0455 23.9777 44.0932 24.0258V24.3446C43.9979 24.3446 43.9571 24.3962 43.9709 24.4982C43.9847 24.6083 43.9772 24.6668 43.9502 24.6732L44.0932 24.8888L44.0318 24.8077V25.4134H43.9502C44.0932 25.6806 44.1609 26.1431 44.1541 26.8004C44.1541 27.5742 44.1776 28.0645 44.2252 28.2703C44.2591 28.8319 44.3033 29.1571 44.3573 29.2463L44.2252 29.3901C44.3676 29.4515 44.4491 29.6538 44.4698 29.9969C44.4893 30.3453 44.5783 30.5615 44.7339 30.6438C44.6593 30.7742 44.6868 30.9457 44.8154 31.1579L44.9274 31.1063C44.975 31.2361 45.0089 31.37 45.029 31.5068C45.0628 31.61 45.165 31.7299 45.335 31.8667L45.2534 31.949C45.6737 32.5791 46.5802 33.2334 47.9706 33.9116L48.0522 33.8299C49.2193 34.0142 50.3629 33.8878 51.4824 33.4496C51.5915 33.4769 51.7201 33.4595 51.8693 33.3981C51.9847 33.3499 52.0456 33.3465 52.0525 33.3876C52.0525 33.2369 52.1983 33.1552 52.4899 33.1413C52.7885 33.1198 52.9481 33.0213 52.9687 32.8428V32.9257C53.0095 32.9593 53.1243 32.8944 53.3149 32.7303C53.4165 32.648 53.5354 32.5414 53.6709 32.4116C54.8788 31.4593 55.632 30.4797 55.9305 29.4729C56.1751 29.1229 56.2899 28.4482 56.2767 27.4472C56.2629 26.3651 56.3278 25.6597 56.4701 25.3311L56.4191 25.2899C56.4391 25.2899 56.4294 25.2215 56.3886 25.0842H56.4701C56.5241 24.8853 56.5241 24.297 56.4701 23.3163L56.3886 23.2555H56.3375C56.4254 23.2422 56.4701 23.2143 56.4701 23.1726L56.3886 23.1216L56.3375 23.0393L56.399 23.1007C56.4127 22.9025 56.4018 22.7651 56.368 22.6898L56.3886 22.7112C56.4701 22.56 56.4529 22.3241 56.3375 22.0012L56.3886 22.0632C56.4839 21.9606 56.4902 21.8783 56.4087 21.8169C56.3341 21.7618 56.3106 21.7172 56.3375 21.683L56.3886 21.734C56.504 20.8779 56.504 20.3059 56.3886 20.0184C56.4156 19.8132 56.4363 19.6619 56.4495 19.5663C56.4701 19.3878 56.4564 19.244 56.4087 19.135C56.4971 18.7989 56.473 18.6209 56.3375 18.6007V18.4662L56.3886 18.5485C56.4495 18.4047 56.4328 18.0489 56.3375 17.4797L56.3886 17.5626C56.5109 17.1238 56.4667 16.8601 56.2566 16.7708L56.5316 16.5859C56.4156 16.4903 56.3513 16.4457 56.3375 16.4526C56.2089 15.946 56.2089 15.3798 56.3375 14.7573C56.2359 13.4758 56.1917 12.7495 56.2055 12.5779C56.0155 11.6396 55.5642 10.7974 54.8518 10.0503L54.7702 10.1019C54.6818 10.0537 54.6141 9.99926 54.5664 9.93666C54.4648 9.8277 54.5154 9.72858 54.7192 9.63932C54.8822 9.67294 55.0722 9.74539 55.2892 9.85552V9.72105L55.4213 9.90652C55.4735 9.89261 55.5011 9.83697 55.5028 9.7367V9.77263C58.4072 9.86885 60.1076 9.85146 60.6025 9.72105ZM56.3375 18.6007V18.6818L56.2566 18.6007H56.3375Z" fill="white"/>
<path fill-rule="evenodd" clip-rule="evenodd" d="M115.456 9.82259C115.762 9.78781 115.935 9.7542 115.975 9.71942C116.552 9.88403 117.336 9.92866 118.327 9.85389L118.459 9.71942L118.571 9.85389L118.703 9.71942C118.751 9.80868 118.887 9.85389 119.11 9.85389C119.118 9.771 119.131 9.73739 119.152 9.75072C119.213 9.80578 119.26 9.8394 119.294 9.85389H119.437V9.71942C119.463 9.74029 119.562 9.72696 119.732 9.67885C119.853 9.65103 119.942 9.71015 119.996 9.85389C120.016 9.94257 119.993 10.011 119.925 10.0585C119.837 10.1275 119.779 10.2022 119.752 10.2851C119.752 10.3877 119.758 10.5454 119.772 10.7575C119.752 10.9221 119.674 11.0114 119.538 11.0241C119.619 12.8267 119.558 14.9161 119.355 17.2937C119.45 18.239 119.494 19.7013 119.487 21.6812C119.474 23.8321 119.49 25.247 119.538 25.9251C119.517 26.1442 119.532 26.5487 119.579 27.1376C119.606 27.5283 119.558 27.8395 119.437 28.0725C119.532 29.0387 119.575 30.3266 119.568 31.9361C119.562 32.8067 119.552 33.9439 119.538 35.3483L119.619 35.4103C119.565 35.4648 119.538 35.5088 119.538 35.5436L119.619 35.5952L119.538 35.6775L119.671 35.7905C119.603 35.8519 119.585 36.0502 119.619 36.3863H119.162C118.477 35.5847 117.981 34.9959 117.675 34.6185C117.621 34.633 117.56 34.5501 117.492 34.3722C117.146 34.2076 116.994 34.0262 117.035 33.828C116.505 33.3614 115.748 32.5157 114.765 31.2893C114.595 31.2551 114.463 31.1415 114.367 30.9502C114.266 30.7451 114.12 30.6147 113.93 30.5596C113.937 30.4361 113.831 30.2756 113.614 30.0768C113.322 29.809 113.139 29.6247 113.065 29.5215L113.146 29.4705C112.969 29.2103 112.817 29.1007 112.688 29.1413C112.763 28.9297 112.716 28.8335 112.546 28.8538C112.369 28.8811 112.308 28.7953 112.363 28.5971C111.785 27.9595 111.29 27.4425 110.876 27.0455C110.252 26.2566 109.838 25.7744 109.634 25.5965L109.715 25.5449C109.512 25.5315 109.387 25.4319 109.339 25.247C109.285 25.0551 109.17 24.9554 108.993 24.9496C108.858 24.716 108.749 24.5346 108.668 24.4042C108.518 24.1788 108.366 24.0136 108.21 23.9116C108.08 23.849 107.979 23.7296 107.905 23.5516C107.816 23.3389 107.727 23.1946 107.64 23.1198H107.456C107.503 23.0033 107.474 22.9245 107.365 22.8833C107.242 22.8358 107.182 22.7773 107.182 22.7089C107.229 22.7361 107.273 22.7193 107.313 22.6573C107.287 22.6231 107.182 22.6063 106.998 22.6063C106.537 21.9554 106.276 21.5989 106.214 21.5375C106.032 21.3868 105.777 21.0785 105.451 20.6125C105.146 20.1673 104.878 19.8688 104.647 19.7181V19.5744H104.728C104.294 19.3901 104.077 19.0916 104.077 18.6801H103.812C103.812 18.516 103.792 18.4233 103.751 18.403H103.619C103.673 18.2796 103.602 18.1219 103.406 17.9306C103.168 17.7046 103.043 17.5191 103.029 17.3754C102.981 17.3 102.872 17.3174 102.703 17.427L102.784 17.478L102.836 17.5609L102.784 17.5093C102.71 19.2973 102.683 21.5137 102.703 24.1573L102.836 24.2918C102.7 24.5033 102.683 24.8296 102.784 25.2672C102.621 25.5414 102.639 26.1071 102.836 26.9632L102.784 26.9116C102.731 28.2823 102.747 29.1523 102.836 29.5215L102.784 29.4705C102.669 29.7922 102.669 30.0461 102.784 30.231L102.836 30.3133L102.784 30.2414C102.683 31.4539 102.7 32.3477 102.836 32.9232L102.784 32.8409C102.717 33.0536 102.7 33.2379 102.734 33.3962C102.782 33.6013 102.798 33.7723 102.784 33.9097H102.917C102.889 34.1833 102.954 34.4649 103.11 34.753L103.029 34.7008C103.029 35.201 103.165 35.5436 103.436 35.7285C103.497 35.9481 103.528 36.0681 103.528 36.0884C103.487 36.1296 103.429 36.184 103.355 36.253C103.279 36.2113 103.029 36.191 102.601 36.191V36.0061C102.506 36.1568 102.248 36.2188 101.827 36.191C101.319 36.1296 100.946 36.1023 100.709 36.1093V36.0577C100.633 36.0374 100.271 36.0542 99.6189 36.1093C99.015 36.1568 98.6183 36.1226 98.4283 36.0061C98.1229 36.1359 97.698 36.2014 97.1555 36.2014C96.6463 36.1945 96.3615 36.2113 96.3007 36.253C96.2806 36.2258 96.0802 36.2014 95.7002 36.1811C95.3408 36.1597 95.11 36.0577 95.0084 35.8722C94.7771 35.845 94.587 35.7012 94.4383 35.441C94.2753 35.1535 94.1392 34.9883 94.0313 34.9478C94.1467 34.7901 94.0956 34.6261 93.878 34.4545C93.661 34.283 93.6243 34.1021 93.7667 33.9097C93.6645 33.8141 93.4917 33.5051 93.2471 32.9846C93.2471 32.889 93.1863 32.7696 93.064 32.6253C92.9624 32.5094 92.9354 32.3656 92.983 32.1935C92.9147 32.1732 92.8366 32.0805 92.7482 31.9159C92.6535 31.7385 92.6231 31.5942 92.6569 31.4846C92.5691 31.4441 92.5071 31.3171 92.4738 31.1044C92.433 30.8923 92.3412 30.7543 92.1988 30.6935C92.266 30.5561 92.2189 30.3822 92.0559 30.1689C91.9066 29.9713 91.8934 29.7992 92.0157 29.6554L91.8733 29.5215C91.8658 29.5563 91.8056 29.5731 91.6902 29.5731C91.7108 29.4015 91.6902 29.2891 91.6287 29.234C91.5266 29.2004 91.4387 29.1691 91.3641 29.1413C91.0317 29.128 90.7774 29.1141 90.6006 29.1007C90.2957 29.0735 90.0379 28.9941 89.8273 28.8643H86.509V28.8132C85.3763 28.8132 84.3579 28.8503 83.4554 28.9263L83.4049 28.8643C83.2488 28.9605 82.9973 29.0219 82.6511 29.0491C82.2849 29.077 82.0409 29.1245 81.9186 29.1935C81.6206 29.1935 81.4507 29.2578 81.4094 29.3882L81.267 29.2445L80.8703 30.1179L80.8089 30.0356C80.8427 30.3301 80.7555 30.5323 80.5442 30.6419C80.4834 30.8268 80.4254 31.036 80.3714 31.2684C80.31 31.4406 80.1779 31.5733 79.9747 31.6689C80.0356 31.7721 80.0327 31.8788 79.965 31.9883C79.8898 32.1042 79.8662 32.1999 79.8938 32.2758C79.7916 32.2416 79.737 32.2555 79.7307 32.3169C79.7307 32.372 79.7508 32.4195 79.7916 32.4613C79.8111 32.5024 79.8082 32.5053 79.7812 32.4711C79.6527 32.5668 79.5574 32.7105 79.4959 32.9029C79.4351 33.0942 79.3536 33.2281 79.2525 33.3034C79.3059 33.4814 79.2485 33.6628 79.0786 33.8482C78.9092 34.0262 78.8581 34.218 78.9259 34.4232C78.811 34.5264 78.7295 34.6806 78.6819 34.8857C78.6411 35.0776 78.5492 35.2318 78.4069 35.3483L78.2743 35.9238L78.2243 35.8722L78.0308 36.3347L77.9493 36.253C77.8942 36.3069 77.8776 36.3521 77.8982 36.3863C77.9861 36.3863 77.9419 36.5851 77.7656 36.9822L77.7151 36.9004C77.6336 37.0239 77.5015 37.345 77.3178 37.866C77.1485 38.3257 76.9722 38.6572 76.7891 38.863V39.3249C76.7753 39.3319 76.7311 39.3151 76.6565 39.2739C76.711 39.4316 76.6496 39.6269 76.4739 39.8593C76.2896 40.0929 76.2259 40.305 76.2799 40.4969C75.9951 40.8875 75.5806 41.35 75.0381 41.8839H74.9365V41.812C74.8544 41.8328 74.7396 41.9291 74.5903 42.0995C74.4617 42.2438 74.3326 42.3023 74.204 42.2745C74.204 42.4182 74.0673 42.4866 73.7964 42.4803C73.4777 42.4733 73.2912 42.4936 73.236 42.5411L73.3072 42.5933C73.131 42.5655 72.7848 42.5829 72.2693 42.6443C71.8559 42.6854 71.5299 42.6512 71.2922 42.5411C71.4828 42.2884 71.6791 42.0456 71.8829 41.812C72.4662 41.3599 72.7888 40.949 72.8497 40.5792C72.8968 40.5374 72.9789 40.4801 73.0937 40.4041C73.1752 40.3496 73.1752 40.2981 73.0937 40.25C73.2567 40.305 73.3279 40.2158 73.3072 39.9828C74.0673 38.9829 74.5358 38.1744 74.7126 37.5583L74.7941 37.6394C74.8619 37.3247 75.0622 36.9277 75.3946 36.4483C75.7132 35.9957 75.8998 35.5575 75.9538 35.1326C75.6627 35.1877 75.4486 35.3413 75.3131 35.5952C74.9669 35.8421 74.3796 36.0131 73.5524 36.1093V36.0577L71.4759 36.1093C71.3536 36.1296 71.2859 36.0884 71.2715 35.9858C71.2583 35.896 71.1842 35.8757 71.0482 35.9238C70.9328 35.965 70.6911 35.9719 70.3254 35.9441C69.8437 35.9168 69.4735 35.9105 69.2157 35.9238V35.8722C66.9831 35.9273 65.5145 35.9893 64.8084 36.0577C64.1028 36.2223 63.8078 36.1597 63.9232 35.8722C63.9232 35.5511 64.015 35.2938 64.1976 35.1013C64.3876 34.8967 64.4863 34.6701 64.4932 34.4232L64.7573 34.2899L64.6764 34.2389L64.6253 34.156L64.6861 34.2076C64.7338 33.8384 64.7751 33.5642 64.8084 33.3857H64.9514C65.0254 32.9678 65.0432 32.6427 65.0019 32.4097H65.0834V32.0805H65.1345C65.0731 31.4296 65.0564 30.923 65.0834 30.5596L65.1345 30.6419C65.2631 30.4158 65.2941 30.1933 65.2258 29.9742C65.1517 29.7209 65.1207 29.5696 65.1345 29.5215L65.2154 29.5731L65.1752 29.3476L65.2154 29.3882C65.3446 29.128 65.3176 28.9367 65.1345 28.8132H65.2154L65.1345 28.484L65.2154 28.5461C65.1752 28.5043 65.1821 28.3745 65.2361 28.1554C65.2769 27.9357 65.27 27.8024 65.2154 27.7543L65.1345 27.6923C65.1821 27.7062 65.2126 27.7201 65.2258 27.7334L65.328 27.3741L65.0834 27.2304L65.2769 27.097C65.2154 26.7336 65.1953 26.514 65.2154 26.4392C65.2568 26.3911 65.2941 26.2195 65.328 25.9251C65.2734 25.7541 65.2734 25.582 65.328 25.4116L65.1345 25.3293C65.2361 25.2267 65.2838 25.1612 65.2769 25.1339H65.1345C65.0937 25.0864 65.1109 25.0383 65.1856 24.9902C65.2533 24.9351 65.27 24.894 65.2361 24.8667C65.2769 24.8123 65.2906 24.774 65.2769 24.7537C65.3107 24.3834 65.2631 23.9655 65.1345 23.5006L65.2154 23.5818C65.3113 23.5116 65.3113 23.4224 65.2154 23.3146C65.3044 23.2056 65.3044 23.1436 65.2154 23.1302C65.1207 23.11 65.0937 23.0619 65.1345 22.9865L65.2154 23.0375C65.27 22.921 65.27 22.8219 65.2154 22.7396C65.1678 22.6637 65.1678 22.5924 65.2154 22.524C65.1414 22.3797 65.1345 22.1472 65.1953 21.825C65.2568 21.4964 65.2361 21.2112 65.1345 20.9724L65.2769 20.8281C65.1345 20.7869 65.1006 20.7191 65.1752 20.6229C65.27 20.5128 65.2568 20.4108 65.1345 20.3151C65.1885 20.205 65.2361 20.023 65.2769 19.7697L65.1856 19.7181H65.2154L65.2769 19.6573L65.1345 19.5228L65.2154 19.5744C65.2493 19.2388 65.243 19.0504 65.1953 19.0099H65.1345C65.1546 18.996 65.1821 18.996 65.2154 19.0099C65.2493 18.989 65.2395 18.9235 65.1856 18.814C65.131 18.7253 65.162 18.6801 65.2769 18.6801L65.1345 18.5468L65.2154 18.5989C65.3044 18.4958 65.3044 18.4337 65.2154 18.4129C65.1207 18.3926 65.0937 18.3451 65.1345 18.2691L65.2154 18.352C65.2837 18.0848 65.2837 17.9028 65.2154 17.8072C65.162 17.7724 65.1345 17.7382 65.1345 17.7046C65.1821 17.7249 65.2154 17.7556 65.2361 17.7968C65.3176 17.7347 65.3107 17.6565 65.2154 17.5609C65.27 17.3273 65.243 17.0467 65.1345 16.7175C65.1752 16.7175 65.2229 16.6909 65.2769 16.6358L65.1345 16.5019C65.2631 16.3379 65.2631 16.1658 65.1345 15.9884L65.2154 16.0603C65.2568 15.6493 65.2298 15.3891 65.1345 15.2795L65.2154 15.3305C65.2906 15.2964 65.3107 15.1868 65.2769 15.0019C65.2022 15.0292 65.1787 14.9915 65.2057 14.8883C65.2464 14.7591 65.2229 14.6692 65.1345 14.6211L65.328 14.4878C65.2332 14.2415 65.1678 14.0873 65.1345 14.0253L65.2154 14.1082C65.2361 13.998 65.2568 13.7784 65.2769 13.4503L65.1345 13.3164L65.2154 13.3674C65.2837 13.0116 65.2568 12.731 65.1345 12.5253C65.2298 12.4911 65.2631 12.3091 65.2361 11.9804C65.2022 11.5695 65.1953 11.333 65.2154 11.271H65.0834L65.2769 11.0763L65.1546 10.994C65.2493 10.8566 65.27 10.6653 65.2154 10.4184C65.1678 10.2196 65.2057 10.0967 65.328 10.0486C65.0765 9.50033 64.9956 9.01752 65.0834 8.59963H65.1345C65.1207 8.57877 65.0937 8.26056 65.053 7.64387C65.0197 7.10947 64.9376 6.83938 64.8084 6.83242C64.7751 6.7223 64.7613 6.49973 64.7682 6.16414C64.7682 5.91781 64.7039 5.73234 64.5747 5.60888C64.5747 5.34227 64.476 5.05131 64.2791 4.736C64.0552 4.40737 63.91 4.17089 63.8416 4.02657H63.7096C63.7435 3.84805 63.6889 3.71127 63.5466 3.61563C63.3973 3.52 63.3255 3.42031 63.333 3.31714L63.1906 3.18383C63.1774 3.21803 63.0988 3.23599 62.9564 3.23599C63.0373 3.11254 62.9363 2.99604 62.651 2.88591C62.3392 2.76941 62.1969 2.64943 62.2227 2.52656C64.5575 2.58162 65.7482 2.60887 65.7958 2.60887C67.2753 2.61524 68.5205 2.54337 69.5314 2.39267L69.4809 2.44426C69.5624 2.49236 69.6738 2.48889 69.8162 2.43383C69.9385 2.38572 70.0435 2.41702 70.1325 2.52656C70.2204 2.80709 70.1796 3.11602 70.0102 3.45103C69.8133 3.84168 69.7284 4.20509 69.7559 4.54068H69.6738L69.5314 6.12241H69.4809V6.63652H69.3489C69.4023 6.70549 69.4126 6.75998 69.3782 6.8017C69.3518 6.8359 69.3684 6.873 69.4293 6.91415C69.4023 6.9211 69.3753 7.03065 69.3489 7.24336L69.4293 7.29436L69.4809 7.34653L69.4293 7.30422C69.3213 11.2368 69.2771 13.721 69.2978 14.7556H69.2157C69.2501 14.7759 69.2501 14.9231 69.2157 15.1967L69.1548 15.1352C69.121 15.1491 69.1043 15.214 69.1043 15.3305L69.2157 15.4639H69.1548C69.1956 15.807 69.1956 16.4776 69.1548 17.478L69.1043 17.5609L69.2157 17.7046L69.1548 17.6321C69.1313 17.8124 69.152 17.9422 69.2157 18.0222C69.2094 18.0576 69.1881 18.4958 69.1548 19.3379L69.2157 19.2562L69.2978 19.5744C69.2978 19.6155 69.2943 19.6364 69.2869 19.6364C69.2737 19.5611 69.2501 19.5228 69.2157 19.5228V19.9853L69.1548 19.9042C69.0532 19.9517 69.0567 20.0195 69.1646 20.1088C69.2467 20.1847 69.226 20.2253 69.1043 20.2322C69.3489 20.3082 69.4126 20.5719 69.2978 21.0234H69.2157C69.3311 22.9552 69.3311 24.6987 69.2157 26.2543C69.311 26.8704 69.3586 27.7375 69.3586 28.8538C69.3586 30.0049 69.3822 30.7543 69.4293 31.1044C69.5045 31.2754 69.5682 31.7315 69.6233 32.4711C69.7525 33.1417 70.047 33.5295 70.5085 33.6321C70.5361 33.646 70.6308 33.6668 70.7939 33.6947C70.9288 33.7352 70.9701 33.8071 70.9156 33.9097C71.031 33.9161 71.2112 33.9126 71.4552 33.8993C71.6659 33.9062 71.8255 33.9543 71.9329 34.043L71.8829 34.0952C73.3279 34.2041 74.3188 34.225 74.8544 34.156C74.9704 34.0059 75.2448 33.9126 75.6794 33.879C76.1272 33.8517 76.4188 33.7688 76.5543 33.6321C76.7242 33.5567 76.8367 33.417 76.8901 33.2113C76.9854 32.8548 77.0428 32.6531 77.0635 32.605C77.0635 32.714 77.0802 32.7766 77.114 32.7899C77.0738 32.5841 77.145 32.372 77.3282 32.1523C77.4981 31.9605 77.5348 31.7825 77.4401 31.6179C77.5968 31.6046 77.6944 31.5188 77.7352 31.3612C77.7828 31.156 77.8202 31.0424 77.8471 31.0221L77.8982 31.1044C77.939 31.0569 77.9625 30.9027 77.9694 30.6419C77.9763 30.4634 78.0607 30.399 78.2243 30.4466L78.2743 29.7168H78.4878C78.4143 29.4914 78.4442 29.2961 78.5803 29.1309C78.7433 28.9326 78.8214 28.717 78.8145 28.484H78.9259L79.3846 27.2304L79.4661 27.2918C79.4925 27.0524 79.5608 26.802 79.6687 26.5424C79.7916 26.2543 79.8662 26.0317 79.8938 25.8741C79.8938 25.888 79.9202 25.9216 79.9747 25.9767C80.0488 25.648 80.1613 25.3049 80.31 24.9496C80.4598 24.5723 80.5655 24.264 80.6263 24.024C80.7612 24.0518 80.8192 24.0072 80.7991 23.8907C80.7716 23.7609 80.7957 23.6954 80.8703 23.6954C80.8427 23.565 80.9007 23.4624 81.0431 23.387C81.0907 23.0653 81.1212 22.8393 81.135 22.7089C81.3319 22.586 81.4404 22.3321 81.4605 21.9484L81.5116 21.9994L81.7355 21.4036L81.7865 21.4859L81.9186 20.7463L81.9697 20.8281C82.0236 20.7463 82.0684 20.5719 82.1017 20.3041C82.1224 20.1123 82.2137 19.9784 82.3773 19.9042C82.3222 19.7181 82.3698 19.5506 82.5191 19.3999C82.6821 19.2353 82.7436 19.0336 82.7022 18.7937H82.7533C82.8486 18.6082 82.9123 18.3723 82.9462 18.0848C83.0685 18.0645 83.1334 17.9306 83.1403 17.6837C83.1403 17.4026 83.1839 17.2282 83.2723 17.1598L83.3538 17.2311C83.3337 17.0467 83.4147 16.783 83.5978 16.4405C83.7677 16.1182 83.8286 15.8852 83.7815 15.7415L83.863 15.7931C83.8963 15.6076 84.0186 15.2517 84.2287 14.7243C84.4055 14.2652 84.5003 13.8578 84.5146 13.5013L84.5651 13.5628C84.5583 13.5077 84.6093 13.2788 84.7179 12.8748C84.7994 12.5456 84.7758 12.3021 84.6467 12.1451C84.7144 12.1045 84.7311 12.0112 84.6972 11.8674L84.6157 11.7851C84.5623 11.7237 84.4802 11.4704 84.3717 11.0241C84.1202 10.7714 83.9273 10.5761 83.7913 10.4387C83.5473 10.1924 83.4181 9.99763 83.4049 9.85389H83.5369V9.9049C84.0054 9.8707 85.7489 9.85389 88.7686 9.85389C88.9587 9.86722 89.0499 10.0312 89.0436 10.3465C89.0298 10.6688 89.0913 10.8328 89.2268 10.8398L89.3691 11.9289H89.5017C89.4541 12.1821 89.5419 12.5288 89.7664 12.9669C89.9966 13.419 90.0988 13.7511 90.0712 13.9644C90.2814 14.2247 90.387 14.5255 90.387 14.868H90.5294C90.6316 15.738 90.8652 16.4364 91.2321 16.9639C91.2384 17.1151 91.3164 17.3273 91.4657 17.6014C91.5949 17.8211 91.6219 18.0263 91.5478 18.2181C91.8056 18.5746 91.9847 18.9165 92.0869 19.2458C92.2224 19.6909 92.3688 20.0647 92.5249 20.3655C92.7419 20.7701 93.0473 21.6442 93.44 22.9865C93.5353 23.1708 93.6679 23.4143 93.8378 23.7156C93.9596 23.9689 93.9969 24.2054 93.9492 24.4245C94.1869 24.6442 94.3603 25.0174 94.4682 25.5449C94.5842 25.5721 94.6617 25.7437 94.703 26.059C94.7506 26.3807 94.8689 26.5725 95.0589 26.6339C95.0859 26.6548 95.1778 27.0072 95.3334 27.6923L95.3844 27.7543C95.296 27.7334 95.2524 27.7613 95.2524 27.8366C95.2857 27.905 95.3747 27.9224 95.5176 27.8882C95.5647 28.0186 95.6422 28.1861 95.7513 28.3913C95.8121 28.5078 95.8598 28.6863 95.8937 28.9263H95.9746C95.989 29.1042 96.0906 29.3981 96.2806 29.809C96.4838 30.2344 96.5992 30.5561 96.6262 30.7758C96.8914 31.1108 97.0338 31.3919 97.0539 31.6179C96.9391 31.7756 96.9999 31.9674 97.237 32.1935C97.4546 32.3859 97.4845 32.5227 97.3289 32.605C97.4644 32.605 97.5792 32.7041 97.6745 32.9029C97.7434 33.0606 97.8404 33.3312 97.9696 33.7149C97.9834 33.7283 98.1498 33.9885 98.4685 34.4957C98.6786 34.8307 98.8921 34.9854 99.1097 34.9576C99.6327 34.917 99.9955 34.5403 100.199 33.828C100.179 33.7868 100.226 33.6425 100.342 33.3962C100.457 33.1493 100.488 32.9644 100.433 32.8409L100.515 31.2893C100.772 31.1728 100.816 30.9572 100.647 30.6419C100.599 30.6146 100.575 30.5665 100.575 30.4982L100.657 30.6419C100.746 30.4095 100.718 30.1452 100.575 29.8513C100.677 29.7481 100.722 29.6826 100.709 29.6554L100.575 29.5215C100.684 29.5974 100.79 29.5528 100.891 29.3882C100.871 29.3476 100.793 29.3262 100.657 29.3262C100.725 29.292 100.742 29.2033 100.709 29.059L100.657 29.008L100.709 28.9263L100.575 28.8132L100.657 28.8643C100.725 28.8301 100.742 28.7234 100.709 28.5461L100.657 28.484C100.725 28.3125 100.729 28.0592 100.667 27.7236C100.613 27.4286 100.643 27.2205 100.759 27.097L100.575 26.9116L100.657 26.9632C100.691 26.9498 100.709 26.8843 100.709 26.7673L100.657 26.7162C100.677 25.9152 100.694 25.3125 100.709 24.9073C100.729 24.1753 100.711 23.5963 100.657 23.1708H100.709L100.657 21.1573H100.709C100.674 19.4648 100.657 18.1323 100.657 17.1598H100.709C100.783 17.1117 100.762 17.0601 100.647 17.0062C100.566 16.9639 100.586 16.9337 100.709 16.9129L100.575 16.7691L100.657 16.8306C100.705 16.7077 100.722 16.5292 100.709 16.2962C100.701 16.0771 100.718 15.9264 100.759 15.8447C100.698 15.4065 100.572 14.8443 100.382 14.1586L100.515 14.0253C100.494 13.9847 100.406 13.9644 100.25 13.9644C100.277 13.7929 100.226 13.6109 100.097 13.419C99.9548 13.1999 99.8801 13.0116 99.8727 12.8533L99.7917 12.9055C99.6769 12.5896 99.4421 12.2268 99.0896 11.8158C99.1304 11.6791 99.0862 11.6037 98.9576 11.5904C98.8152 11.5765 98.7676 11.4976 98.8152 11.3539C98.3875 10.8601 98.0649 10.5964 97.8479 10.5622L97.5224 10.0486L97.6544 9.71942C97.7221 9.80868 97.8306 9.85389 97.9805 9.85389V9.71942C98.9501 9.88403 100.569 9.92866 102.836 9.85389V9.6377C103.364 9.84983 103.609 10.2022 103.568 10.696H103.68C103.687 10.874 103.758 11.0902 103.894 11.3435C104.036 11.6176 104.118 11.8129 104.138 11.9289C104.253 11.9358 104.382 12.1213 104.525 12.4841C104.688 12.902 104.817 13.1518 104.912 13.2341C105.115 13.426 105.352 13.7546 105.624 14.2206C105.882 14.6594 106.095 14.9468 106.265 15.0836C106.333 15.1868 106.418 15.3613 106.521 15.6076C106.628 15.8134 106.74 15.9403 106.856 15.9884C106.794 15.9884 106.751 16.0122 106.723 16.0603C106.873 16.0533 107.025 16.1802 107.182 16.4405C107.358 16.728 107.483 16.8862 107.558 16.9129C107.606 16.9673 107.725 17.1632 107.914 17.4983C108.044 17.7318 108.212 17.9063 108.423 18.0222C108.383 18.1602 108.416 18.2523 108.525 18.3004C108.661 18.3555 108.735 18.4094 108.749 18.4645C108.79 18.4372 108.776 18.4616 108.709 18.5363C108.653 18.6325 108.685 18.6975 108.8 18.7322H108.932C109.319 19.3965 109.581 19.7865 109.715 19.9042C110.042 20.0473 110.428 20.5302 110.876 21.3526L110.937 21.2906L111.395 22.1432L111.446 22.0615C111.466 22.0887 111.677 22.2945 112.077 22.6782C112.287 22.8764 112.475 23.1505 112.637 23.5006H112.82V23.7777C113.669 24.7027 115.155 26.3088 117.279 28.5971C117.326 28.5217 117.346 28.3264 117.339 28.0117C117.332 27.7514 117.401 27.6007 117.544 27.559L117.411 27.4257H117.492C117.425 27.3642 117.401 27.2953 117.421 27.2205C117.462 27.1376 117.482 27.0762 117.482 27.0344C117.434 27.0142 117.411 26.9736 117.411 26.9116C117.451 26.9388 117.478 26.9834 117.492 27.0455C117.526 27.031 117.544 26.9666 117.544 26.8501L117.411 26.7162L117.492 26.7673C117.607 26.1169 117.58 25.6173 117.411 25.2672L117.492 25.3293C117.492 25.1647 117.499 25.0482 117.512 24.9798C117.533 24.8633 117.607 24.7879 117.737 24.7537C117.601 24.6987 117.536 24.5995 117.544 24.4558C117.549 24.2709 117.533 24.1509 117.492 24.0959C117.547 24.0414 117.563 23.9968 117.544 23.9626L117.492 23.9116C117.526 23.8907 117.544 23.8182 117.544 23.6954C117.496 23.5447 117.486 23.3186 117.512 23.0172C117.547 22.6399 117.557 22.3663 117.544 22.1954V21.5375C117.496 21.5647 117.451 21.5474 117.411 21.4859L117.492 21.5375C117.492 20.2838 117.509 19.2869 117.544 18.5468H117.594V18.403C117.567 18.4169 117.529 18.3995 117.482 18.352L117.411 18.2691L117.492 18.352C117.465 18.283 117.478 18.1532 117.533 17.9614C117.574 17.8037 117.533 17.6704 117.411 17.5609C117.52 17.4913 117.563 17.4304 117.544 17.3754L117.411 17.2311L117.492 17.2937C117.533 17.2247 117.549 17.1801 117.544 17.1598C117.489 17.1801 117.478 17.1262 117.512 16.9957C117.56 16.8236 117.57 16.7036 117.544 16.6358C117.549 16.608 117.506 16.5466 117.411 16.4509L117.492 16.5019C117.547 16.4057 117.54 16.262 117.472 16.0701C117.397 15.8719 117.377 15.7345 117.411 15.6592L117.492 15.7415C117.594 15.5572 117.58 15.334 117.451 15.0738C117.316 14.8066 117.285 14.5904 117.359 14.4258L117.279 13.8305H117.359C117.359 13.5975 117.312 13.4428 117.217 13.3674L117.167 13.3164L117.217 13.3471C117.184 13.2376 117.122 12.8991 117.035 12.3299L116.953 12.2482L117.035 12.1961C116.682 11.6141 116.413 11.1858 116.23 10.9117C115.912 10.4323 115.592 10.1449 115.274 10.0486C115.172 9.92518 115.232 9.84983 115.456 9.82259ZM86.4482 15.7931L86.3356 15.8957L86.3161 15.9884C86.2002 16.0701 86.1054 16.2759 86.0308 16.6045C85.9699 16.8584 85.8678 16.9604 85.7254 16.9129C85.6708 17.2763 85.6307 17.4954 85.6031 17.5707C85.5285 17.762 85.3964 17.9133 85.2064 18.0222C85.3011 18.2628 85.2638 18.523 85.0945 18.8035C84.8769 19.16 84.7615 19.3999 84.7483 19.5228C84.7207 19.5164 84.7075 19.626 84.7075 19.852C84.7006 20.0578 84.6093 20.1018 84.4331 19.9853L84.3717 20.6432C84.2563 20.7191 84.1782 20.8727 84.1374 21.1057C84.0898 21.4343 84.0628 21.6053 84.0565 21.6198C83.9882 21.6743 83.9273 21.7288 83.8728 21.7844C83.7643 21.8864 83.7775 21.9792 83.9141 22.0615C83.7298 22.1159 83.6426 22.2875 83.6495 22.5756C83.6552 22.8764 83.5743 23.0578 83.4049 23.1198C83.4726 23.2502 83.4078 23.5308 83.2114 23.9626L83.1293 23.9116V24.1573C82.9812 24.2529 82.8825 24.4662 82.8348 24.7943C82.7935 25.1507 82.7223 25.3739 82.6213 25.4626C82.4312 26.0039 82.6109 26.2955 83.1603 26.336C83.3102 26.3499 83.5438 26.3563 83.863 26.3563C84.1202 26.3708 84.2902 26.4259 84.3717 26.5209C86.7874 26.5209 88.2531 26.5424 88.7686 26.5829L88.5855 26.4392C89.054 26.2682 89.6102 26.2062 90.255 26.2543C90.3835 26.1517 90.4243 26.0625 90.3767 25.9871C90.3089 25.8706 90.2957 25.7611 90.3365 25.6579C90.2412 25.5617 90.17 25.4046 90.1223 25.1849C90.0615 24.9456 89.9966 24.774 89.9289 24.6714C89.6912 24.5201 89.6579 24.3492 89.8273 24.1573H89.6952C89.6476 24.0617 89.6102 23.9892 89.5827 23.9417C89.5356 23.8455 89.5459 23.7643 89.6137 23.6954H89.6952C89.5052 23.6612 89.3823 23.4826 89.3284 23.161C89.2807 22.8323 89.2474 22.6637 89.2268 22.6573H89.283C89.1975 22.6556 89.128 22.5837 89.074 22.4411C89.0195 22.2701 88.9655 22.1716 88.911 22.1432C88.9449 22.0134 88.8806 21.8047 88.7181 21.5172C88.5551 21.2292 88.4936 20.9996 88.5344 20.8281C88.3312 20.7869 88.2491 20.6675 88.291 20.4687C88.3312 20.2218 88.3203 20.0613 88.2594 19.9853C88.2594 20.1018 88.2433 20.1673 88.2089 20.1812C88.1343 20.0508 88.0797 19.9546 88.0459 19.8926C87.9787 19.7697 87.9609 19.6637 87.9953 19.5744C87.8593 19.3211 87.7473 19.1055 87.6589 18.927C87.5033 18.5989 87.4419 18.3352 87.4764 18.1358C87.334 18.1016 87.2657 17.9985 87.2726 17.8281C87.2863 17.6084 87.2726 17.4745 87.2318 17.427H87.0992C86.9361 17.1598 86.9092 16.9882 87.0182 16.9129C86.8558 16.8236 86.7461 16.6631 86.6921 16.4295C86.6037 16.1217 86.5228 15.909 86.4482 15.7931Z" fill="white"/>
</g>
<defs>
<clipPath id="clip0_2246_1896">
<rect width="120" height="43" fill="white"/>
</clipPath>
</defs>
</svg>
