<svg width="16" height="16" viewBox="0 0 16 16" fill="none" xmlns="http://www.w3.org/2000/svg">
<g clip-path="url(#clip0_1_2150)">
<path fill-rule="evenodd" clip-rule="evenodd" d="M4.1668 1.40503C5.08875 0.460374 6.41016 0 7.99993 0C9.5897 0 10.9111 0.460374 11.8331 1.40503C12.753 2.34762 13.1986 3.69399 13.1986 5.31264C13.1986 5.98406 13.2952 6.38139 13.4085 6.63677C13.5185 6.88427 13.6617 7.03987 13.8472 7.2136C13.8714 7.23633 13.8979 7.26051 13.926 7.28622C14.0996 7.44498 14.3369 7.66178 14.5152 7.95576C14.7371 8.32171 14.8571 8.77245 14.8571 9.38697C14.8571 10.1832 14.4257 10.7753 13.8604 11.1888C13.308 11.593 12.5879 11.8613 11.8695 12.0446C10.4261 12.413 8.80016 12.4846 7.99993 12.4846C7.1997 12.4846 5.57383 12.413 4.13048 12.0446C3.41206 11.8613 2.69193 11.593 2.13949 11.1888C1.57425 10.7752 1.14282 10.1832 1.14282 9.38697C1.14282 8.77246 1.26286 8.32174 1.48475 7.95579C1.66302 7.66182 1.90021 7.44501 2.07391 7.28624C2.10202 7.26055 2.12848 7.23635 2.15274 7.21361C2.33817 7.03989 2.48135 6.88427 2.5913 6.63677C2.70474 6.38139 2.80122 5.98405 2.80122 5.31264C2.80122 3.69399 3.24684 2.34762 4.1668 1.40503ZM5.34483 14.3267C5.23464 14.0371 5.56321 13.7855 5.8713 13.819C6.74457 13.9141 7.51841 13.9376 7.99971 13.9376C8.48084 13.9376 9.25432 13.9141 10.1272 13.8191C10.4352 13.7856 10.7637 14.0371 10.6535 14.3267C10.4521 14.8562 10.1041 15.2922 9.61962 15.587C9.14377 15.8765 8.58607 16.0001 7.99916 16.0001C7.41226 16.0001 6.85456 15.8765 6.37872 15.587C5.8942 15.2922 5.54626 14.8562 5.34483 14.3267Z" fill="white"/>
</g>
<defs>
<clipPath id="clip0_1_2150">
<rect width="16" height="16" fill="white"/>
</clipPath>
</defs>
</svg>
