<svg width="12" height="12" viewBox="0 0 12 12" fill="none" xmlns="http://www.w3.org/2000/svg">
<g clip-path="url(#clip0_1_69)">
<path fill-rule="evenodd" clip-rule="evenodd" d="M4.28733 0.856724C4.28733 0.501684 3.99952 0.213867 3.64448 0.213867C3.28944 0.213867 3.00162 0.501684 3.00162 0.856724V1.54446C1.62086 1.70796 0.523869 2.79379 0.365284 4.15578C0.163883 5.8855 0.163883 7.36371 0.365284 9.09344C0.532158 10.5266 1.7381 11.654 3.22037 11.7227C4.10882 11.7639 5.01603 11.7853 5.99986 11.7853C6.9837 11.7853 7.89092 11.7639 8.77932 11.7227C10.2617 11.654 11.4676 10.5266 11.6345 9.09344C11.8358 7.36371 11.8358 5.8855 11.6345 4.15578C11.4759 2.79385 10.3789 1.70805 8.99823 1.54449V0.856724C8.99823 0.501684 8.71049 0.213867 8.35542 0.213867C8.00037 0.213867 7.71256 0.501684 7.71256 0.856724V1.48699C7.16114 1.47172 6.5945 1.4639 5.99986 1.4639C5.4053 1.4639 4.83871 1.47172 4.28733 1.48699V0.856724ZM9.18003 6.30353C9.07152 6.22463 8.94055 6.19127 8.81301 6.20371C8.69566 5.72558 8.47574 5.30684 8.14197 4.97308C7.61108 4.44218 6.86519 4.19924 6.00729 4.19924C5.14682 4.19924 4.39908 4.44365 3.86799 4.97769C3.65936 5.18748 3.66031 5.52667 3.87009 5.7353C4.07988 5.94394 4.41908 5.94299 4.62771 5.73321C4.9035 5.45587 5.34468 5.27067 6.00729 5.27067C6.66797 5.27067 7.10849 5.45482 7.38435 5.73069C7.51372 5.86006 7.62292 6.02563 7.70242 6.23314C7.5991 6.24248 7.4983 6.28177 7.41373 6.35019C7.23598 6.49398 7.16907 6.73473 7.24714 6.94961C7.40504 7.38423 7.72459 7.68713 8.16701 7.82158C8.27792 7.85529 8.39677 7.85211 8.50571 7.81252C8.94029 7.65463 9.2432 7.33509 9.37769 6.89266C9.44403 6.67423 9.36475 6.43774 9.18003 6.30353ZM2.81813 7.8967C2.63346 7.7625 2.55413 7.52601 2.62051 7.30758C2.75496 6.86515 3.05786 6.54561 3.49248 6.38771C3.60142 6.34813 3.72026 6.34495 3.83117 6.37865C4.2736 6.5131 4.59314 6.81601 4.75104 7.25062C4.82911 7.46551 4.76221 7.70626 4.58446 7.85005C4.49989 7.91847 4.39909 7.95776 4.29577 7.96709C4.37527 8.17461 4.48447 8.34019 4.61383 8.46955C4.88969 8.74544 5.33021 8.92955 5.9909 8.92955C6.65351 8.92955 7.09468 8.74432 7.37048 8.46704C7.57911 8.25725 7.9183 8.25631 8.1281 8.46494C8.33788 8.67352 8.33882 9.01278 8.1302 9.22252C7.5991 9.75661 6.85137 10.001 5.9909 10.001C5.13299 10.001 4.38711 9.75807 3.85622 9.22715C3.52245 8.89338 3.30249 8.47466 3.18517 7.99653C3.05763 8.00896 2.92669 7.9756 2.81813 7.8967Z" fill="url(#paint0_linear_1_69)"/>
</g>
<defs>
<linearGradient id="paint0_linear_1_69" x1="11.7855" y1="5.99958" x2="0.214233" y2="5.99958" gradientUnits="userSpaceOnUse">
<stop stop-color="#D9107F"/>
<stop offset="0.293269" stop-color="#EE1E03"/>
<stop offset="0.572115" stop-color="#F61785"/>
<stop offset="1" stop-color="#FC7C20"/>
</linearGradient>
<clipPath id="clip0_1_69">
<rect width="12" height="12" fill="white"/>
</clipPath>
</defs>
</svg>
