<svg width="16" height="16" viewBox="0 0 16 16" fill="none" xmlns="http://www.w3.org/2000/svg">
<g clip-path="url(#clip0_1_2153)">
<path fill-rule="evenodd" clip-rule="evenodd" d="M2.92573 0.549232C4.55624 0.377975 6.25904 0.285713 8.00005 0.285713C9.73733 0.285713 11.4102 0.383644 13.0398 0.552145C14.2604 0.678346 15.2657 1.60169 15.4418 2.83634C15.6151 4.05138 15.7143 5.31759 15.7143 6.6092C15.7143 7.89391 15.6055 9.13887 15.4357 10.3416C15.2591 11.5925 14.2433 12.5386 13.0004 12.6648C11.4311 12.8242 9.81076 12.9272 8.13609 12.9325C6.96408 14.2442 5.99313 14.9432 4.38803 15.6641C4.21121 15.7435 4.00619 15.7279 3.84346 15.6226C3.68073 15.5173 3.58248 15.3367 3.58248 15.1429V12.6705L3.32573 12.6466L3.07685 12.6234C1.81843 12.5063 0.724529 11.5797 0.542971 10.2754C0.377755 9.08863 0.285767 7.86727 0.285767 6.6092C0.285767 5.30903 0.377597 4.02859 0.554841 2.80113C0.73081 1.58249 1.72322 0.675535 2.92573 0.549232ZM4.50005 4.57837C4.50005 4.18389 4.81985 3.86408 5.21434 3.86408H10.7858C11.1803 3.86408 11.5001 4.18389 11.5001 4.57837C11.5001 4.97286 11.1803 5.29265 10.7858 5.29265H5.21434C4.81985 5.29265 4.50005 4.97286 4.50005 4.57837ZM4.50005 8.00694C4.50005 7.61246 4.81985 7.29265 5.21434 7.29265H9.42862C9.82312 7.29265 10.1429 7.61246 10.1429 8.00694C10.1429 8.40143 9.82312 8.72122 9.42862 8.72122H5.21434C4.81985 8.72122 4.50005 8.40143 4.50005 8.00694Z" fill="white"/>
</g>
<defs>
<clipPath id="clip0_1_2153">
<rect width="16" height="16" fill="white"/>
</clipPath>
</defs>
</svg>
