<svg width="28" height="28" viewBox="0 0 28 28" fill="none" xmlns="http://www.w3.org/2000/svg">
<g opacity="0.8" clip-path="url(#clip0_6_165)">
<path fill-rule="evenodd" clip-rule="evenodd" d="M5.11994 0.961158C7.97332 0.661458 10.9532 0.5 14 0.5C17.0402 0.5 19.9678 0.671378 22.8196 0.966256C24.9556 1.18711 26.7148 2.80296 27.023 4.9636C27.3264 7.08992 27.5 9.30578 27.5 11.5661C27.5 13.8143 27.3096 15.993 27.0124 18.0978C26.7034 20.2868 24.9256 21.9426 22.7506 22.1634C20.0044 22.4424 17.1687 22.6226 14.2381 22.6318C12.187 24.9274 10.4879 26.1506 7.67896 27.4122C7.36952 27.5512 7.01074 27.5238 6.72596 27.3396C6.44118 27.1552 6.26924 26.8392 6.26924 26.5V22.1734L5.81994 22.1316L5.3844 22.091C3.18216 21.886 1.26783 20.2644 0.950108 17.982C0.66098 15.9051 0.5 13.7677 0.5 11.5661C0.5 9.2908 0.660704 7.05004 0.97088 4.90198C1.27883 2.76936 3.01554 1.18219 5.11994 0.961158ZM7.875 8.01214C7.875 7.3218 8.43464 6.76214 9.125 6.76214H18.875C19.5654 6.76214 20.125 7.3218 20.125 8.01214C20.125 8.7025 19.5654 9.26214 18.875 9.26214H9.125C8.43464 9.26214 7.875 8.7025 7.875 8.01214ZM7.875 14.0121C7.875 13.3218 8.43464 12.7621 9.125 12.7621H16.5C17.1904 12.7621 17.75 13.3218 17.75 14.0121C17.75 14.7025 17.1904 15.2621 16.5 15.2621H9.125C8.43464 15.2621 7.875 14.7025 7.875 14.0121Z" fill="white"/>
</g>
<defs>
<clipPath id="clip0_6_165">
<rect width="28" height="28" fill="white"/>
</clipPath>
</defs>
</svg>
