<svg width="16" height="16" viewBox="0 0 16 16" fill="none" xmlns="http://www.w3.org/2000/svg">
<path fill-rule="evenodd" clip-rule="evenodd" d="M9.16175 1.71078C8.55669 0.952995 7.44277 0.952995 6.8377 1.71078C5.95603 2.81498 4.81579 4.61685 4.0532 6.68484L2.09536 4.87359C1.49904 4.32192 0.448725 4.54223 0.260535 5.43342C-0.207635 7.65046 0.0428096 10.0566 0.329741 11.6778C0.592047 13.1599 1.77695 14.2579 3.24069 14.4847C6.44882 14.9818 9.55121 14.9817 12.7593 14.4846C14.223 14.2578 15.4079 13.1598 15.6702 11.6777C15.9571 10.0564 16.2075 7.65032 15.7394 5.43325C15.5512 4.54207 14.5009 4.32176 13.9046 4.87342L11.9463 6.68505C11.1837 4.61697 10.0435 2.81502 9.16175 1.71078Z" fill="#A3A3A3"/>
</svg>
