<svg width="19" height="16" viewBox="0 0 19 16" fill="none" xmlns="http://www.w3.org/2000/svg">
<path fill-rule="evenodd" clip-rule="evenodd" d="M10.8796 0.663024C10.1611 -0.221008 8.83832 -0.221008 8.11981 0.663024C7.07282 1.95119 5.71878 4.05325 4.8132 6.46577L2.48825 4.35277C1.78012 3.70919 0.532863 3.9662 0.309387 5.00586C-0.246568 7.59227 0.0508366 10.3992 0.391569 12.2906C0.703059 14.0196 2.11014 15.3006 3.84833 15.5651C7.65801 16.1451 11.3421 16.1449 15.1517 15.565C16.8898 15.3004 18.2969 14.0194 18.6084 12.2905C18.9492 10.3991 19.2465 7.59211 18.6906 5.00566C18.4671 3.96601 17.2199 3.709 16.5117 4.35257L14.1863 6.46602C13.2807 4.0534 11.9266 1.95123 10.8796 0.663024Z" fill="white"/>
</svg>
