<svg width="14" height="12" viewBox="0 0 14 12" fill="none" xmlns="http://www.w3.org/2000/svg">
<path fill-rule="evenodd" clip-rule="evenodd" d="M8.01656 0.497268C7.48713 -0.165756 6.51245 -0.165756 5.98302 0.497268C5.21155 1.46339 4.21384 3.03994 3.54657 4.84933L1.83345 3.26457C1.31167 2.78189 0.392636 2.97465 0.227969 3.7544C-0.181681 5.6942 0.0374586 7.79942 0.288525 9.21795C0.518043 10.5147 1.55484 11.4754 2.83561 11.6738C5.64274 12.1088 8.35734 12.1087 11.1644 11.6737C12.4452 11.4753 13.482 10.5146 13.7115 9.21786C13.9626 7.79932 14.1817 5.69408 13.7721 3.75425C13.6074 2.97451 12.6884 2.78175 12.1666 3.26442L10.453 4.84952C9.78581 3.04005 8.78806 1.46342 8.01656 0.497268Z" fill="#A3A3A3"/>
</svg>
