<svg width="12" height="12" viewBox="0 0 12 12" fill="none" xmlns="http://www.w3.org/2000/svg">
<g clip-path="url(#clip0_1_1868)">
<path fill-rule="evenodd" clip-rule="evenodd" d="M1.5741 1.5741C2.62325 0.524942 4.13826 0 6 0C7.86174 0 9.37671 0.524942 10.4259 1.5741C11.4751 2.62325 12 4.13826 12 6C12 7.86174 11.4751 9.37671 10.4259 10.4259C9.37671 11.4751 7.86174 12 6 12C4.13826 12 2.62325 11.4751 1.5741 10.4259C0.524942 9.37671 0 7.86174 0 6C0 4.13826 0.524942 2.62325 1.5741 1.5741ZM6.53571 2.57143C6.53571 2.27556 6.29587 2.03571 6 2.03571C5.70413 2.03571 5.46429 2.27556 5.46429 2.57143V2.75712C5.0117 2.82061 4.62178 2.96967 4.31584 3.21036C3.88078 3.55261 3.67021 4.03845 3.67021 4.56004C3.67021 5.5635 4.64357 6.21025 5.92445 6.39323C6.50709 6.47646 6.93505 6.60679 7.20457 6.7769C7.44525 6.9288 7.53307 7.08937 7.53307 7.30564C7.53307 7.48605 7.43673 7.69671 7.17846 7.88179C6.91905 8.06767 6.51591 8.20719 6.00021 8.20719C5.46747 8.20719 5.05688 8.08388 4.79781 7.91879C4.54324 7.75657 4.46735 7.58263 4.46735 7.44004C4.46735 7.14417 4.22751 6.90433 3.93164 6.90433C3.63578 6.90433 3.39592 7.14417 3.39592 7.44004C3.39592 8.04174 3.74632 8.51923 4.22204 8.8224C4.56668 9.042 4.99287 9.18437 5.46429 9.24506V9.42857C5.46429 9.72446 5.70413 9.96429 6 9.96429C6.29587 9.96429 6.53571 9.72446 6.53571 9.42857V9.24034C7.0208 9.16937 7.45526 9.00154 7.80254 8.75271C8.27455 8.41446 8.60451 7.90648 8.60451 7.30564C8.60451 6.65379 8.26603 6.17985 7.77642 5.87084C7.31566 5.58003 6.70934 5.42305 6.07598 5.33257C4.92485 5.16813 4.74164 4.70876 4.74164 4.56004C4.74164 4.3424 4.82021 4.17681 4.9783 4.05244C5.14782 3.91908 5.45793 3.79672 5.97574 3.79299C5.98378 3.79335 5.99187 3.79353 6 3.79353C6.00811 3.79353 6.01618 3.79335 6.02421 3.79299C6.53509 3.79687 6.84601 3.92439 7.01835 4.0625C7.18391 4.19517 7.25878 4.36503 7.25878 4.56004C7.25878 4.85591 7.49863 5.09576 7.7945 5.09576C8.09037 5.09576 8.33021 4.85591 8.33021 4.56004C8.33021 4.05061 8.11594 3.56905 7.68836 3.22641C7.38342 2.98204 6.99282 2.82555 6.53571 2.75872V2.57143Z" fill="url(#paint0_linear_1_1868)"/>
</g>
<defs>
<linearGradient id="paint0_linear_1_1868" x1="12" y1="6" x2="0" y2="6" gradientUnits="userSpaceOnUse">
<stop stop-color="#D9107F"/>
<stop offset="0.293269" stop-color="#EE1E03"/>
<stop offset="0.572115" stop-color="#F61785"/>
<stop offset="1" stop-color="#FC7C20"/>
</linearGradient>
<clipPath id="clip0_1_1868">
<rect width="12" height="12" fill="white"/>
</clipPath>
</defs>
</svg>
