<svg width="12" height="12" viewBox="0 0 12 12" fill="none" xmlns="http://www.w3.org/2000/svg">
<g clip-path="url(#clip0_1_1880)">
<path fill-rule="evenodd" clip-rule="evenodd" d="M11.5713 3.85052C11.5512 2.51915 10.7783 1.21466 9.59871 0.678766C8.99991 0.406767 8.30648 0.339224 7.58295 0.563149C6.97833 0.750275 6.37149 1.13467 5.78571 1.74058C5.19993 1.13468 4.59309 0.750284 3.98847 0.563169C3.26493 0.339258 2.57148 0.406826 1.97274 0.678845C0.793073 1.21478 0.0202355 2.51929 4.92505e-05 3.85067L0 3.85717C0 5.79385 1.18075 7.50583 2.42586 8.70421C3.05496 9.30978 3.71883 9.80238 4.29769 10.1463C4.58697 10.3181 4.86069 10.4561 5.10302 10.5525C5.2041 10.5927 5.30683 10.6287 5.408 10.6563C4.76781 9.89563 4.17166 8.84161 4.17166 7.58455V7.57808C4.17166 7.56847 4.17179 7.55887 4.17205 7.54928C4.19413 6.39295 4.85197 5.19943 5.99644 4.67676C6.60183 4.40029 7.30434 4.33669 8.00774 4.55551C8.22147 4.62201 8.42622 4.71165 8.62157 4.82136C8.81691 4.71165 9.02169 4.62201 9.23537 4.55551C9.93883 4.33669 10.6413 4.40024 11.2467 4.6767C11.3269 4.71331 11.4046 4.75321 11.48 4.79616C11.5393 4.4901 11.5714 4.17662 11.5714 3.85702L11.5713 3.85052ZM10.8016 5.65129C11.5272 5.98265 11.9879 6.77722 12 7.57798L12.0002 7.58444C12.0002 8.73206 11.307 9.72635 10.606 10.4046C10.2491 10.7499 9.8718 11.0317 9.54017 11.2298C9.37449 11.3287 9.21454 11.4101 9.06943 11.4681C8.93486 11.522 8.77483 11.5716 8.62157 11.5716C8.46836 11.5716 8.3083 11.522 8.17376 11.4681C8.02863 11.4101 7.86867 11.3287 7.70301 11.2298C7.37137 11.0318 6.99404 10.7499 6.63712 10.4047C5.93615 9.72643 5.24309 8.73215 5.24309 7.58453V7.57807C5.25517 6.77731 5.71594 5.98272 6.44154 5.65135C6.8134 5.48151 7.24437 5.4401 7.68947 5.57857C8.00955 5.67815 8.32269 5.86597 8.62157 6.14374C8.92046 5.86597 9.23357 5.67814 9.55371 5.57856C9.99883 5.44008 10.4298 5.48148 10.8016 5.65129Z" fill="url(#paint0_linear_1_1880)"/>
</g>
<defs>
<linearGradient id="paint0_linear_1_1880" x1="12.0002" y1="6.00016" x2="0" y2="6.00016" gradientUnits="userSpaceOnUse">
<stop stop-color="#D9107F"/>
<stop offset="0.293269" stop-color="#EE1E03"/>
<stop offset="0.572115" stop-color="#F61785"/>
<stop offset="1" stop-color="#FC7C20"/>
</linearGradient>
<clipPath id="clip0_1_1880">
<rect width="12" height="12" fill="white"/>
</clipPath>
</defs>
</svg>
