<svg width="12" height="12" viewBox="0 0 12 12" fill="none" xmlns="http://www.w3.org/2000/svg">
<path fill-rule="evenodd" clip-rule="evenodd" d="M1.76601 3.19038C2.81536 2.19852 4.30859 1.28571 6 1.28571C7.69141 1.28571 9.18463 2.19852 10.234 3.19038C10.7628 3.69024 11.1939 4.22384 11.4959 4.70172C11.6468 4.94054 11.7692 5.17127 11.8551 5.38196C11.9379 5.58487 12 5.80064 12 5.99999C12 6.19935 11.9379 6.41511 11.8551 6.61803C11.7692 6.82871 11.6468 7.05945 11.4959 7.29826C11.1939 7.77615 10.7628 8.30973 10.234 8.80962C9.18463 9.80151 7.69141 10.7143 6 10.7143C4.30859 10.7143 2.81536 9.80151 1.76601 8.80962C1.23717 8.30973 0.806043 7.77615 0.504093 7.29826C0.353194 7.05945 0.230865 6.82871 0.144933 6.61803C0.0621673 6.41511 0 6.19935 0 5.99999C0 5.80064 0.0621673 5.58487 0.144933 5.38196C0.230865 5.17127 0.353194 4.94054 0.504093 4.70172C0.806043 4.22384 1.23717 3.69024 1.76601 3.19038ZM4.5799 4.57989C4.92234 4.23747 5.41198 4.07142 6 4.07142C6.58802 4.07142 7.07766 4.23747 7.4201 4.57989C7.76253 4.92233 7.92857 5.41197 7.92857 5.99999C7.92857 6.58801 7.76253 7.07765 7.4201 7.42009C7.07766 7.76252 6.58802 7.92856 6 7.92856C5.41198 7.92856 4.92234 7.76252 4.5799 7.42009C4.23747 7.07765 4.07143 6.58801 4.07143 5.99999C4.07143 5.41197 4.23747 4.92233 4.5799 4.57989Z" fill="#A3A3A3"/>
</svg>
