<svg width="12" height="12" viewBox="0 0 12 12" fill="none" xmlns="http://www.w3.org/2000/svg">
<g clip-path="url(#clip0_1_1874)">
<path fill-rule="evenodd" clip-rule="evenodd" d="M11.5713 3.85003C11.5512 2.51866 10.7783 1.21417 9.59871 0.678278C8.99991 0.406279 8.30648 0.338735 7.58295 0.562661C6.97833 0.749787 6.37149 1.13419 5.78571 1.74009C5.19993 1.13419 4.59309 0.749795 3.98847 0.562681C3.26493 0.33877 2.57148 0.406337 1.97274 0.678357C0.793073 1.21429 0.0202355 2.51881 4.92505e-05 3.85018L0 3.85668C0 5.79336 1.18075 7.50535 2.42586 8.70372C3.05496 9.30929 3.71883 9.80189 4.29769 10.1458C4.58697 10.3176 4.86069 10.4556 5.10302 10.5521C5.2041 10.5923 5.30683 10.6282 5.408 10.6559C4.76781 9.89515 4.17166 8.84112 4.17166 7.58406V7.57759C4.17166 7.56798 4.17179 7.55838 4.17205 7.54879C4.19413 6.39246 4.85197 5.19895 5.99644 4.67627C6.60183 4.3998 7.30434 4.33621 8.00774 4.55503C8.22147 4.62152 8.42622 4.71116 8.62157 4.82087C8.81691 4.71116 9.02169 4.62152 9.23537 4.55503C9.93883 4.3362 10.6413 4.39975 11.2467 4.67621C11.3269 4.71282 11.4046 4.75273 11.48 4.79567C11.5393 4.48961 11.5714 4.17614 11.5714 3.85653L11.5713 3.85003ZM10.8016 5.65081C11.5272 5.98216 11.9879 6.77673 12 7.57749L12.0002 7.58395C12.0002 8.73158 11.307 9.72586 10.606 10.4041C10.2491 10.7495 9.8718 11.0312 9.54017 11.2293C9.37449 11.3282 9.21454 11.4096 9.06943 11.4677C8.93486 11.5215 8.77483 11.5711 8.62157 11.5711C8.46836 11.5711 8.3083 11.5215 8.17376 11.4677C8.02863 11.4096 7.86867 11.3282 7.70301 11.2293C7.37137 11.0313 6.99404 10.7495 6.63712 10.4042C5.93615 9.72595 5.24309 8.73166 5.24309 7.58404V7.57758C5.25517 6.77682 5.71594 5.98223 6.44154 5.65086C6.8134 5.48102 7.24437 5.43961 7.68947 5.57808C8.00955 5.67766 8.32269 5.86549 8.62157 6.14325C8.92046 5.86549 9.23357 5.67765 9.55371 5.57807C9.99883 5.43959 10.4298 5.48099 10.8016 5.65081Z" fill="url(#paint0_linear_1_1874)"/>
</g>
<defs>
<linearGradient id="paint0_linear_1_1874" x1="12.0002" y1="5.99967" x2="0" y2="5.99967" gradientUnits="userSpaceOnUse">
<stop stop-color="#D9107F"/>
<stop offset="0.293269" stop-color="#EE1E03"/>
<stop offset="0.572115" stop-color="#F61785"/>
<stop offset="1" stop-color="#FC7C20"/>
</linearGradient>
<clipPath id="clip0_1_1874">
<rect width="12" height="12" fill="white"/>
</clipPath>
</defs>
</svg>
