<svg width="12" height="12" viewBox="0 0 12 12" fill="none" xmlns="http://www.w3.org/2000/svg">
<g clip-path="url(#clip0_1_1892)">
<path fill-rule="evenodd" clip-rule="evenodd" d="M5.72759 0.9711C6.14974 0.44332 6.71553 0 7.43068 0C8.14582 0 8.71157 0.443325 9.13372 0.971109C9.56066 1.50487 9.90069 2.19689 10.1631 2.85975C10.4276 3.52755 10.6233 4.19162 10.7525 4.68637C10.8173 4.93442 10.8659 5.14146 10.8983 5.28715C10.9146 5.36003 10.9269 5.41764 10.9351 5.45745L10.9445 5.50354L10.947 5.516L10.9479 5.52051L10.5192 5.60532C10.9479 5.52108 10.9479 5.52063 10.9479 5.52051L10.9482 5.52216C11.3709 7.73062 11.2004 9.85329 9.4758 11.2291C8.86989 11.7124 8.1193 11.9009 7.4215 11.955C5.42305 12.1099 3.80636 11.8755 2.66541 11.0866C1.49754 10.279 0.919699 8.95757 0.858542 7.16781L0.858353 7.16223C0.841113 6.36225 1.00891 5.56888 1.34721 4.86733C1.52858 4.49122 1.7558 4.1481 2.02181 3.84851C2.29981 3.53542 2.68464 3.46041 3.0218 3.54622C3.34572 3.62867 3.63137 3.85641 3.80046 4.16099C3.89725 4.33533 4.00247 4.50229 4.11545 4.66105C4.24476 4.16908 4.43825 3.51621 4.69819 2.85972C4.96065 2.19687 5.30067 1.50486 5.72759 0.9711ZM5.42203 6.56733C5.62617 6.35765 5.88524 6.19524 6.19689 6.19524C6.50904 6.19524 6.76595 6.35814 6.96676 6.56865C7.1674 6.77899 7.32774 7.05243 7.45164 7.31481C7.57633 7.57886 7.66856 7.84136 7.72949 8.03687C7.76004 8.13492 7.78294 8.21679 7.79827 8.27447C7.80593 8.30332 7.81173 8.32616 7.81564 8.34199L7.82011 8.36036L7.8213 8.36536L7.82164 8.36679L7.64631 8.40807C7.8218 8.36747 7.82165 8.36685 7.82164 8.36679L7.82192 8.36799C7.92149 8.80423 7.95386 9.20974 7.85324 9.56734C7.7501 9.93394 7.5131 10.2299 7.11754 10.4523C6.49611 10.8016 5.85753 10.8016 5.23608 10.4523C4.84053 10.2299 4.60353 9.93394 4.50039 9.56734C4.39977 9.20974 4.43213 8.80423 4.53172 8.36799L4.53258 8.3642L4.55443 8.36971L4.70678 8.40795L4.53258 8.3642L4.53315 8.36211L4.53444 8.3571L4.53927 8.33876C4.54349 8.32294 4.54973 8.30012 4.55796 8.27128C4.57442 8.21363 4.59892 8.1318 4.6314 8.0338C4.69617 7.83837 4.79352 7.57604 4.92332 7.31221C5.05232 7.04999 5.21779 6.77709 5.42203 6.56733Z" fill="url(#paint0_linear_1_1892)"/>
</g>
<defs>
<linearGradient id="paint0_linear_1_1892" x1="11.1429" y1="6" x2="0.857147" y2="6" gradientUnits="userSpaceOnUse">
<stop stop-color="#D9107F"/>
<stop offset="0.293269" stop-color="#EE1E03"/>
<stop offset="0.572115" stop-color="#F61785"/>
<stop offset="1" stop-color="#FC7C20"/>
</linearGradient>
<clipPath id="clip0_1_1892">
<rect width="12" height="12" fill="white"/>
</clipPath>
</defs>
</svg>
