<svg width="10" height="10" viewBox="0 0 10 10" fill="none" xmlns="http://www.w3.org/2000/svg">
<g clip-path="url(#clip0_1_1000)">
<path fill-rule="evenodd" clip-rule="evenodd" d="M4.77299 0.80925C5.12478 0.369434 5.59627 0 6.19223 0C6.78818 0 7.25964 0.369437 7.61143 0.809257C7.96721 1.25406 8.25057 1.83074 8.46929 2.38312C8.68964 2.93962 8.85271 3.49301 8.96043 3.90531C9.01443 4.11201 9.05493 4.28455 9.08193 4.40596C9.0955 4.46669 9.10571 4.5147 9.11257 4.54788L9.12043 4.58629L9.1225 4.59666L9.12321 4.60043L8.766 4.6711C9.12329 4.6009 9.12321 4.60053 9.12321 4.60043L9.1235 4.6018C9.47578 6.44219 9.33364 8.21107 7.8965 9.35757C7.39157 9.76036 6.76608 9.91743 6.18458 9.9625C4.51921 10.0916 3.17196 9.89629 2.22117 9.23886C1.24795 8.56586 0.766413 7.46464 0.715449 5.97318L0.715292 5.96853C0.700925 5.30188 0.840756 4.64074 1.12267 4.05611C1.27381 3.74269 1.46316 3.45675 1.68484 3.20709C1.91651 2.94619 2.2372 2.88367 2.51816 2.95519C2.7881 3.02389 3.02614 3.21368 3.16705 3.46749C3.24771 3.61278 3.33539 3.75191 3.42954 3.88421C3.5373 3.47424 3.69854 2.93017 3.91516 2.3831C4.13387 1.83073 4.41722 1.25405 4.77299 0.80925ZM4.51836 5.47277C4.68847 5.29804 4.90436 5.1627 5.16407 5.1627C5.4242 5.1627 5.63829 5.29845 5.80563 5.47388C5.97283 5.64916 6.10645 5.87703 6.2097 6.09568C6.31361 6.31571 6.39046 6.53446 6.44124 6.69739C6.4667 6.7791 6.48578 6.84733 6.49856 6.89539C6.50494 6.91944 6.50977 6.93846 6.51303 6.95166L6.51676 6.96696L6.51775 6.97114L6.51803 6.97232L6.37192 7.00673C6.51816 6.97289 6.51804 6.97237 6.51803 6.97232L6.51826 6.97332C6.60124 7.33686 6.62821 7.67479 6.54436 7.97278C6.45841 8.27829 6.26091 8.52493 5.93128 8.71021C5.41342 9.00136 4.88127 9.00136 4.3634 8.71021C4.03377 8.52493 3.83627 8.27829 3.75032 7.97278C3.66647 7.67479 3.69344 7.33686 3.77643 6.97332L3.77715 6.97016L3.79536 6.97476L3.92231 7.00662L3.77715 6.97016L3.77762 6.96842L3.7787 6.96425L3.78272 6.94896C3.78624 6.93579 3.79144 6.91676 3.7983 6.89274C3.81201 6.84469 3.83243 6.7765 3.8595 6.69484C3.91347 6.53197 3.9946 6.31336 4.10276 6.09351C4.21026 5.87499 4.34816 5.64757 4.51836 5.47277Z" fill="white"/>
</g>
<defs>
<clipPath id="clip0_1_1000">
<rect width="10" height="10" fill="white"/>
</clipPath>
</defs>
</svg>
