<svg width="16" height="16" viewBox="0 0 16 16" fill="none" xmlns="http://www.w3.org/2000/svg">
<g clip-path="url(#clip0_1_1071)">
<path fill-rule="evenodd" clip-rule="evenodd" d="M6.28571 0.285706C5.15144 0.285706 4.04805 0.402834 3.00601 0.522672C1.70029 0.672835 0.655765 1.71565 0.510674 3.02453C0.395613 4.06248 0.285706 5.15881 0.285706 6.28572C0.285706 7.41263 0.395613 8.50896 0.510674 9.54692C0.632242 10.6436 1.38524 11.5535 2.39423 11.908C2.33166 11.2075 2.28571 10.4702 2.28571 9.71425C2.28571 8.50173 2.40391 7.3372 2.51937 6.29566C2.73823 4.32129 4.3071 2.75789 6.27136 2.53199C7.31429 2.41205 8.48999 2.28567 9.71428 2.28567C10.4743 2.28567 11.2155 2.33437 11.9179 2.39999C11.5631 1.39524 10.6552 0.64801 9.5654 0.522672C8.52336 0.402834 7.41997 0.285706 6.28571 0.285706ZM9.71428 3.71424C8.58001 3.71424 7.47662 3.83137 6.43459 3.95121C5.12886 4.10137 4.08433 5.14419 3.93925 6.45307C3.82419 7.49102 3.71428 8.58735 3.71428 9.71425C3.71428 10.8412 3.82419 11.9375 3.93925 12.9754C4.08433 14.2843 5.12886 15.3272 6.43459 15.4774C7.47662 15.5971 8.58001 15.7143 9.71428 15.7143C10.8485 15.7143 11.9519 15.5971 12.9939 15.4774C14.2996 15.3272 15.3442 14.2843 15.4894 12.9754C15.6043 11.9375 15.7143 10.8412 15.7143 9.71425C15.7143 8.58735 15.6043 7.49102 15.4894 6.45307C15.3442 5.14419 14.2996 4.10137 12.9939 3.95121C11.9519 3.83137 10.8485 3.71424 9.71428 3.71424ZM10.5608 6.79717C10.8474 6.51059 11.2503 6.37919 11.7143 6.37919C12.1783 6.37919 12.5811 6.51059 12.8678 6.79717C13.1543 7.08374 13.2857 7.48661 13.2857 7.95062C13.2857 8.41464 13.1543 8.8175 12.8678 9.10408C12.5811 9.39067 12.1783 9.52205 11.7143 9.52205C11.2503 9.52205 10.8474 9.39067 10.5608 9.10408C10.2742 8.8175 10.1428 8.41464 10.1428 7.95062C10.1428 7.48661 10.2742 7.08374 10.5608 6.79717ZM7.26105 9.52205C9.00513 9.52205 10.6848 11.9247 11.6911 13.893C11.03 13.9561 10.3741 14 9.71424 14C8.68801 14 7.67139 13.8939 6.6304 13.7743C6.11495 13.715 5.69963 13.2969 5.64307 12.7866C5.55097 11.9559 5.46835 11.1376 5.43944 10.3167C6.01972 9.8304 6.63625 9.52205 7.26105 9.52205Z" fill="white"/>
</g>
<defs>
<clipPath id="clip0_1_1071">
<rect width="16" height="16" fill="white"/>
</clipPath>
</defs>
</svg>
