<svg width="12" height="12" viewBox="0 0 12 12" fill="none" xmlns="http://www.w3.org/2000/svg">
<g clip-path="url(#clip0_1_595)">
<path fill-rule="evenodd" clip-rule="evenodd" d="M4.71429 0.213867C3.8636 0.213867 3.03605 0.301713 2.25453 0.391592C1.27523 0.504214 0.491839 1.28632 0.38302 2.26798C0.296725 3.04645 0.214294 3.8687 0.214294 4.71388C0.214294 5.55906 0.296725 6.38131 0.38302 7.15978C0.474196 7.98228 1.03894 8.6647 1.79569 8.93058C1.74876 8.40524 1.71429 7.85225 1.71429 7.28528C1.71429 6.37588 1.80295 5.50249 1.88955 4.72133C2.05369 3.24056 3.23034 2.068 4.70354 1.89858C5.48573 1.80862 6.36751 1.71384 7.28572 1.71384C7.85571 1.71384 8.41165 1.75036 8.93847 1.79958C8.67232 1.04602 7.99145 0.485595 7.17406 0.391592C6.39254 0.301713 5.56499 0.213867 4.71429 0.213867ZM7.28572 2.78527C6.43503 2.78527 5.60748 2.87312 4.82595 2.963C3.84666 3.07562 3.06327 3.85773 2.95445 4.83939C2.86815 5.61785 2.78572 6.4401 2.78572 7.28528C2.78572 8.13046 2.86815 8.9527 2.95445 9.73115C3.06327 10.7128 3.84666 11.495 4.82595 11.6076C5.60748 11.6974 6.43503 11.7853 7.28572 11.7853C8.13642 11.7853 8.96392 11.6974 9.74547 11.6076C10.7248 11.495 11.5082 10.7128 11.617 9.73115C11.7033 8.9527 11.7857 8.13046 11.7857 7.28528C11.7857 6.4401 11.7033 5.61785 11.617 4.83939C11.5082 3.85773 10.7248 3.07562 9.74547 2.963C8.96392 2.87312 8.13642 2.78527 7.28572 2.78527ZM7.92063 5.09746C8.13556 4.88253 8.43771 4.78398 8.78572 4.78398C9.13372 4.78398 9.43587 4.88253 9.65084 5.09746C9.86572 5.31239 9.96429 5.61454 9.96429 5.96255C9.96429 6.31057 9.86572 6.61271 9.65084 6.82765C9.43587 7.04259 9.13372 7.14112 8.78572 7.14112C8.43771 7.14112 8.13556 7.04259 7.92063 6.82765C7.7057 6.61271 7.60715 6.31057 7.60715 5.96255C7.60715 5.61454 7.7057 5.31239 7.92063 5.09746ZM5.44581 7.14112C6.75387 7.14112 8.0136 8.9431 8.76832 10.4194C8.27255 10.4667 7.78061 10.4996 7.2857 10.4996C6.51603 10.4996 5.75355 10.42 4.97282 10.3303C4.58623 10.2858 4.27473 9.97227 4.23231 9.58955C4.16325 8.9665 4.10127 8.35277 4.0796 7.7371C4.5148 7.37239 4.97721 7.14112 5.44581 7.14112Z" fill="#A3A3A3"/>
</g>
<defs>
<clipPath id="clip0_1_595">
<rect width="12" height="12" fill="white"/>
</clipPath>
</defs>
</svg>
