<svg width="28" height="28" viewBox="0 0 28 28" fill="none" xmlns="http://www.w3.org/2000/svg">
<g opacity="0.8" clip-path="url(#clip0_6_172)">
<path fill-rule="evenodd" clip-rule="evenodd" d="M3.6729 3.6729C6.12092 1.22486 9.65594 0 14 0C18.3441 0 21.879 1.22486 24.3272 3.6729C26.7752 6.12092 28 9.65594 28 14C28 18.3441 26.7752 21.879 24.3272 24.3272C21.879 26.7752 18.3441 28 14 28C9.65594 28 6.12092 26.7752 3.6729 24.3272C1.22486 21.879 0 18.3441 0 14C0 9.65594 1.22486 6.12092 3.6729 3.6729ZM15.25 6C15.25 5.30964 14.6904 4.75 14 4.75C13.3096 4.75 12.75 5.30964 12.75 6V6.43328C11.694 6.58142 10.7842 6.92924 10.0703 7.49084C9.05516 8.28942 8.56382 9.42306 8.56382 10.6401C8.56382 12.9815 10.835 14.4906 13.8237 14.9175C15.1832 15.1117 16.1818 15.4158 16.8107 15.8128C17.3722 16.1672 17.5772 16.5419 17.5772 17.0465C17.5772 17.4675 17.3524 17.959 16.7497 18.3908C16.1445 18.8246 15.2038 19.1501 14.0005 19.1501C12.7574 19.1501 11.7994 18.8624 11.1949 18.4772C10.6009 18.0987 10.4238 17.6928 10.4238 17.3601C10.4238 16.6697 9.86418 16.1101 9.17382 16.1101C8.48348 16.1101 7.92382 16.6697 7.92382 17.3601C7.92382 18.7641 8.74142 19.8782 9.85142 20.5856C10.6556 21.098 11.65 21.4302 12.75 21.5718V22C12.75 22.6904 13.3096 23.25 14 23.25C14.6904 23.25 15.25 22.6904 15.25 22V21.5608C16.3819 21.3952 17.3956 21.0036 18.2059 20.423C19.3073 19.6337 20.0772 18.4485 20.0772 17.0465C20.0772 15.5255 19.2874 14.4197 18.145 13.6986C17.0699 13.0201 15.6551 12.6538 14.1773 12.4427C11.4913 12.059 11.0638 10.9871 11.0638 10.6401C11.0638 10.1323 11.2472 9.74588 11.616 9.4557C12.0116 9.14452 12.7352 8.85902 13.9434 8.8503C13.9622 8.85114 13.981 8.85156 14 8.85156C14.0189 8.85156 14.0378 8.85114 14.0565 8.8503C15.2485 8.85936 15.974 9.1569 16.3762 9.47916C16.7625 9.78872 16.9372 10.1851 16.9372 10.6401C16.9372 11.3305 17.4968 11.8901 18.1872 11.8901C18.8775 11.8901 19.4372 11.3305 19.4372 10.6401C19.4372 9.45142 18.9372 8.32778 17.9395 7.52828C17.228 6.9581 16.3166 6.59294 15.25 6.43702V6Z" fill="white"/>
</g>
<defs>
<clipPath id="clip0_6_172">
<rect width="28" height="28" fill="white"/>
</clipPath>
</defs>
</svg>
