<svg width="28" height="28" viewBox="0 0 28 28" fill="none" xmlns="http://www.w3.org/2000/svg">
<g opacity="0.8">
<path d="M7.84615 16C8.86576 16 9.69231 15.1046 9.69231 14C9.69231 12.8954 8.86576 12 7.84615 12C6.82655 12 6 12.8954 6 14C6 15.1046 6.82655 16 7.84615 16Z" fill="white"/>
<path d="M15.8462 14C15.8462 15.1046 15.0196 16 14 16C12.9804 16 12.1538 15.1046 12.1538 14C12.1538 12.8954 12.9804 12 14 12C15.0196 12 15.8462 12.8954 15.8462 14Z" fill="white"/>
<path d="M22 14C22 15.1046 21.1734 16 20.1538 16C19.1342 16 18.3077 15.1046 18.3077 14C18.3077 12.8954 19.1342 12 20.1538 12C21.1734 12 22 12.8954 22 14Z" fill="white"/>
</g>
</svg>
