<svg width="22" height="22" viewBox="0 0 22 22" fill="none" xmlns="http://www.w3.org/2000/svg">
<g clip-path="url(#clip0_22_866)">
<path fill-rule="evenodd" clip-rule="evenodd" d="M11 0C8.8214 0 7.03022 0.273573 5.35296 0.529747L5.04012 0.577448C3.52136 0.808231 2.32343 2.02164 2.23448 3.5365C1.90904 9.07828 1.92237 14.4024 2.27444 19.9617C2.34235 21.034 3.2478 22.151 4.6177 21.9846C6.75988 21.7242 8.92865 20.4993 11 19.2013C13.0714 20.4993 15.2401 21.7242 17.3823 21.9846C18.7523 22.151 19.6577 21.034 19.7256 19.9617C20.0776 14.4024 20.091 9.07828 19.7655 3.5365C19.6767 2.02164 18.4787 0.808231 16.96 0.577448L16.6471 0.529749C14.9698 0.273573 13.1786 0 11 0Z" fill="white"/>
</g>
<defs>
<clipPath id="clip0_22_866">
<rect width="22" height="22" fill="white"/>
</clipPath>
</defs>
</svg>
