<svg width="22" height="22" viewBox="0 0 22 22" fill="none" xmlns="http://www.w3.org/2000/svg">
<g clip-path="url(#clip0_22_903)">
<path fill-rule="evenodd" clip-rule="evenodd" d="M5.47456 2.50894L5.7594 2.46529C7.40599 2.2126 9.02409 1.96429 11 1.96429C12.9759 1.96429 14.594 2.2126 16.2406 2.46529L16.5255 2.50894C17.1838 2.60959 17.6914 3.13912 17.7287 3.77839C18.0421 9.14516 18.0293 14.2986 17.6903 19.6832C17.6813 19.8273 17.6194 19.935 17.5613 19.9905C17.5343 20.0161 17.5126 20.0268 17.5005 20.031C17.4905 20.0345 17.4769 20.0376 17.452 20.0345C15.7027 19.8207 13.7817 18.7167 11.5658 17.3035C11.223 17.0849 10.777 17.0849 10.4342 17.3035C8.21836 18.7167 6.29726 19.8207 4.54803 20.0345C4.52313 20.0376 4.50946 20.0345 4.49955 20.031C4.48742 20.0268 4.46574 20.0161 4.43869 19.9905C4.38055 19.935 4.31878 19.8273 4.3097 19.6832C3.97071 14.2986 3.95789 9.14516 4.27119 3.77839C4.30852 3.13912 4.81612 2.60959 5.47456 2.50894ZM11 0C8.85709 0 7.09444 0.270847 5.46027 0.521955L5.15303 0.569083C3.56729 0.811468 2.32143 2.08414 2.22895 3.66844C1.91118 9.11172 1.92421 14.3415 2.26797 19.8019C2.33917 20.9327 3.2996 22.1672 4.80623 21.983C6.90751 21.7263 9.01853 20.5419 11 19.2981C12.9815 20.5419 15.0925 21.7263 17.1938 21.983C18.7004 22.1672 19.6608 20.9327 19.732 19.8019C20.0758 14.3415 20.0889 9.11172 19.7711 3.66844C19.6786 2.08414 18.4327 0.811468 16.8471 0.569083L16.5397 0.521955C14.9056 0.270847 13.1429 0 11 0Z" fill="#A3A3A3"/>
</g>
<defs>
<clipPath id="clip0_22_903">
<rect width="22" height="22" fill="white"/>
</clipPath>
</defs>
</svg>
