<svg width="16" height="16" viewBox="0 0 16 16" fill="none" xmlns="http://www.w3.org/2000/svg">
<path fill-rule="evenodd" clip-rule="evenodd" d="M4.03825 0.266295C5.31096 0.124433 6.63903 0 8 0C9.36097 0 10.689 0.124433 11.9617 0.266295C13.9433 0.487169 15.5355 2.07799 15.7479 4.06315C15.8834 5.32928 16 6.64846 16 8C16 9.35153 15.8834 10.6707 15.7479 11.9368C15.5355 13.922 13.9433 15.5129 11.9617 15.7337C10.689 15.8756 9.36097 16 8 16C6.63903 16 5.31096 15.8756 4.03825 15.7337C2.05668 15.5129 0.464484 13.922 0.252094 11.9368C0.116632 10.6707 0 9.35153 0 8C0 6.64846 0.116632 5.32928 0.252094 4.06315C0.464482 2.07799 2.05668 0.487169 4.03825 0.266295ZM5.22838 10.7778C5.09595 9.91228 4.94892 8.77646 4.94892 8.00002C4.94892 7.22356 5.09601 6.08769 5.22849 5.22219C5.33153 4.54901 5.9945 4.11812 6.64198 4.32917C8.52187 4.94197 10.2851 5.90726 11.4753 7.38692C11.764 7.74585 11.7639 8.25419 11.4752 8.61311C10.285 10.0927 8.52179 11.0581 6.64188 11.6709C5.99438 11.882 5.33139 11.451 5.22838 10.7778Z" fill="white"/>
</svg>
