<svg width="10" height="10" viewBox="0 0 10 10" fill="none" xmlns="http://www.w3.org/2000/svg">
<path fill-rule="evenodd" clip-rule="evenodd" d="M4.98992 0C5.5714 0 6.04277 0.45467 6.04277 1.01554V3.98441H8.94715C9.52864 3.98441 10 4.43909 10 4.99995C10 5.56082 9.52864 6.01548 8.94715 6.01548H6.04277V8.98446C6.04277 9.54532 5.5714 10 4.98992 10C4.40846 10 3.93707 9.54532 3.93707 8.98446V6.01548H1.05285C0.471372 6.01548 0 5.56082 0 4.99995C0 4.43909 0.471372 3.98441 1.05285 3.98441H3.93707V1.01554C3.93707 0.45467 4.40846 0 4.98992 0Z" fill="black"/>
</svg>
