<svg width="12" height="12" viewBox="0 0 12 12" fill="none" xmlns="http://www.w3.org/2000/svg">
<path fill-rule="evenodd" clip-rule="evenodd" d="M5.92819 0C4.78934 0 3.92508 0.0691367 3.41134 0.13249C3.01922 0.180845 2.67584 0.418979 2.49651 0.775225C1.67533 2.40653 1.36741 4.59959 1.28729 6.2323C1.25053 6.98114 1.85918 7.57197 2.58214 7.57197H3.87065C3.50228 8.82017 3.25726 9.85826 3.17861 11.1037C3.13152 11.8494 3.97389 12.2593 4.54155 11.8174C7.54396 9.48086 9.6353 6.90146 10.5599 5.27523C10.9556 4.57928 10.5567 3.7381 9.78762 3.57651C9.35425 3.48543 8.90219 3.42645 8.38238 3.38958L9.03316 1.86578C9.34439 1.13698 8.94042 0.257457 8.09245 0.142605C7.51939 0.0649898 6.77431 0 5.92819 0Z" fill="url(#paint0_linear_1_1851)"/>
<defs>
<linearGradient id="paint0_linear_1_1851" x1="10.715" y1="5.99981" x2="1.28571" y2="5.99981" gradientUnits="userSpaceOnUse">
<stop stop-color="#D9107F"/>
<stop offset="0.293269" stop-color="#EE1E03"/>
<stop offset="0.572115" stop-color="#F61785"/>
<stop offset="1" stop-color="#FC7C20"/>
</linearGradient>
</defs>
</svg>
