<svg width="28" height="28" viewBox="0 0 28 28" fill="none" xmlns="http://www.w3.org/2000/svg">
<g opacity="0.8" clip-path="url(#clip0_1_498)">
<path fill-rule="evenodd" clip-rule="evenodd" d="M7.09806 0.674224C9.14804 0.348184 11.3373 0 14 0C16.6627 0 18.852 0.348184 20.902 0.674226L21.2844 0.734934C23.1406 1.02866 24.6048 2.573 24.7134 4.501C25.1112 11.5542 25.0948 18.3303 24.6646 25.4058C24.5816 26.7706 23.475 28.1922 21.8006 27.9804C19.1824 27.649 16.5317 26.09 14 24.438C11.4683 26.09 8.81762 27.649 6.1994 27.9804C4.52508 28.1922 3.41842 26.7706 3.33542 25.4058C2.90512 18.3303 2.88882 11.5542 3.28658 4.501C3.3953 2.573 4.85944 1.02866 6.7157 0.734934L7.09806 0.674224ZM14 6C14.8284 6 15.5 6.67158 15.5 7.5V11H19C19.8284 11 20.5 11.6716 20.5 12.5C20.5 13.3284 19.8284 14 19 14H15.5V17.5C15.5 18.3284 14.8284 19 14 19C13.1716 19 12.5 18.3284 12.5 17.5V14H9C8.17158 14 7.5 13.3284 7.5 12.5C7.5 11.6716 8.17158 11 9 11H12.5V7.5C12.5 6.67158 13.1716 6 14 6Z" fill="white"/>
</g>
<defs>
<clipPath id="clip0_1_498">
<rect width="28" height="28" fill="white"/>
</clipPath>
</defs>
</svg>
