<svg width="12" height="12" viewBox="0 0 12 12" fill="none" xmlns="http://www.w3.org/2000/svg">
<g clip-path="url(#clip0_1_1886)">
<path fill-rule="evenodd" clip-rule="evenodd" d="M3.1348 0.406455C4.05525 0.303859 5.01573 0.213867 6 0.213867C6.98428 0.213867 7.94476 0.303859 8.86517 0.406455C10.2983 0.566195 11.4498 1.7167 11.6034 3.15239C11.7014 4.06808 11.7857 5.02213 11.7857 5.99958C11.7857 6.97702 11.7014 7.93108 11.6034 8.84675C11.4498 10.2825 10.2983 11.433 8.86517 11.5927C7.94476 11.6953 6.98428 11.7853 6 11.7853C5.01573 11.7853 4.05525 11.6953 3.1348 11.5927C1.7017 11.433 0.550208 10.2825 0.396605 8.84675C0.298637 7.93108 0.214287 6.97702 0.214287 5.99958C0.214287 5.02213 0.298637 4.06808 0.396605 3.15239C0.550207 1.7167 1.7017 0.566195 3.1348 0.406455ZM6.66058 2.69671C6.33013 2.24336 5.67147 2.24352 5.34098 2.69644C5.01988 3.13648 4.79108 3.60854 4.63296 4.13742C4.1195 4.14755 3.62937 4.22825 3.14124 4.3928C2.60955 4.57204 2.41364 5.20668 2.71348 5.66242C3.01292 6.11755 3.37209 6.49146 3.81168 6.81004C3.66274 7.32028 3.59006 7.82727 3.5849 8.35351C3.57952 8.90084 4.09265 9.3571 4.66289 9.17195C5.14926 9.01398 5.5867 8.7835 5.99948 8.4671C6.41263 8.78367 6.85072 9.01415 7.33737 9.17204C7.90752 9.35701 8.42066 8.90092 8.41528 8.35351C8.41012 7.82727 8.33744 7.32028 8.1885 6.81004C8.62809 6.49146 8.98723 6.11755 9.28672 5.66242C9.58654 5.20668 9.3906 4.57204 8.85892 4.3928C8.37083 4.22826 7.88072 4.14756 7.36728 4.13742C7.20946 3.60886 6.98139 3.13684 6.66058 2.69671Z" fill="url(#paint0_linear_1_1886)"/>
</g>
<defs>
<linearGradient id="paint0_linear_1_1886" x1="11.7857" y1="5.99958" x2="0.214287" y2="5.99958" gradientUnits="userSpaceOnUse">
<stop stop-color="#D9107F"/>
<stop offset="0.293269" stop-color="#EE1E03"/>
<stop offset="0.572115" stop-color="#F61785"/>
<stop offset="1" stop-color="#FC7C20"/>
</linearGradient>
<clipPath id="clip0_1_1886">
<rect width="12" height="12" fill="white"/>
</clipPath>
</defs>
</svg>
