<svg width="20" height="20" viewBox="0 0 20 20" fill="none" xmlns="http://www.w3.org/2000/svg">
<g clip-path="url(#clip0_1_1029)">
<path fill-rule="evenodd" clip-rule="evenodd" d="M5.22468 0.678402C6.75875 0.507408 8.35955 0.357422 10 0.357422C11.6405 0.357422 13.2413 0.507408 14.7753 0.678402C17.1639 0.944635 19.083 2.86214 19.339 5.25496C19.5023 6.78111 19.6429 8.37119 19.6429 10.0003C19.6429 11.6293 19.5023 13.2194 19.339 14.7456C19.083 17.1384 17.1639 19.056 14.7753 19.3221C13.2413 19.4931 11.6405 19.6431 10 19.6431C8.35955 19.6431 6.75875 19.4931 5.22468 19.3221C2.83618 19.056 0.917016 17.1384 0.66101 14.7456C0.49773 13.2194 0.357147 11.6293 0.357147 10.0003C0.357147 8.37119 0.49773 6.78111 0.66101 5.25496C0.917014 2.86214 2.83618 0.944635 5.22468 0.678402ZM11.101 4.49549C10.5502 3.73991 9.45245 3.74018 8.90163 4.49505C8.36648 5.22845 7.98513 6.01521 7.7216 6.89668C6.86583 6.91356 6.04895 7.04806 5.2354 7.32231C4.34925 7.62104 4.02273 8.67878 4.52248 9.43835C5.02153 10.1969 5.62015 10.8201 6.3528 11.351C6.10458 12.2014 5.98343 13.0464 5.97483 13.9235C5.96588 14.8357 6.82109 15.5961 7.77149 15.2876C8.5821 15.0243 9.31116 14.6401 9.99913 14.1128C10.6877 14.6404 11.4179 15.0246 12.2289 15.2877C13.1792 15.596 14.0344 14.8358 14.0255 13.9235C14.0169 13.0464 13.8957 12.2014 13.6475 11.351C14.3801 10.8201 14.9787 10.1969 15.4779 9.43835C15.9776 8.67878 15.651 7.62104 14.7649 7.32231C13.9514 7.04808 13.1345 6.91358 12.2788 6.89668C12.0158 6.01574 11.6356 5.22904 11.101 4.49549Z" fill="#FBFF60"/>
</g>
<defs>
<clipPath id="clip0_1_1029">
<rect width="20" height="20" fill="white"/>
</clipPath>
</defs>
</svg>
