<svg width="20" height="20" viewBox="0 0 20 20" fill="none" xmlns="http://www.w3.org/2000/svg">
<g clip-path="url(#clip0_1_1032)">
<path fill-rule="evenodd" clip-rule="evenodd" d="M5.22464 0.678402C6.75872 0.507408 8.35952 0.357422 9.99997 0.357422C11.6404 0.357422 13.2412 0.507408 14.7753 0.678402C17.1638 0.944635 19.083 2.86214 19.339 5.25496C19.5023 6.78111 19.6428 8.37119 19.6428 10.0003C19.6428 11.6293 19.5023 13.2194 19.339 14.7456C19.083 17.1384 17.1638 19.056 14.7753 19.3221C13.2412 19.4931 11.6404 19.6431 9.99997 19.6431C8.35952 19.6431 6.75872 19.4931 5.22464 19.3221C2.83614 19.056 0.916985 17.1384 0.66098 14.7456C0.4977 13.2194 0.357117 11.6293 0.357117 10.0003C0.357117 8.37119 0.4977 6.78111 0.66098 5.25496C0.916984 2.86214 2.83614 0.944635 5.22464 0.678402ZM11.1009 4.49549C10.5502 3.73991 9.45242 3.74018 8.9016 4.49505C8.36644 5.22845 7.9851 6.01521 7.72157 6.89668C6.8658 6.91356 6.04892 7.04806 5.23537 7.32231C4.34922 7.62104 4.0227 8.67878 4.52244 9.43835C5.0215 10.1969 5.62012 10.8201 6.35277 11.351C6.10454 12.2014 5.9834 13.0464 5.9748 13.9235C5.96584 14.8357 6.82106 15.5961 7.77146 15.2876C8.58207 15.0243 9.31113 14.6401 9.9991 14.1128C10.6877 14.6404 11.4178 15.0246 12.2289 15.2877C13.1792 15.596 14.0344 14.8358 14.0254 13.9235C14.0168 13.0464 13.8957 12.2014 13.6475 11.351C14.3801 10.8201 14.9787 10.1969 15.4778 9.43835C15.9775 8.67878 15.651 7.62104 14.7648 7.32231C13.9514 7.04808 13.1345 6.91358 12.2788 6.89668C12.0157 6.01574 11.6356 5.22904 11.1009 4.49549Z" fill="#6A6A72"/>
</g>
<defs>
<clipPath id="clip0_1_1032">
<rect width="20" height="20" fill="white"/>
</clipPath>
</defs>
</svg>
