<svg width="14" height="14" viewBox="0 0 14 14" fill="none" xmlns="http://www.w3.org/2000/svg">
<g clip-path="url(#clip0_1_911)">
<path fill-rule="evenodd" clip-rule="evenodd" d="M6.62378 0.879501L4.0061 4.9247C4.02366 5.04771 4.03275 5.17345 4.03275 5.30132V12.1576C5.38999 12.5594 7.79394 13.25 10.1795 13.25C12.2825 13.25 13.9999 8.72732 13.9999 6.75C13.9999 4.77268 12.0225 3.78402 11.0339 3.78402H9.04337L9.30189 1.93589C9.42648 1.04519 8.73477 0.25 7.8354 0.25C7.35311 0.25 6.90104 0.484875 6.62378 0.879501ZM2.78281 5.3014V12.3586C2.78281 13.127 2.15985 13.75 1.3914 13.75C0.622952 13.75 0 13.127 0 12.3586V5.3014C0 4.53295 0.622952 3.91 1.3914 3.91C2.15985 3.91 2.78281 4.53295 2.78281 5.3014Z" fill="white"/>
</g>
<defs>
<clipPath id="clip0_1_911">
<rect width="14" height="14" fill="white"/>
</clipPath>
</defs>
</svg>
