<svg width="12" height="12" viewBox="0 0 12 12" fill="none" xmlns="http://www.w3.org/2000/svg">
<g clip-path="url(#clip0_1_1845)">
<path fill-rule="evenodd" clip-rule="evenodd" d="M6.32388 0.457531C5.8792 -0.152544 4.99829 -0.152367 4.5535 0.457203C4.00166 1.21347 3.61866 2.02953 3.36238 2.95917C2.46203 2.95798 1.61246 3.08709 0.767618 3.37189C0.0532064 3.61272 -0.216366 4.47009 0.19168 5.0903C0.705337 5.87103 1.32802 6.50255 2.10448 7.03772C1.82705 7.92361 1.6928 8.79934 1.68385 9.71186C1.67648 10.4631 2.37421 11.0671 3.13306 10.8207C3.85492 10.5863 4.50976 10.2524 5.13004 9.79989C4.96888 9.61663 4.81975 9.42086 4.68189 9.21129C4.01987 8.20507 4.43209 6.76545 5.65791 6.35223C5.98179 6.24305 6.30605 6.16555 6.63332 6.11658C6.78662 5.7765 6.97404 5.45269 7.2007 5.14208C7.95548 4.10768 9.48333 4.10689 10.2384 5.1428C10.3094 5.24009 10.3764 5.33866 10.4397 5.4386C10.5236 5.32587 10.6048 5.20983 10.6835 5.0903C11.0915 4.47009 10.8219 3.61272 10.1076 3.37189C9.2627 3.08709 8.41316 2.95798 7.51283 2.95917C7.2569 2.02991 6.8752 1.21389 6.32388 0.457531ZM9.37267 5.77389C9.04576 5.32533 8.39329 5.3255 8.0663 5.77363C7.76464 6.18704 7.5484 6.62995 7.39791 7.12441C6.91763 7.13621 6.45808 7.21319 6.00027 7.36752C5.47405 7.54491 5.281 8.17241 5.57707 8.62243C5.85852 9.05023 6.19531 9.40286 6.60584 9.7038C6.46852 10.1821 6.40137 10.6579 6.39652 11.1513C6.39124 11.6909 6.89798 12.1436 7.46333 11.9601C7.91951 11.8119 8.33059 11.597 8.71824 11.3033C9.10627 11.5971 9.51796 11.812 9.97438 11.9601C10.5397 12.1435 11.0464 11.6909 11.0412 11.1513C11.0363 10.6579 10.9692 10.1821 10.8319 9.7038C11.2424 9.40286 11.5791 9.05023 11.8606 8.62243C12.1567 8.17241 11.9636 7.54491 11.4374 7.36752C10.9796 7.2132 10.52 7.13622 10.0399 7.12441C9.88961 6.63026 9.67413 6.18739 9.37267 5.77389Z" fill="url(#paint0_linear_1_1845)"/>
</g>
<defs>
<linearGradient id="paint0_linear_1_1845" x1="11.9997" y1="6.0008" x2="0.000488281" y2="6.0008" gradientUnits="userSpaceOnUse">
<stop stop-color="#D9107F"/>
<stop offset="0.293269" stop-color="#EE1E03"/>
<stop offset="0.572115" stop-color="#F61785"/>
<stop offset="1" stop-color="#FC7C20"/>
</linearGradient>
<clipPath id="clip0_1_1845">
<rect width="12" height="12" fill="white"/>
</clipPath>
</defs>
</svg>
