<svg width="283" height="372" viewBox="0 0 283 372" fill="none" xmlns="http://www.w3.org/2000/svg">
<path d="M282 350.626V11C282 5.47715 277.523 1 272 1H11C5.47715 1 1 5.47715 1 11V361C1 366.523 5.47715 371 11 371H230.326" stroke="#00D8E1" stroke-width="2"/>
<path d="M267.94 368.683C267.918 370.559 269.742 371.077 271.509 370.991C271.603 370.987 272.997 370.893 272.997 370.809V369.13C275.039 371.698 279.514 371.503 281.296 368.809C280.526 368.379 278.575 367.284 278.573 367.282C278.573 367.293 278.327 367.567 278.312 367.582C277.466 368.409 276.115 368.132 275.555 367.158H281.945C282.402 364.251 279.928 361.992 277.029 361.992C273.667 361.992 270.836 365.227 272.545 368.441C271.369 368.486 271.373 367.61 271.373 367.61V359H267.933L267.939 367.99H264.024L267.863 361.991H261.087C261.045 364.363 260.499 365.171 261.584 366.118C261.882 366.377 262.391 366.763 262.722 366.978C262.914 367.12 262.789 367.544 262.565 367.57C261.684 367.615 260.789 367.72 260.264 368.172C259.482 368.932 259.226 369.807 258.708 370.994H266.204L267.938 368.319V368.683L267.94 368.683ZM275.523 365.524C276.18 364.173 277.964 364.396 278.628 365.524H275.523ZM248.179 361.383H251.611V359H248.179V361.383ZM240.047 369.671C241.074 370.422 242.414 371.014 244.166 370.992C245.926 370.992 247.465 370.493 248.178 369.359V370.992C251.458 370.992 254.742 370.988 258.025 370.989L258.184 369.281C258.307 367.477 257.661 366.805 256.577 366.115C255.537 365.471 257.32 365.354 257.873 365.246C258.701 365.097 259.32 364.424 259.623 363.699L260.403 361.991H253.82L251.906 365.017H255.258L251.643 370.684V361.992H248.181V366.735C247.361 365.41 245.224 365.432 243.594 364.815C242.962 364.543 243.379 364.068 243.904 364.05C244.823 364.057 245.601 364.437 246.194 364.841C246.215 364.83 246.677 364.174 247.567 362.89V362.859C245.395 361.622 239.925 361.358 240.001 364.779C240.001 367.019 242.258 367.418 244.198 367.689C244.575 367.728 245.037 367.837 245.037 368.281C244.937 368.659 244.523 368.711 244.055 368.711C242.974 368.708 242.091 368.164 241.485 367.605C241.31 367.605 240.47 369.057 240.048 369.633V369.672L240.047 369.671Z" fill="white"/>
</svg>
